G04 start of page 12 for group -3984 idx -3984 *
G04 Title: (unknown), fab *
G04 Creator: pcb 20110918 *
G04 CreationDate: Wed 07 Aug 2013 04:14:36 AM GMT UTC *
G04 For: ndholmes *
G04 Format: Gerber/RS-274X *
G04 PCB-Dimensions: 293000 121000 *
G04 PCB-Coordinate-Origin: lower left *
%MOIN*%
%FSLAX25Y25*%
%LNFAB*%
%ADD97C,0.0100*%
%ADD96C,0.0075*%
%ADD95C,0.0060*%
%ADD94R,0.0080X0.0080*%
G54D94*X46500Y107200D02*Y100800D01*
X43300Y104000D02*X49700D01*
X44900Y105600D02*X48100D01*
X44900D02*Y102400D01*
X48100D01*
Y105600D02*Y102400D01*
X46500Y20200D02*Y13800D01*
X43300Y17000D02*X49700D01*
X44900Y18600D02*X48100D01*
X44900D02*Y15400D01*
X48100D01*
Y18600D02*Y15400D01*
X276000Y20200D02*Y13800D01*
X272800Y17000D02*X279200D01*
X274400Y18600D02*X277600D01*
X274400D02*Y15400D01*
X277600D01*
Y18600D02*Y15400D01*
X224000Y107200D02*Y100800D01*
X220800Y104000D02*X227200D01*
X222400Y105600D02*X225600D01*
X222400D02*Y102400D01*
X225600D01*
Y105600D02*Y102400D01*
X15000Y135450D02*Y129050D01*
X11800Y132250D02*X18200D01*
X13400Y133850D02*X16600D01*
X13400D02*Y130650D01*
X16600D01*
Y133850D02*Y130650D01*
G54D95*X135000Y134500D02*X136500Y131500D01*
X138000Y134500D01*
X136500Y131500D02*Y128500D01*
X139800Y131800D02*X142050D01*
X139800Y128500D02*X142800D01*
X139800Y134500D02*Y128500D01*
Y134500D02*X142800D01*
X147600D02*X148350Y133750D01*
X145350Y134500D02*X147600D01*
X144600Y133750D02*X145350Y134500D01*
X144600Y133750D02*Y132250D01*
X145350Y131500D01*
X147600D01*
X148350Y130750D01*
Y129250D01*
X147600Y128500D02*X148350Y129250D01*
X145350Y128500D02*X147600D01*
X144600Y129250D02*X145350Y128500D01*
X98000Y130750D02*X101000Y134500D01*
X98000Y130750D02*X101750D01*
X101000Y134500D02*Y128500D01*
X45000Y129250D02*X45750Y128500D01*
X45000Y133750D02*Y129250D01*
Y133750D02*X45750Y134500D01*
X47250D01*
X48000Y133750D01*
Y129250D01*
X47250Y128500D02*X48000Y129250D01*
X45750Y128500D02*X47250D01*
X45000Y130000D02*X48000Y133000D01*
X49800Y128500D02*X50550D01*
X52350Y133300D02*X53550Y134500D01*
Y128500D01*
X52350D02*X54600D01*
X56400Y133750D02*X57150Y134500D01*
X59400D01*
X60150Y133750D01*
Y132250D01*
X56400Y128500D02*X60150Y132250D01*
X56400Y128500D02*X60150D01*
X62700D02*X64950Y131500D01*
Y133750D02*Y131500D01*
X64200Y134500D02*X64950Y133750D01*
X62700Y134500D02*X64200D01*
X61950Y133750D02*X62700Y134500D01*
X61950Y133750D02*Y132250D01*
X62700Y131500D01*
X64950D01*
X281500Y58000D02*Y54800D01*
Y58000D02*X284273Y59600D01*
X281500Y58000D02*X278727Y59600D01*
X279900Y58000D02*G75*G03X283100Y58000I1600J0D01*G01*
G75*G03X279900Y58000I-1600J0D01*G01*
X281500Y103000D02*Y99800D01*
Y103000D02*X284273Y104600D01*
X281500Y103000D02*X278727Y104600D01*
X279900Y103000D02*G75*G03X283100Y103000I1600J0D01*G01*
G75*G03X279900Y103000I-1600J0D01*G01*
X15000Y147250D02*Y144050D01*
Y147250D02*X17773Y148850D01*
X15000Y147250D02*X12227Y148850D01*
X13400Y147250D02*G75*G03X16600Y147250I1600J0D01*G01*
G75*G03X13400Y147250I-1600J0D01*G01*
X135000Y149500D02*X136500Y146500D01*
X138000Y149500D01*
X136500Y146500D02*Y143500D01*
X139800Y146800D02*X142050D01*
X139800Y143500D02*X142800D01*
X139800Y149500D02*Y143500D01*
Y149500D02*X142800D01*
X147600D02*X148350Y148750D01*
X145350Y149500D02*X147600D01*
X144600Y148750D02*X145350Y149500D01*
X144600Y148750D02*Y147250D01*
X145350Y146500D01*
X147600D01*
X148350Y145750D01*
Y144250D01*
X147600Y143500D02*X148350Y144250D01*
X145350Y143500D02*X147600D01*
X144600Y144250D02*X145350Y143500D01*
X98000Y148750D02*X98750Y149500D01*
X101000D01*
X101750Y148750D01*
Y147250D01*
X98000Y143500D02*X101750Y147250D01*
X98000Y143500D02*X101750D01*
X45000Y144250D02*X45750Y143500D01*
X45000Y148750D02*Y144250D01*
Y148750D02*X45750Y149500D01*
X47250D01*
X48000Y148750D01*
Y144250D01*
X47250Y143500D02*X48000Y144250D01*
X45750Y143500D02*X47250D01*
X45000Y145000D02*X48000Y148000D01*
X49800Y143500D02*X50550D01*
X52350Y148300D02*X53550Y149500D01*
Y143500D01*
X52350D02*X54600D01*
X56400Y148750D02*X57150Y149500D01*
X59400D01*
X60150Y148750D01*
Y147250D01*
X56400Y143500D02*X60150Y147250D01*
X56400Y143500D02*X60150D01*
X61950Y144250D02*X62700Y143500D01*
X61950Y145450D02*Y144250D01*
Y145450D02*X63000Y146500D01*
X63900D01*
X64950Y145450D01*
Y144250D01*
X64200Y143500D02*X64950Y144250D01*
X62700Y143500D02*X64200D01*
X61950Y147550D02*X63000Y146500D01*
X61950Y148750D02*Y147550D01*
Y148750D02*X62700Y149500D01*
X64200D01*
X64950Y148750D01*
Y147550D01*
X63900Y146500D02*X64950Y147550D01*
X11900Y72100D02*X15100D01*
X11900D02*Y68900D01*
X15100D01*
Y72100D02*Y68900D01*
X11900Y52100D02*X15100D01*
X11900D02*Y48900D01*
X15100D01*
Y52100D02*Y48900D01*
X11900Y112100D02*X15100D01*
X11900D02*Y108900D01*
X15100D01*
Y112100D02*Y108900D01*
X11900Y92100D02*X15100D01*
X11900D02*Y88900D01*
X15100D01*
Y92100D02*Y88900D01*
X11900Y32100D02*X15100D01*
X11900D02*Y28900D01*
X15100D01*
Y32100D02*Y28900D01*
X11900Y12100D02*X15100D01*
X11900D02*Y8900D01*
X15100D01*
Y12100D02*Y8900D01*
X110900Y15100D02*X114100D01*
X110900D02*Y11900D01*
X114100D01*
Y15100D02*Y11900D01*
X130900Y15100D02*X134100D01*
X130900D02*Y11900D01*
X134100D01*
Y15100D02*Y11900D01*
X170900Y109100D02*X174100D01*
X170900D02*Y105900D01*
X174100D01*
Y109100D02*Y105900D01*
X150900Y109100D02*X154100D01*
X150900D02*Y105900D01*
X154100D01*
Y109100D02*Y105900D01*
X130900Y109100D02*X134100D01*
X130900D02*Y105900D01*
X134100D01*
Y109100D02*Y105900D01*
X110900Y109100D02*X114100D01*
X110900D02*Y105900D01*
X114100D01*
Y109100D02*Y105900D01*
X90900Y109100D02*X94100D01*
X90900D02*Y105900D01*
X94100D01*
Y109100D02*Y105900D01*
X70900Y109100D02*X74100D01*
X70900D02*Y105900D01*
X74100D01*
Y109100D02*Y105900D01*
X194400Y15100D02*X197600D01*
X194400D02*Y11900D01*
X197600D01*
Y15100D02*Y11900D01*
X214400Y15100D02*X217600D01*
X214400D02*Y11900D01*
X217600D01*
Y15100D02*Y11900D01*
X154400Y15100D02*X157600D01*
X154400D02*Y11900D01*
X157600D01*
Y15100D02*Y11900D01*
X174400Y15100D02*X177600D01*
X174400D02*Y11900D01*
X177600D01*
Y15100D02*Y11900D01*
X266900Y52100D02*X270100D01*
X266900D02*Y48900D01*
X270100D01*
Y52100D02*Y48900D01*
X266900Y72100D02*X270100D01*
X266900D02*Y68900D01*
X270100D01*
Y72100D02*Y68900D01*
X266900Y92100D02*X270100D01*
X266900D02*Y88900D01*
X270100D01*
Y92100D02*Y88900D01*
X266900Y112100D02*X270100D01*
X266900D02*Y108900D01*
X270100D01*
Y112100D02*Y108900D01*
X70900Y15100D02*X74100D01*
X70900D02*Y11900D01*
X74100D01*
Y15100D02*Y11900D01*
X90900Y15100D02*X94100D01*
X90900D02*Y11900D01*
X94100D01*
Y15100D02*Y11900D01*
X13400Y163850D02*X16600D01*
X13400D02*Y160650D01*
X16600D01*
Y163850D02*Y160650D01*
X135000Y164500D02*X136500Y161500D01*
X138000Y164500D01*
X136500Y161500D02*Y158500D01*
X139800Y161800D02*X142050D01*
X139800Y158500D02*X142800D01*
X139800Y164500D02*Y158500D01*
Y164500D02*X142800D01*
X147600D02*X148350Y163750D01*
X145350Y164500D02*X147600D01*
X144600Y163750D02*X145350Y164500D01*
X144600Y163750D02*Y162250D01*
X145350Y161500D01*
X147600D01*
X148350Y160750D01*
Y159250D01*
X147600Y158500D02*X148350Y159250D01*
X145350Y158500D02*X147600D01*
X144600Y159250D02*X145350Y158500D01*
X98000Y163750D02*X98750Y164500D01*
X101000D01*
X101750Y163750D01*
Y162250D01*
X98000Y158500D02*X101750Y162250D01*
X98000Y158500D02*X101750D01*
X103550Y160750D02*X106550Y164500D01*
X103550Y160750D02*X107300D01*
X106550Y164500D02*Y158500D01*
X45000Y159250D02*X45750Y158500D01*
X45000Y163750D02*Y159250D01*
Y163750D02*X45750Y164500D01*
X47250D01*
X48000Y163750D01*
Y159250D01*
X47250Y158500D02*X48000Y159250D01*
X45750Y158500D02*X47250D01*
X45000Y160000D02*X48000Y163000D01*
X49800Y158500D02*X50550D01*
X52350Y159250D02*X53100Y158500D01*
X52350Y163750D02*Y159250D01*
Y163750D02*X53100Y164500D01*
X54600D01*
X55350Y163750D01*
Y159250D01*
X54600Y158500D02*X55350Y159250D01*
X53100Y158500D02*X54600D01*
X52350Y160000D02*X55350Y163000D01*
X57150Y160750D02*X60150Y164500D01*
X57150Y160750D02*X60900D01*
X60150Y164500D02*Y158500D01*
X62700Y159250D02*X63450Y158500D01*
X62700Y160450D02*Y159250D01*
Y160450D02*X63750Y161500D01*
X64650D01*
X65700Y160450D01*
Y159250D01*
X64950Y158500D02*X65700Y159250D01*
X63450Y158500D02*X64950D01*
X62700Y162550D02*X63750Y161500D01*
X62700Y163750D02*Y162550D01*
Y163750D02*X63450Y164500D01*
X64950D01*
X65700Y163750D01*
Y162550D01*
X64650Y161500D02*X65700Y162550D01*
X201700Y57500D02*G75*G03X203300Y57500I800J0D01*G01*
G75*G03X201700Y57500I-800J0D01*G01*
X211700D02*G75*G03X213300Y57500I800J0D01*G01*
G75*G03X211700Y57500I-800J0D01*G01*
X221700D02*G75*G03X223300Y57500I800J0D01*G01*
G75*G03X221700Y57500I-800J0D01*G01*
X14200Y177250D02*G75*G03X15800Y177250I800J0D01*G01*
G75*G03X14200Y177250I-800J0D01*G01*
X135000Y179500D02*X136500Y176500D01*
X138000Y179500D01*
X136500Y176500D02*Y173500D01*
X139800Y176800D02*X142050D01*
X139800Y173500D02*X142800D01*
X139800Y179500D02*Y173500D01*
Y179500D02*X142800D01*
X147600D02*X148350Y178750D01*
X145350Y179500D02*X147600D01*
X144600Y178750D02*X145350Y179500D01*
X144600Y178750D02*Y177250D01*
X145350Y176500D01*
X147600D01*
X148350Y175750D01*
Y174250D01*
X147600Y173500D02*X148350Y174250D01*
X145350Y173500D02*X147600D01*
X144600Y174250D02*X145350Y173500D01*
X98000Y178750D02*X98750Y179500D01*
X100250D01*
X101000Y178750D01*
X100250Y173500D02*X101000Y174250D01*
X98750Y173500D02*X100250D01*
X98000Y174250D02*X98750Y173500D01*
Y176800D02*X100250D01*
X101000Y178750D02*Y177550D01*
Y176050D02*Y174250D01*
Y176050D02*X100250Y176800D01*
X101000Y177550D02*X100250Y176800D01*
X45000Y174250D02*X45750Y173500D01*
X45000Y178750D02*Y174250D01*
Y178750D02*X45750Y179500D01*
X47250D01*
X48000Y178750D01*
Y174250D01*
X47250Y173500D02*X48000Y174250D01*
X45750Y173500D02*X47250D01*
X45000Y175000D02*X48000Y178000D01*
X49800Y173500D02*X50550D01*
X52350Y174250D02*X53100Y173500D01*
X52350Y178750D02*Y174250D01*
Y178750D02*X53100Y179500D01*
X54600D01*
X55350Y178750D01*
Y174250D01*
X54600Y173500D02*X55350Y174250D01*
X53100Y173500D02*X54600D01*
X52350Y175000D02*X55350Y178000D01*
X57150Y175750D02*X60150Y179500D01*
X57150Y175750D02*X60900D01*
X60150Y179500D02*Y173500D01*
X62700Y179500D02*X65700D01*
X62700D02*Y176500D01*
X63450Y177250D01*
X64950D01*
X65700Y176500D01*
Y174250D01*
X64950Y173500D02*X65700Y174250D01*
X63450Y173500D02*X64950D01*
X62700Y174250D02*X63450Y173500D01*
X48800Y72200D02*X51200Y69800D01*
X48800D02*X51200Y72200D01*
X48800Y62200D02*X51200Y59800D01*
X48800D02*X51200Y62200D01*
X48800Y52200D02*X51200Y49800D01*
X48800D02*X51200Y52200D01*
X58800Y72200D02*X61200Y69800D01*
X58800D02*X61200Y72200D01*
X58800Y62200D02*X61200Y59800D01*
X58800D02*X61200Y62200D01*
X58800Y52200D02*X61200Y49800D01*
X58800D02*X61200Y52200D01*
X13800Y193450D02*X16200Y191050D01*
X13800D02*X16200Y193450D01*
X135000Y194500D02*X136500Y191500D01*
X138000Y194500D01*
X136500Y191500D02*Y188500D01*
X139800Y191800D02*X142050D01*
X139800Y188500D02*X142800D01*
X139800Y194500D02*Y188500D01*
Y194500D02*X142800D01*
X147600D02*X148350Y193750D01*
X145350Y194500D02*X147600D01*
X144600Y193750D02*X145350Y194500D01*
X144600Y193750D02*Y192250D01*
X145350Y191500D01*
X147600D01*
X148350Y190750D01*
Y189250D01*
X147600Y188500D02*X148350Y189250D01*
X145350Y188500D02*X147600D01*
X144600Y189250D02*X145350Y188500D01*
X100250Y194500D02*X101000Y193750D01*
X98750Y194500D02*X100250D01*
X98000Y193750D02*X98750Y194500D01*
X98000Y193750D02*Y189250D01*
X98750Y188500D01*
X100250Y191800D02*X101000Y191050D01*
X98000Y191800D02*X100250D01*
X98750Y188500D02*X100250D01*
X101000Y189250D01*
Y191050D02*Y189250D01*
X45000D02*X45750Y188500D01*
X45000Y193750D02*Y189250D01*
Y193750D02*X45750Y194500D01*
X47250D01*
X48000Y193750D01*
Y189250D01*
X47250Y188500D02*X48000Y189250D01*
X45750Y188500D02*X47250D01*
X45000Y190000D02*X48000Y193000D01*
X49800Y188500D02*X50550D01*
X52350Y189250D02*X53100Y188500D01*
X52350Y193750D02*Y189250D01*
Y193750D02*X53100Y194500D01*
X54600D01*
X55350Y193750D01*
Y189250D01*
X54600Y188500D02*X55350Y189250D01*
X53100Y188500D02*X54600D01*
X52350Y190000D02*X55350Y193000D01*
X57150Y193750D02*X57900Y194500D01*
X59400D01*
X60150Y193750D01*
X59400Y188500D02*X60150Y189250D01*
X57900Y188500D02*X59400D01*
X57150Y189250D02*X57900Y188500D01*
Y191800D02*X59400D01*
X60150Y193750D02*Y192550D01*
Y191050D02*Y189250D01*
Y191050D02*X59400Y191800D01*
X60150Y192550D02*X59400Y191800D01*
X61950Y189250D02*X62700Y188500D01*
X61950Y190450D02*Y189250D01*
Y190450D02*X63000Y191500D01*
X63900D01*
X64950Y190450D01*
Y189250D01*
X64200Y188500D02*X64950Y189250D01*
X62700Y188500D02*X64200D01*
X61950Y192550D02*X63000Y191500D01*
X61950Y193750D02*Y192550D01*
Y193750D02*X62700Y194500D01*
X64200D01*
X64950Y193750D01*
Y192550D01*
X63900Y191500D02*X64950Y192550D01*
X256500Y64600D02*Y61400D01*
X254900Y63000D02*X258100D01*
X246500Y69600D02*Y66400D01*
X244900Y68000D02*X248100D01*
X256500Y74600D02*Y71400D01*
X254900Y73000D02*X258100D01*
X246500Y79600D02*Y76400D01*
X244900Y78000D02*X248100D01*
X256500Y84600D02*Y81400D01*
X254900Y83000D02*X258100D01*
X246500Y89600D02*Y86400D01*
X244900Y88000D02*X248100D01*
X256500Y94600D02*Y91400D01*
X254900Y93000D02*X258100D01*
X246500Y99600D02*Y96400D01*
X244900Y98000D02*X248100D01*
X15000Y208850D02*Y205650D01*
X13400Y207250D02*X16600D01*
X135000Y209500D02*X136500Y206500D01*
X138000Y209500D01*
X136500Y206500D02*Y203500D01*
X139800Y206800D02*X142050D01*
X139800Y203500D02*X142800D01*
X139800Y209500D02*Y203500D01*
Y209500D02*X142800D01*
X147600D02*X148350Y208750D01*
X145350Y209500D02*X147600D01*
X144600Y208750D02*X145350Y209500D01*
X144600Y208750D02*Y207250D01*
X145350Y206500D01*
X147600D01*
X148350Y205750D01*
Y204250D01*
X147600Y203500D02*X148350Y204250D01*
X145350Y203500D02*X147600D01*
X144600Y204250D02*X145350Y203500D01*
X98000Y204250D02*X98750Y203500D01*
X98000Y205450D02*Y204250D01*
Y205450D02*X99050Y206500D01*
X99950D01*
X101000Y205450D01*
Y204250D01*
X100250Y203500D02*X101000Y204250D01*
X98750Y203500D02*X100250D01*
X98000Y207550D02*X99050Y206500D01*
X98000Y208750D02*Y207550D01*
Y208750D02*X98750Y209500D01*
X100250D01*
X101000Y208750D01*
Y207550D01*
X99950Y206500D02*X101000Y207550D01*
X45000Y204250D02*X45750Y203500D01*
X45000Y208750D02*Y204250D01*
Y208750D02*X45750Y209500D01*
X47250D01*
X48000Y208750D01*
Y204250D01*
X47250Y203500D02*X48000Y204250D01*
X45750Y203500D02*X47250D01*
X45000Y205000D02*X48000Y208000D01*
X49800Y203500D02*X50550D01*
X52350Y204250D02*X53100Y203500D01*
X52350Y208750D02*Y204250D01*
Y208750D02*X53100Y209500D01*
X54600D01*
X55350Y208750D01*
Y204250D01*
X54600Y203500D02*X55350Y204250D01*
X53100Y203500D02*X54600D01*
X52350Y205000D02*X55350Y208000D01*
X57150Y208750D02*X57900Y209500D01*
X59400D01*
X60150Y208750D01*
X59400Y203500D02*X60150Y204250D01*
X57900Y203500D02*X59400D01*
X57150Y204250D02*X57900Y203500D01*
Y206800D02*X59400D01*
X60150Y208750D02*Y207550D01*
Y206050D02*Y204250D01*
Y206050D02*X59400Y206800D01*
X60150Y207550D02*X59400Y206800D01*
X61950Y204250D02*X62700Y203500D01*
X61950Y208750D02*Y204250D01*
Y208750D02*X62700Y209500D01*
X64200D01*
X64950Y208750D01*
Y204250D01*
X64200Y203500D02*X64950Y204250D01*
X62700Y203500D02*X64200D01*
X61950Y205000D02*X64950Y208000D01*
X150000Y46394D02*Y44794D01*
Y46394D02*X151387Y47194D01*
X150000Y46394D02*X148613Y47194D01*
X150000Y65606D02*Y64006D01*
Y65606D02*X151387Y66406D01*
X150000Y65606D02*X148613Y66406D01*
X252500Y11500D02*Y9900D01*
Y11500D02*X253887Y12300D01*
X252500Y11500D02*X251113Y12300D01*
X252500Y7000D02*Y5400D01*
Y7000D02*X253887Y7800D01*
X252500Y7000D02*X251113Y7800D01*
X248000Y11500D02*Y9900D01*
Y11500D02*X249387Y12300D01*
X248000Y11500D02*X246613Y12300D01*
X248000Y7000D02*Y5400D01*
Y7000D02*X249387Y7800D01*
X248000Y7000D02*X246613Y7800D01*
X236000Y11500D02*Y9900D01*
Y11500D02*X237387Y12300D01*
X236000Y11500D02*X234613Y12300D01*
X236000Y7000D02*Y5400D01*
Y7000D02*X237387Y7800D01*
X236000Y7000D02*X234613Y7800D01*
X231500Y11500D02*Y9900D01*
Y11500D02*X232887Y12300D01*
X231500Y11500D02*X230113Y12300D01*
X231500Y7000D02*Y5400D01*
Y7000D02*X232887Y7800D01*
X231500Y7000D02*X230113Y7800D01*
X206500Y79500D02*Y77900D01*
Y79500D02*X207887Y80300D01*
X206500Y79500D02*X205113Y80300D01*
X207000Y111000D02*Y109400D01*
Y111000D02*X208387Y111800D01*
X207000Y111000D02*X205613Y111800D01*
X171500Y56500D02*Y54900D01*
Y56500D02*X172887Y57300D01*
X171500Y56500D02*X170113Y57300D01*
X171500Y52000D02*Y50400D01*
Y52000D02*X172887Y52800D01*
X171500Y52000D02*X170113Y52800D01*
X171500Y47500D02*Y45900D01*
Y47500D02*X172887Y48300D01*
X171500Y47500D02*X170113Y48300D01*
X149000Y55500D02*Y53900D01*
Y55500D02*X150387Y56300D01*
X149000Y55500D02*X147613Y56300D01*
X153500Y55500D02*Y53900D01*
Y55500D02*X154887Y56300D01*
X153500Y55500D02*X152113Y56300D01*
X158000Y55500D02*Y53900D01*
Y55500D02*X159387Y56300D01*
X158000Y55500D02*X156613Y56300D01*
X132000Y50000D02*Y48400D01*
Y50000D02*X133387Y50800D01*
X132000Y50000D02*X130613Y50800D01*
X151500Y22500D02*Y20900D01*
Y22500D02*X152887Y23300D01*
X151500Y22500D02*X150113Y23300D01*
X156000Y22500D02*Y20900D01*
Y22500D02*X157387Y23300D01*
X156000Y22500D02*X154613Y23300D01*
X160500Y22500D02*Y20900D01*
Y22500D02*X161887Y23300D01*
X160500Y22500D02*X159113Y23300D01*
X165000Y22500D02*Y20900D01*
Y22500D02*X166387Y23300D01*
X165000Y22500D02*X163613Y23300D01*
X169500Y22500D02*Y20900D01*
Y22500D02*X170887Y23300D01*
X169500Y22500D02*X168113Y23300D01*
X174000Y22500D02*Y20900D01*
Y22500D02*X175387Y23300D01*
X174000Y22500D02*X172613Y23300D01*
X178500Y22500D02*Y20900D01*
Y22500D02*X179887Y23300D01*
X178500Y22500D02*X177113Y23300D01*
X120500Y81500D02*Y79900D01*
Y81500D02*X121887Y82300D01*
X120500Y81500D02*X119113Y82300D01*
X68000Y35500D02*Y33900D01*
Y35500D02*X69387Y36300D01*
X68000Y35500D02*X66613Y36300D01*
X85500Y78500D02*Y76900D01*
Y78500D02*X86887Y79300D01*
X85500Y78500D02*X84113Y79300D01*
X85500Y83000D02*Y81400D01*
Y83000D02*X86887Y83800D01*
X85500Y83000D02*X84113Y83800D01*
X85500Y87500D02*Y85900D01*
Y87500D02*X86887Y88300D01*
X85500Y87500D02*X84113Y88300D01*
X85500Y92000D02*Y90400D01*
Y92000D02*X86887Y92800D01*
X85500Y92000D02*X84113Y92800D01*
X41500Y74000D02*Y72400D01*
Y74000D02*X42887Y74800D01*
X41500Y74000D02*X40113Y74800D01*
X137000Y50000D02*Y48400D01*
Y50000D02*X138387Y50800D01*
X137000Y50000D02*X135613Y50800D01*
X134500Y46500D02*Y44900D01*
Y46500D02*X135887Y47300D01*
X134500Y46500D02*X133113Y47300D01*
X110000Y24500D02*Y22900D01*
Y24500D02*X111387Y25300D01*
X110000Y24500D02*X108613Y25300D01*
X115000Y24500D02*Y22900D01*
Y24500D02*X116387Y25300D01*
X115000Y24500D02*X113613Y25300D01*
X120000Y24500D02*Y22900D01*
Y24500D02*X121387Y25300D01*
X120000Y24500D02*X118613Y25300D01*
X125000Y24500D02*Y22900D01*
Y24500D02*X126387Y25300D01*
X125000Y24500D02*X123613Y25300D01*
X130000Y24500D02*Y22900D01*
Y24500D02*X131387Y25300D01*
X130000Y24500D02*X128613Y25300D01*
X135000Y24500D02*Y22900D01*
Y24500D02*X136387Y25300D01*
X135000Y24500D02*X133613Y25300D01*
X158000Y83000D02*Y81400D01*
Y83000D02*X159387Y83800D01*
X158000Y83000D02*X156613Y83800D01*
X173500Y66000D02*Y64400D01*
Y66000D02*X174887Y66800D01*
X173500Y66000D02*X172113Y66800D01*
X117500Y85500D02*Y83900D01*
Y85500D02*X118887Y86300D01*
X117500Y85500D02*X116113Y86300D01*
X109000Y86000D02*Y84400D01*
Y86000D02*X110387Y86800D01*
X109000Y86000D02*X107613Y86800D01*
X113500Y88500D02*Y86900D01*
Y88500D02*X114887Y89300D01*
X113500Y88500D02*X112113Y89300D01*
X43500Y44500D02*Y42900D01*
Y44500D02*X44887Y45300D01*
X43500Y44500D02*X42113Y45300D01*
X49000Y44500D02*Y42900D01*
Y44500D02*X50387Y45300D01*
X49000Y44500D02*X47613Y45300D01*
X88500Y38000D02*Y36400D01*
Y38000D02*X89887Y38800D01*
X88500Y38000D02*X87113Y38800D01*
X118500Y77000D02*Y75400D01*
Y77000D02*X119887Y77800D01*
X118500Y77000D02*X117113Y77800D01*
X111500Y35000D02*Y33400D01*
Y35000D02*X112887Y35800D01*
X111500Y35000D02*X110113Y35800D01*
X107000Y33000D02*Y31400D01*
Y33000D02*X108387Y33800D01*
X107000Y33000D02*X105613Y33800D01*
X103500Y49000D02*Y47400D01*
Y49000D02*X104887Y49800D01*
X103500Y49000D02*X102113Y49800D01*
X127500Y75500D02*Y73900D01*
Y75500D02*X128887Y76300D01*
X127500Y75500D02*X126113Y76300D01*
X113500Y66000D02*Y64400D01*
Y66000D02*X114887Y66800D01*
X113500Y66000D02*X112113Y66800D01*
X113500Y61500D02*Y59900D01*
Y61500D02*X114887Y62300D01*
X113500Y61500D02*X112113Y62300D01*
X113500Y57000D02*Y55400D01*
Y57000D02*X114887Y57800D01*
X113500Y57000D02*X112113Y57800D01*
X101500Y58000D02*Y56400D01*
Y58000D02*X102887Y58800D01*
X101500Y58000D02*X100113Y58800D01*
X15000Y222250D02*Y220650D01*
Y222250D02*X16387Y223050D01*
X15000Y222250D02*X13613Y223050D01*
X135000Y224500D02*X136500Y221500D01*
X138000Y224500D01*
X136500Y221500D02*Y218500D01*
X139800Y221800D02*X142050D01*
X139800Y218500D02*X142800D01*
X139800Y224500D02*Y218500D01*
Y224500D02*X142800D01*
X147600D02*X148350Y223750D01*
X145350Y224500D02*X147600D01*
X144600Y223750D02*X145350Y224500D01*
X144600Y223750D02*Y222250D01*
X145350Y221500D01*
X147600D01*
X148350Y220750D01*
Y219250D01*
X147600Y218500D02*X148350Y219250D01*
X145350Y218500D02*X147600D01*
X144600Y219250D02*X145350Y218500D01*
X98000Y224500D02*X101000D01*
X98000D02*Y221500D01*
X98750Y222250D01*
X100250D01*
X101000Y221500D01*
Y219250D01*
X100250Y218500D02*X101000Y219250D01*
X98750Y218500D02*X100250D01*
X98000Y219250D02*X98750Y218500D01*
X102800Y219250D02*X103550Y218500D01*
X102800Y220450D02*Y219250D01*
Y220450D02*X103850Y221500D01*
X104750D01*
X105800Y220450D01*
Y219250D01*
X105050Y218500D02*X105800Y219250D01*
X103550Y218500D02*X105050D01*
X102800Y222550D02*X103850Y221500D01*
X102800Y223750D02*Y222550D01*
Y223750D02*X103550Y224500D01*
X105050D01*
X105800Y223750D01*
Y222550D01*
X104750Y221500D02*X105800Y222550D01*
X45000Y219250D02*X45750Y218500D01*
X45000Y223750D02*Y219250D01*
Y223750D02*X45750Y224500D01*
X47250D01*
X48000Y223750D01*
Y219250D01*
X47250Y218500D02*X48000Y219250D01*
X45750Y218500D02*X47250D01*
X45000Y220000D02*X48000Y223000D01*
X49800Y218500D02*X50550D01*
X52350Y219250D02*X53100Y218500D01*
X52350Y223750D02*Y219250D01*
Y223750D02*X53100Y224500D01*
X54600D01*
X55350Y223750D01*
Y219250D01*
X54600Y218500D02*X55350Y219250D01*
X53100Y218500D02*X54600D01*
X52350Y220000D02*X55350Y223000D01*
X57150Y223750D02*X57900Y224500D01*
X60150D01*
X60900Y223750D01*
Y222250D01*
X57150Y218500D02*X60900Y222250D01*
X57150Y218500D02*X60900D01*
X62700Y219250D02*X63450Y218500D01*
X62700Y223750D02*Y219250D01*
Y223750D02*X63450Y224500D01*
X64950D01*
X65700Y223750D01*
Y219250D01*
X64950Y218500D02*X65700Y219250D01*
X63450Y218500D02*X64950D01*
X62700Y220000D02*X65700Y223000D01*
X3000Y239500D02*X3750Y238750D01*
X750Y239500D02*X3000D01*
X0Y238750D02*X750Y239500D01*
X0Y238750D02*Y237250D01*
X750Y236500D01*
X3000D01*
X3750Y235750D01*
Y234250D01*
X3000Y233500D02*X3750Y234250D01*
X750Y233500D02*X3000D01*
X0Y234250D02*X750Y233500D01*
X5550Y236500D02*Y234250D01*
X6300Y233500D01*
X8550Y236500D02*Y232000D01*
X7800Y231250D02*X8550Y232000D01*
X6300Y231250D02*X7800D01*
X5550Y232000D02*X6300Y231250D01*
Y233500D02*X7800D01*
X8550Y234250D01*
X11100Y235750D02*Y233500D01*
Y235750D02*X11850Y236500D01*
X12600D01*
X13350Y235750D01*
Y233500D01*
Y235750D02*X14100Y236500D01*
X14850D01*
X15600Y235750D01*
Y233500D01*
X10350Y236500D02*X11100Y235750D01*
X17400Y239500D02*Y233500D01*
Y234250D02*X18150Y233500D01*
X19650D01*
X20400Y234250D01*
Y235750D02*Y234250D01*
X19650Y236500D02*X20400Y235750D01*
X18150Y236500D02*X19650D01*
X17400Y235750D02*X18150Y236500D01*
X22200Y235750D02*Y234250D01*
Y235750D02*X22950Y236500D01*
X24450D01*
X25200Y235750D01*
Y234250D01*
X24450Y233500D02*X25200Y234250D01*
X22950Y233500D02*X24450D01*
X22200Y234250D02*X22950Y233500D01*
X27000Y239500D02*Y234250D01*
X27750Y233500D01*
X0Y230250D02*X29250D01*
X41750Y239500D02*Y233500D01*
X43700Y239500D02*X44750Y238450D01*
Y234550D01*
X43700Y233500D02*X44750Y234550D01*
X41000Y233500D02*X43700D01*
X41000Y239500D02*X43700D01*
G54D96*X46550Y238000D02*Y237850D01*
G54D95*Y235750D02*Y233500D01*
X50300Y236500D02*X51050Y235750D01*
X48800Y236500D02*X50300D01*
X48050Y235750D02*X48800Y236500D01*
X48050Y235750D02*Y234250D01*
X48800Y233500D01*
X51050Y236500D02*Y234250D01*
X51800Y233500D01*
X48800D02*X50300D01*
X51050Y234250D01*
X54350Y235750D02*Y233500D01*
Y235750D02*X55100Y236500D01*
X55850D01*
X56600Y235750D01*
Y233500D01*
Y235750D02*X57350Y236500D01*
X58100D01*
X58850Y235750D01*
Y233500D01*
X53600Y236500D02*X54350Y235750D01*
X60650Y233500D02*X61400D01*
X65900Y234250D02*X66650Y233500D01*
X65900Y238750D02*X66650Y239500D01*
X65900Y238750D02*Y234250D01*
X68450Y239500D02*X69950D01*
X69200D02*Y233500D01*
X68450D02*X69950D01*
X72500Y235750D02*Y233500D01*
Y235750D02*X73250Y236500D01*
X74000D01*
X74750Y235750D01*
Y233500D01*
X71750Y236500D02*X72500Y235750D01*
X77300Y236500D02*X79550D01*
X76550Y235750D02*X77300Y236500D01*
X76550Y235750D02*Y234250D01*
X77300Y233500D01*
X79550D01*
X81350Y239500D02*Y233500D01*
Y235750D02*X82100Y236500D01*
X83600D01*
X84350Y235750D01*
Y233500D01*
X86150Y239500D02*X86900Y238750D01*
Y234250D01*
X86150Y233500D02*X86900Y234250D01*
X41000Y230250D02*X88700D01*
X96050Y233500D02*X98000D01*
X95000Y234550D02*X96050Y233500D01*
X95000Y238450D02*Y234550D01*
Y238450D02*X96050Y239500D01*
X98000D01*
X99800Y235750D02*Y234250D01*
Y235750D02*X100550Y236500D01*
X102050D01*
X102800Y235750D01*
Y234250D01*
X102050Y233500D02*X102800Y234250D01*
X100550Y233500D02*X102050D01*
X99800Y234250D02*X100550Y233500D01*
X104600Y236500D02*Y234250D01*
X105350Y233500D01*
X106850D01*
X107600Y234250D01*
Y236500D02*Y234250D01*
X110150Y235750D02*Y233500D01*
Y235750D02*X110900Y236500D01*
X111650D01*
X112400Y235750D01*
Y233500D01*
X109400Y236500D02*X110150Y235750D01*
X114950Y239500D02*Y234250D01*
X115700Y233500D01*
X114200Y237250D02*X115700D01*
X95000Y230250D02*X117200D01*
X130750Y239500D02*Y233500D01*
X130000Y239500D02*X133000D01*
X133750Y238750D01*
Y237250D01*
X133000Y236500D02*X133750Y237250D01*
X130750Y236500D02*X133000D01*
X135550Y239500D02*Y234250D01*
X136300Y233500D01*
X140050Y236500D02*X140800Y235750D01*
X138550Y236500D02*X140050D01*
X137800Y235750D02*X138550Y236500D01*
X137800Y235750D02*Y234250D01*
X138550Y233500D01*
X140800Y236500D02*Y234250D01*
X141550Y233500D01*
X138550D02*X140050D01*
X140800Y234250D01*
X144100Y239500D02*Y234250D01*
X144850Y233500D01*
X143350Y237250D02*X144850D01*
X147100Y233500D02*X149350D01*
X146350Y234250D02*X147100Y233500D01*
X146350Y235750D02*Y234250D01*
Y235750D02*X147100Y236500D01*
X148600D01*
X149350Y235750D01*
X146350Y235000D02*X149350D01*
Y235750D02*Y235000D01*
X154150Y239500D02*Y233500D01*
X153400D02*X154150Y234250D01*
X151900Y233500D02*X153400D01*
X151150Y234250D02*X151900Y233500D01*
X151150Y235750D02*Y234250D01*
Y235750D02*X151900Y236500D01*
X153400D01*
X154150Y235750D01*
X157450Y236500D02*Y235750D01*
Y234250D02*Y233500D01*
X155950Y238750D02*Y238000D01*
Y238750D02*X156700Y239500D01*
X158200D01*
X158950Y238750D01*
Y238000D01*
X157450Y236500D02*X158950Y238000D01*
X130000Y230250D02*X160750D01*
X0Y254500D02*X3000D01*
X1500D02*Y248500D01*
X4800Y254500D02*Y248500D01*
Y250750D02*X5550Y251500D01*
X7050D01*
X7800Y250750D01*
Y248500D01*
X10350D02*X12600D01*
X9600Y249250D02*X10350Y248500D01*
X9600Y250750D02*Y249250D01*
Y250750D02*X10350Y251500D01*
X11850D01*
X12600Y250750D01*
X9600Y250000D02*X12600D01*
Y250750D02*Y250000D01*
X15150Y250750D02*Y248500D01*
Y250750D02*X15900Y251500D01*
X17400D01*
X14400D02*X15150Y250750D01*
X19950Y248500D02*X22200D01*
X19200Y249250D02*X19950Y248500D01*
X19200Y250750D02*Y249250D01*
Y250750D02*X19950Y251500D01*
X21450D01*
X22200Y250750D01*
X19200Y250000D02*X22200D01*
Y250750D02*Y250000D01*
X28950Y251500D02*X29700Y250750D01*
X27450Y251500D02*X28950D01*
X26700Y250750D02*X27450Y251500D01*
X26700Y250750D02*Y249250D01*
X27450Y248500D01*
X29700Y251500D02*Y249250D01*
X30450Y248500D01*
X27450D02*X28950D01*
X29700Y249250D01*
X33000Y250750D02*Y248500D01*
Y250750D02*X33750Y251500D01*
X35250D01*
X32250D02*X33000Y250750D01*
X37800Y248500D02*X40050D01*
X37050Y249250D02*X37800Y248500D01*
X37050Y250750D02*Y249250D01*
Y250750D02*X37800Y251500D01*
X39300D01*
X40050Y250750D01*
X37050Y250000D02*X40050D01*
Y250750D02*Y250000D01*
X45300Y248500D02*X48300Y254500D01*
X44550D02*X48300D01*
X55800D02*Y248500D01*
X55050D02*X55800Y249250D01*
X53550Y248500D02*X55050D01*
X52800Y249250D02*X53550Y248500D01*
X52800Y250750D02*Y249250D01*
Y250750D02*X53550Y251500D01*
X55050D01*
X55800Y250750D01*
G54D96*X57600Y253000D02*Y252850D01*
G54D95*Y250750D02*Y248500D01*
X59850Y253750D02*Y248500D01*
Y253750D02*X60600Y254500D01*
X61350D01*
X59100Y251500D02*X60600D01*
X63600Y253750D02*Y248500D01*
Y253750D02*X64350Y254500D01*
X65100D01*
X62850Y251500D02*X64350D01*
X67350Y248500D02*X69600D01*
X66600Y249250D02*X67350Y248500D01*
X66600Y250750D02*Y249250D01*
Y250750D02*X67350Y251500D01*
X68850D01*
X69600Y250750D01*
X66600Y250000D02*X69600D01*
Y250750D02*Y250000D01*
X72150Y250750D02*Y248500D01*
Y250750D02*X72900Y251500D01*
X74400D01*
X71400D02*X72150Y250750D01*
X76950Y248500D02*X79200D01*
X76200Y249250D02*X76950Y248500D01*
X76200Y250750D02*Y249250D01*
Y250750D02*X76950Y251500D01*
X78450D01*
X79200Y250750D01*
X76200Y250000D02*X79200D01*
Y250750D02*Y250000D01*
X81750Y250750D02*Y248500D01*
Y250750D02*X82500Y251500D01*
X83250D01*
X84000Y250750D01*
Y248500D01*
X81000Y251500D02*X81750Y250750D01*
X86550Y254500D02*Y249250D01*
X87300Y248500D01*
X85800Y252250D02*X87300D01*
X94500Y254500D02*Y248500D01*
X93750D02*X94500Y249250D01*
X92250Y248500D02*X93750D01*
X91500Y249250D02*X92250Y248500D01*
X91500Y250750D02*Y249250D01*
Y250750D02*X92250Y251500D01*
X93750D01*
X94500Y250750D01*
X97050D02*Y248500D01*
Y250750D02*X97800Y251500D01*
X99300D01*
X96300D02*X97050Y250750D01*
G54D96*X101100Y253000D02*Y252850D01*
G54D95*Y250750D02*Y248500D01*
X102600Y254500D02*Y249250D01*
X103350Y248500D01*
X104850Y254500D02*Y249250D01*
X105600Y248500D01*
X110550D02*X112800D01*
X113550Y249250D01*
X112800Y250000D02*X113550Y249250D01*
X110550Y250000D02*X112800D01*
X109800Y250750D02*X110550Y250000D01*
X109800Y250750D02*X110550Y251500D01*
X112800D01*
X113550Y250750D01*
X109800Y249250D02*X110550Y248500D01*
G54D96*X115350Y253000D02*Y252850D01*
G54D95*Y250750D02*Y248500D01*
X116850Y251500D02*X119850D01*
X116850Y248500D02*X119850Y251500D01*
X116850Y248500D02*X119850D01*
X122400D02*X124650D01*
X121650Y249250D02*X122400Y248500D01*
X121650Y250750D02*Y249250D01*
Y250750D02*X122400Y251500D01*
X123900D01*
X124650Y250750D01*
X121650Y250000D02*X124650D01*
Y250750D02*Y250000D01*
X127200Y248500D02*X129450D01*
X130200Y249250D01*
X129450Y250000D02*X130200Y249250D01*
X127200Y250000D02*X129450D01*
X126450Y250750D02*X127200Y250000D01*
X126450Y250750D02*X127200Y251500D01*
X129450D01*
X130200Y250750D01*
X126450Y249250D02*X127200Y248500D01*
X134700Y251500D02*Y249250D01*
X135450Y248500D01*
X136950D01*
X137700Y249250D01*
Y251500D02*Y249250D01*
X140250Y248500D02*X142500D01*
X143250Y249250D01*
X142500Y250000D02*X143250Y249250D01*
X140250Y250000D02*X142500D01*
X139500Y250750D02*X140250Y250000D01*
X139500Y250750D02*X140250Y251500D01*
X142500D01*
X143250Y250750D01*
X139500Y249250D02*X140250Y248500D01*
X145800D02*X148050D01*
X145050Y249250D02*X145800Y248500D01*
X145050Y250750D02*Y249250D01*
Y250750D02*X145800Y251500D01*
X147300D01*
X148050Y250750D01*
X145050Y250000D02*X148050D01*
Y250750D02*Y250000D01*
X152850Y254500D02*Y248500D01*
X152100D02*X152850Y249250D01*
X150600Y248500D02*X152100D01*
X149850Y249250D02*X150600Y248500D01*
X149850Y250750D02*Y249250D01*
Y250750D02*X150600Y251500D01*
X152100D01*
X152850Y250750D01*
G54D96*X157350Y253000D02*Y252850D01*
G54D95*Y250750D02*Y248500D01*
X159600Y250750D02*Y248500D01*
Y250750D02*X160350Y251500D01*
X161100D01*
X161850Y250750D01*
Y248500D01*
X158850Y251500D02*X159600Y250750D01*
X167100Y254500D02*Y249250D01*
X167850Y248500D01*
X166350Y252250D02*X167850D01*
X169350Y254500D02*Y248500D01*
Y250750D02*X170100Y251500D01*
X171600D01*
X172350Y250750D01*
Y248500D01*
G54D96*X174150Y253000D02*Y252850D01*
G54D95*Y250750D02*Y248500D01*
X176400D02*X178650D01*
X179400Y249250D01*
X178650Y250000D02*X179400Y249250D01*
X176400Y250000D02*X178650D01*
X175650Y250750D02*X176400Y250000D01*
X175650Y250750D02*X176400Y251500D01*
X178650D01*
X179400Y250750D01*
X175650Y249250D02*X176400Y248500D01*
X183900Y254500D02*Y249250D01*
X184650Y248500D01*
X188400Y251500D02*X189150Y250750D01*
X186900Y251500D02*X188400D01*
X186150Y250750D02*X186900Y251500D01*
X186150Y250750D02*Y249250D01*
X186900Y248500D01*
X189150Y251500D02*Y249250D01*
X189900Y248500D01*
X186900D02*X188400D01*
X189150Y249250D01*
X191700Y251500D02*Y249250D01*
X192450Y248500D01*
X194700Y251500D02*Y247000D01*
X193950Y246250D02*X194700Y247000D01*
X192450Y246250D02*X193950D01*
X191700Y247000D02*X192450Y246250D01*
Y248500D02*X193950D01*
X194700Y249250D01*
X196500Y250750D02*Y249250D01*
Y250750D02*X197250Y251500D01*
X198750D01*
X199500Y250750D01*
Y249250D01*
X198750Y248500D02*X199500Y249250D01*
X197250Y248500D02*X198750D01*
X196500Y249250D02*X197250Y248500D01*
X201300Y251500D02*Y249250D01*
X202050Y248500D01*
X203550D01*
X204300Y249250D01*
Y251500D02*Y249250D01*
X206850Y254500D02*Y249250D01*
X207600Y248500D01*
X206100Y252250D02*X207600D01*
X209100Y247000D02*X210600Y248500D01*
X215100Y253300D02*X216300Y254500D01*
Y248500D01*
X215100D02*X217350D01*
X219150Y249250D02*X219900Y248500D01*
X219150Y253750D02*Y249250D01*
Y253750D02*X219900Y254500D01*
X221400D01*
X222150Y253750D01*
Y249250D01*
X221400Y248500D02*X222150Y249250D01*
X219900Y248500D02*X221400D01*
X219150Y250000D02*X222150Y253000D01*
X223950Y254500D02*X226950D01*
X223950D02*Y251500D01*
X224700Y252250D01*
X226200D01*
X226950Y251500D01*
Y249250D01*
X226200Y248500D02*X226950Y249250D01*
X224700Y248500D02*X226200D01*
X223950Y249250D02*X224700Y248500D01*
X231450Y254500D02*Y248500D01*
Y250750D02*X232200Y251500D01*
X233700D01*
X234450Y250750D01*
Y248500D01*
X236250Y250750D02*Y249250D01*
Y250750D02*X237000Y251500D01*
X238500D01*
X239250Y250750D01*
Y249250D01*
X238500Y248500D02*X239250Y249250D01*
X237000Y248500D02*X238500D01*
X236250Y249250D02*X237000Y248500D01*
X241050Y254500D02*Y249250D01*
X241800Y248500D01*
X244050D02*X246300D01*
X243300Y249250D02*X244050Y248500D01*
X243300Y250750D02*Y249250D01*
Y250750D02*X244050Y251500D01*
X245550D01*
X246300Y250750D01*
X243300Y250000D02*X246300D01*
Y250750D02*Y250000D01*
X248850Y248500D02*X251100D01*
X251850Y249250D01*
X251100Y250000D02*X251850Y249250D01*
X248850Y250000D02*X251100D01*
X248100Y250750D02*X248850Y250000D01*
X248100Y250750D02*X248850Y251500D01*
X251100D01*
X251850Y250750D01*
X248100Y249250D02*X248850Y248500D01*
X257100Y254500D02*Y249250D01*
X257850Y248500D01*
X256350Y252250D02*X257850D01*
X259350Y250750D02*Y249250D01*
Y250750D02*X260100Y251500D01*
X261600D01*
X262350Y250750D01*
Y249250D01*
X261600Y248500D02*X262350Y249250D01*
X260100Y248500D02*X261600D01*
X259350Y249250D02*X260100Y248500D01*
X264900Y254500D02*Y249250D01*
X265650Y248500D01*
X264150Y252250D02*X265650D01*
X269400Y251500D02*X270150Y250750D01*
X267900Y251500D02*X269400D01*
X267150Y250750D02*X267900Y251500D01*
X267150Y250750D02*Y249250D01*
X267900Y248500D01*
X270150Y251500D02*Y249250D01*
X270900Y248500D01*
X267900D02*X269400D01*
X270150Y249250D01*
X272700Y254500D02*Y249250D01*
X273450Y248500D01*
G54D97*X0Y121000D02*X293000D01*
X0Y0D02*X293000D01*
Y121000D01*
X0D02*Y0D01*
G54D95*X60175Y-9500D02*X63175D01*
X63925Y-8750D01*
Y-6950D02*Y-8750D01*
X63175Y-6200D02*X63925Y-6950D01*
X60925Y-6200D02*X63175D01*
X60925Y-3500D02*Y-9500D01*
X60175Y-3500D02*X63175D01*
X63925Y-4250D01*
Y-5450D01*
X63175Y-6200D02*X63925Y-5450D01*
X65725Y-7250D02*Y-8750D01*
Y-7250D02*X66475Y-6500D01*
X67975D01*
X68725Y-7250D01*
Y-8750D01*
X67975Y-9500D02*X68725Y-8750D01*
X66475Y-9500D02*X67975D01*
X65725Y-8750D02*X66475Y-9500D01*
X72775Y-6500D02*X73525Y-7250D01*
X71275Y-6500D02*X72775D01*
X70525Y-7250D02*X71275Y-6500D01*
X70525Y-7250D02*Y-8750D01*
X71275Y-9500D01*
X73525Y-6500D02*Y-8750D01*
X74275Y-9500D01*
X71275D02*X72775D01*
X73525Y-8750D01*
X76825Y-7250D02*Y-9500D01*
Y-7250D02*X77575Y-6500D01*
X79075D01*
X76075D02*X76825Y-7250D01*
X83875Y-3500D02*Y-9500D01*
X83125D02*X83875Y-8750D01*
X81625Y-9500D02*X83125D01*
X80875Y-8750D02*X81625Y-9500D01*
X80875Y-7250D02*Y-8750D01*
Y-7250D02*X81625Y-6500D01*
X83125D01*
X83875Y-7250D01*
X88375D02*Y-8750D01*
Y-7250D02*X89125Y-6500D01*
X90625D01*
X91375Y-7250D01*
Y-8750D01*
X90625Y-9500D02*X91375Y-8750D01*
X89125Y-9500D02*X90625D01*
X88375Y-8750D02*X89125Y-9500D01*
X93175Y-6500D02*Y-8750D01*
X93925Y-9500D01*
X95425D01*
X96175Y-8750D01*
Y-6500D02*Y-8750D01*
X98725Y-3500D02*Y-8750D01*
X99475Y-9500D01*
X97975Y-5750D02*X99475D01*
X100975Y-3500D02*Y-8750D01*
X101725Y-9500D01*
G54D96*X103225Y-5000D02*Y-5150D01*
G54D95*Y-7250D02*Y-9500D01*
X105475Y-7250D02*Y-9500D01*
Y-7250D02*X106225Y-6500D01*
X106975D01*
X107725Y-7250D01*
Y-9500D01*
X104725Y-6500D02*X105475Y-7250D01*
X110275Y-9500D02*X112525D01*
X109525Y-8750D02*X110275Y-9500D01*
X109525Y-7250D02*Y-8750D01*
Y-7250D02*X110275Y-6500D01*
X111775D01*
X112525Y-7250D01*
X109525Y-8000D02*X112525D01*
Y-7250D02*Y-8000D01*
G54D96*X117025Y-5000D02*Y-5150D01*
G54D95*Y-7250D02*Y-9500D01*
X119275D02*X121525D01*
X122275Y-8750D01*
X121525Y-8000D02*X122275Y-8750D01*
X119275Y-8000D02*X121525D01*
X118525Y-7250D02*X119275Y-8000D01*
X118525Y-7250D02*X119275Y-6500D01*
X121525D01*
X122275Y-7250D01*
X118525Y-8750D02*X119275Y-9500D01*
X127525Y-3500D02*Y-8750D01*
X128275Y-9500D01*
X126775Y-5750D02*X128275D01*
X129775Y-3500D02*Y-9500D01*
Y-7250D02*X130525Y-6500D01*
X132025D01*
X132775Y-7250D01*
Y-9500D01*
X135325D02*X137575D01*
X134575Y-8750D02*X135325Y-9500D01*
X134575Y-7250D02*Y-8750D01*
Y-7250D02*X135325Y-6500D01*
X136825D01*
X137575Y-7250D01*
X134575Y-8000D02*X137575D01*
Y-7250D02*Y-8000D01*
X142825Y-6500D02*X145075D01*
X142075Y-7250D02*X142825Y-6500D01*
X142075Y-7250D02*Y-8750D01*
X142825Y-9500D01*
X145075D01*
X147625D02*X149875D01*
X146875Y-8750D02*X147625Y-9500D01*
X146875Y-7250D02*Y-8750D01*
Y-7250D02*X147625Y-6500D01*
X149125D01*
X149875Y-7250D01*
X146875Y-8000D02*X149875D01*
Y-7250D02*Y-8000D01*
X152425Y-7250D02*Y-9500D01*
Y-7250D02*X153175Y-6500D01*
X153925D01*
X154675Y-7250D01*
Y-9500D01*
X151675Y-6500D02*X152425Y-7250D01*
X157225Y-3500D02*Y-8750D01*
X157975Y-9500D01*
X156475Y-5750D02*X157975D01*
X160225Y-9500D02*X162475D01*
X159475Y-8750D02*X160225Y-9500D01*
X159475Y-7250D02*Y-8750D01*
Y-7250D02*X160225Y-6500D01*
X161725D01*
X162475Y-7250D01*
X159475Y-8000D02*X162475D01*
Y-7250D02*Y-8000D01*
X165025Y-7250D02*Y-9500D01*
Y-7250D02*X165775Y-6500D01*
X167275D01*
X164275D02*X165025Y-7250D01*
X169075Y-3500D02*Y-8750D01*
X169825Y-9500D01*
G54D96*X171325Y-5000D02*Y-5150D01*
G54D95*Y-7250D02*Y-9500D01*
X173575Y-7250D02*Y-9500D01*
Y-7250D02*X174325Y-6500D01*
X175075D01*
X175825Y-7250D01*
Y-9500D01*
X172825Y-6500D02*X173575Y-7250D01*
X178375Y-9500D02*X180625D01*
X177625Y-8750D02*X178375Y-9500D01*
X177625Y-7250D02*Y-8750D01*
Y-7250D02*X178375Y-6500D01*
X179875D01*
X180625Y-7250D01*
X177625Y-8000D02*X180625D01*
Y-7250D02*Y-8000D01*
X185125Y-7250D02*Y-8750D01*
Y-7250D02*X185875Y-6500D01*
X187375D01*
X188125Y-7250D01*
Y-8750D01*
X187375Y-9500D02*X188125Y-8750D01*
X185875Y-9500D02*X187375D01*
X185125Y-8750D02*X185875Y-9500D01*
X190675Y-4250D02*Y-9500D01*
Y-4250D02*X191425Y-3500D01*
X192175D01*
X189925Y-6500D02*X191425D01*
X197125Y-3500D02*Y-8750D01*
X197875Y-9500D01*
X196375Y-5750D02*X197875D01*
X199375Y-3500D02*Y-9500D01*
Y-7250D02*X200125Y-6500D01*
X201625D01*
X202375Y-7250D01*
Y-9500D01*
G54D96*X204175Y-5000D02*Y-5150D01*
G54D95*Y-7250D02*Y-9500D01*
X206425D02*X208675D01*
X209425Y-8750D01*
X208675Y-8000D02*X209425Y-8750D01*
X206425Y-8000D02*X208675D01*
X205675Y-7250D02*X206425Y-8000D01*
X205675Y-7250D02*X206425Y-6500D01*
X208675D01*
X209425Y-7250D01*
X205675Y-8750D02*X206425Y-9500D01*
X214675Y-7250D02*Y-11750D01*
X213925Y-6500D02*X214675Y-7250D01*
X215425Y-6500D01*
X216925D01*
X217675Y-7250D01*
Y-8750D01*
X216925Y-9500D02*X217675Y-8750D01*
X215425Y-9500D02*X216925D01*
X214675Y-8750D02*X215425Y-9500D01*
X221725Y-6500D02*X222475Y-7250D01*
X220225Y-6500D02*X221725D01*
X219475Y-7250D02*X220225Y-6500D01*
X219475Y-7250D02*Y-8750D01*
X220225Y-9500D01*
X222475Y-6500D02*Y-8750D01*
X223225Y-9500D01*
X220225D02*X221725D01*
X222475Y-8750D01*
X225775Y-3500D02*Y-8750D01*
X226525Y-9500D01*
X225025Y-5750D02*X226525D01*
X228025Y-3500D02*Y-9500D01*
Y-7250D02*X228775Y-6500D01*
X230275D01*
X231025Y-7250D01*
Y-9500D01*
X200750Y149500D02*Y143500D01*
X202700Y149500D02*X203750Y148450D01*
Y144550D01*
X202700Y143500D02*X203750Y144550D01*
X200000Y143500D02*X202700D01*
X200000Y149500D02*X202700D01*
X207800Y146500D02*X208550Y145750D01*
X206300Y146500D02*X207800D01*
X205550Y145750D02*X206300Y146500D01*
X205550Y145750D02*Y144250D01*
X206300Y143500D01*
X208550Y146500D02*Y144250D01*
X209300Y143500D01*
X206300D02*X207800D01*
X208550Y144250D01*
X211850Y149500D02*Y144250D01*
X212600Y143500D01*
X211100Y147250D02*X212600D01*
X214850Y143500D02*X217100D01*
X214100Y144250D02*X214850Y143500D01*
X214100Y145750D02*Y144250D01*
Y145750D02*X214850Y146500D01*
X216350D01*
X217100Y145750D01*
X214100Y145000D02*X217100D01*
Y145750D02*Y145000D01*
X218900Y147250D02*X219650D01*
X218900Y145750D02*X219650D01*
X224150Y149500D02*Y146500D01*
X224900Y143500D01*
X226400Y146500D01*
X227900Y143500D01*
X228650Y146500D01*
Y149500D02*Y146500D01*
X231200Y143500D02*X233450D01*
X230450Y144250D02*X231200Y143500D01*
X230450Y145750D02*Y144250D01*
Y145750D02*X231200Y146500D01*
X232700D01*
X233450Y145750D01*
X230450Y145000D02*X233450D01*
Y145750D02*Y145000D01*
X238250Y149500D02*Y143500D01*
X237500D02*X238250Y144250D01*
X236000Y143500D02*X237500D01*
X235250Y144250D02*X236000Y143500D01*
X235250Y145750D02*Y144250D01*
Y145750D02*X236000Y146500D01*
X237500D01*
X238250Y145750D01*
X242750Y144250D02*X243500Y143500D01*
X242750Y148750D02*Y144250D01*
Y148750D02*X243500Y149500D01*
X245000D01*
X245750Y148750D01*
Y144250D01*
X245000Y143500D02*X245750Y144250D01*
X243500Y143500D02*X245000D01*
X242750Y145000D02*X245750Y148000D01*
X248300Y143500D02*X251300Y149500D01*
X247550D02*X251300D01*
X255800Y148000D02*Y143500D01*
Y148000D02*X256850Y149500D01*
X258500D01*
X259550Y148000D01*
Y143500D01*
X255800Y146500D02*X259550D01*
X261350D02*Y144250D01*
X262100Y143500D01*
X263600D01*
X264350Y144250D01*
Y146500D02*Y144250D01*
X268400Y146500D02*X269150Y145750D01*
X266900Y146500D02*X268400D01*
X266150Y145750D02*X266900Y146500D01*
X266150Y145750D02*Y144250D01*
X266900Y143500D01*
X268400D01*
X269150Y144250D01*
X266150Y142000D02*X266900Y141250D01*
X268400D01*
X269150Y142000D01*
Y146500D02*Y142000D01*
X273650Y148750D02*X274400Y149500D01*
X276650D01*
X277400Y148750D01*
Y147250D01*
X273650Y143500D02*X277400Y147250D01*
X273650Y143500D02*X277400D01*
X279200Y144250D02*X279950Y143500D01*
X279200Y148750D02*Y144250D01*
Y148750D02*X279950Y149500D01*
X281450D01*
X282200Y148750D01*
Y144250D01*
X281450Y143500D02*X282200Y144250D01*
X279950Y143500D02*X281450D01*
X279200Y145000D02*X282200Y148000D01*
X284000Y148300D02*X285200Y149500D01*
Y143500D01*
X284000D02*X286250D01*
X288050Y148750D02*X288800Y149500D01*
X290300D01*
X291050Y148750D01*
X290300Y143500D02*X291050Y144250D01*
X288800Y143500D02*X290300D01*
X288050Y144250D02*X288800Y143500D01*
Y146800D02*X290300D01*
X291050Y148750D02*Y147550D01*
Y146050D02*Y144250D01*
Y146050D02*X290300Y146800D01*
X291050Y147550D02*X290300Y146800D01*
X295550Y144250D02*X296300Y143500D01*
X295550Y148750D02*Y144250D01*
Y148750D02*X296300Y149500D01*
X297800D01*
X298550Y148750D01*
Y144250D01*
X297800Y143500D02*X298550Y144250D01*
X296300Y143500D02*X297800D01*
X295550Y145000D02*X298550Y148000D01*
X300350Y145750D02*X303350Y149500D01*
X300350Y145750D02*X304100D01*
X303350Y149500D02*Y143500D01*
X305900Y147250D02*X306650D01*
X305900Y145750D02*X306650D01*
X308450Y148300D02*X309650Y149500D01*
Y143500D01*
X308450D02*X310700D01*
X312500Y145750D02*X315500Y149500D01*
X312500Y145750D02*X316250D01*
X315500Y149500D02*Y143500D01*
X318050Y147250D02*X318800D01*
X318050Y145750D02*X318800D01*
X320600Y148750D02*X321350Y149500D01*
X322850D01*
X323600Y148750D01*
X322850Y143500D02*X323600Y144250D01*
X321350Y143500D02*X322850D01*
X320600Y144250D02*X321350Y143500D01*
Y146800D02*X322850D01*
X323600Y148750D02*Y147550D01*
Y146050D02*Y144250D01*
Y146050D02*X322850Y146800D01*
X323600Y147550D02*X322850Y146800D01*
X327650Y149500D02*X328400Y148750D01*
X326150Y149500D02*X327650D01*
X325400Y148750D02*X326150Y149500D01*
X325400Y148750D02*Y144250D01*
X326150Y143500D01*
X327650Y146800D02*X328400Y146050D01*
X325400Y146800D02*X327650D01*
X326150Y143500D02*X327650D01*
X328400Y144250D01*
Y146050D02*Y144250D01*
X332900Y148000D02*Y143500D01*
Y148000D02*X333950Y149500D01*
X335600D01*
X336650Y148000D01*
Y143500D01*
X332900Y146500D02*X336650D01*
X338450Y149500D02*Y143500D01*
Y149500D02*X340700Y146500D01*
X342950Y149500D01*
Y143500D01*
X350450Y149500D02*X351200Y148750D01*
X348200Y149500D02*X350450D01*
X347450Y148750D02*X348200Y149500D01*
X347450Y148750D02*Y144250D01*
X348200Y143500D01*
X350450D01*
X351200Y144250D01*
Y145750D02*Y144250D01*
X350450Y146500D02*X351200Y145750D01*
X348950Y146500D02*X350450D01*
X353000Y149500D02*Y143500D01*
Y149500D02*X355250Y146500D01*
X357500Y149500D01*
Y143500D01*
X359300Y149500D02*X362300D01*
X360800D02*Y143500D01*
X366800Y149500D02*Y144250D01*
X367550Y143500D01*
X369050D01*
X369800Y144250D01*
Y149500D02*Y144250D01*
X371600Y149500D02*X374600D01*
X373100D02*Y143500D01*
X377450D02*X379400D01*
X376400Y144550D02*X377450Y143500D01*
X376400Y148450D02*Y144550D01*
Y148450D02*X377450Y149500D01*
X379400D01*
X200000Y163000D02*Y158500D01*
Y163000D02*X201050Y164500D01*
X202700D01*
X203750Y163000D01*
Y158500D01*
X200000Y161500D02*X203750D01*
X205550D02*Y159250D01*
X206300Y158500D01*
X207800D01*
X208550Y159250D01*
Y161500D02*Y159250D01*
X211100Y164500D02*Y159250D01*
X211850Y158500D01*
X210350Y162250D02*X211850D01*
X213350Y164500D02*Y158500D01*
Y160750D02*X214100Y161500D01*
X215600D01*
X216350Y160750D01*
Y158500D01*
X218150Y160750D02*Y159250D01*
Y160750D02*X218900Y161500D01*
X220400D01*
X221150Y160750D01*
Y159250D01*
X220400Y158500D02*X221150Y159250D01*
X218900Y158500D02*X220400D01*
X218150Y159250D02*X218900Y158500D01*
X223700Y160750D02*Y158500D01*
Y160750D02*X224450Y161500D01*
X225950D01*
X222950D02*X223700Y160750D01*
X227750Y162250D02*X228500D01*
X227750Y160750D02*X228500D01*
X233000Y164500D02*Y158500D01*
Y164500D02*X236750Y158500D01*
Y164500D02*Y158500D01*
X240800Y161500D02*X241550Y160750D01*
X239300Y161500D02*X240800D01*
X238550Y160750D02*X239300Y161500D01*
X238550Y160750D02*Y159250D01*
X239300Y158500D01*
X241550Y161500D02*Y159250D01*
X242300Y158500D01*
X239300D02*X240800D01*
X241550Y159250D01*
X244850Y164500D02*Y159250D01*
X245600Y158500D01*
X244100Y162250D02*X245600D01*
X247100Y164500D02*Y158500D01*
Y160750D02*X247850Y161500D01*
X249350D01*
X250100Y160750D01*
Y158500D01*
X254150Y161500D02*X254900Y160750D01*
X252650Y161500D02*X254150D01*
X251900Y160750D02*X252650Y161500D01*
X251900Y160750D02*Y159250D01*
X252650Y158500D01*
X254900Y161500D02*Y159250D01*
X255650Y158500D01*
X252650D02*X254150D01*
X254900Y159250D01*
X258200Y160750D02*Y158500D01*
Y160750D02*X258950Y161500D01*
X259700D01*
X260450Y160750D01*
Y158500D01*
X257450Y161500D02*X258200Y160750D01*
X264950Y164500D02*Y158500D01*
X268700Y164500D02*Y158500D01*
X264950Y161500D02*X268700D01*
X270500Y160750D02*Y159250D01*
Y160750D02*X271250Y161500D01*
X272750D01*
X273500Y160750D01*
Y159250D01*
X272750Y158500D02*X273500Y159250D01*
X271250Y158500D02*X272750D01*
X270500Y159250D02*X271250Y158500D01*
X275300Y164500D02*Y159250D01*
X276050Y158500D01*
X278300Y160750D02*Y158500D01*
Y160750D02*X279050Y161500D01*
X279800D01*
X280550Y160750D01*
Y158500D01*
Y160750D02*X281300Y161500D01*
X282050D01*
X282800Y160750D01*
Y158500D01*
X277550Y161500D02*X278300Y160750D01*
X285350Y158500D02*X287600D01*
X284600Y159250D02*X285350Y158500D01*
X284600Y160750D02*Y159250D01*
Y160750D02*X285350Y161500D01*
X286850D01*
X287600Y160750D01*
X284600Y160000D02*X287600D01*
Y160750D02*Y160000D01*
X290150Y158500D02*X292400D01*
X293150Y159250D01*
X292400Y160000D02*X293150Y159250D01*
X290150Y160000D02*X292400D01*
X289400Y160750D02*X290150Y160000D01*
X289400Y160750D02*X290150Y161500D01*
X292400D01*
X293150Y160750D01*
X289400Y159250D02*X290150Y158500D01*
X200000Y179500D02*X203000D01*
X201500D02*Y173500D01*
G54D96*X204800Y178000D02*Y177850D01*
G54D95*Y175750D02*Y173500D01*
X207050Y179500D02*Y174250D01*
X207800Y173500D01*
X206300Y177250D02*X207800D01*
X209300Y179500D02*Y174250D01*
X210050Y173500D01*
X212300D02*X214550D01*
X211550Y174250D02*X212300Y173500D01*
X211550Y175750D02*Y174250D01*
Y175750D02*X212300Y176500D01*
X213800D01*
X214550Y175750D01*
X211550Y175000D02*X214550D01*
Y175750D02*Y175000D01*
X216350Y177250D02*X217100D01*
X216350Y175750D02*X217100D01*
X221600Y174250D02*X222350Y173500D01*
X221600Y178750D02*X222350Y179500D01*
X221600Y178750D02*Y174250D01*
X224150Y176500D02*Y174250D01*
X224900Y173500D01*
X226400D01*
X227150Y174250D01*
Y176500D02*Y174250D01*
X229700Y175750D02*Y173500D01*
Y175750D02*X230450Y176500D01*
X231200D01*
X231950Y175750D01*
Y173500D01*
X228950Y176500D02*X229700Y175750D01*
X233750Y179500D02*Y173500D01*
Y175750D02*X236000Y173500D01*
X233750Y175750D02*X235250Y177250D01*
X238550Y175750D02*Y173500D01*
Y175750D02*X239300Y176500D01*
X240050D01*
X240800Y175750D01*
Y173500D01*
X237800Y176500D02*X238550Y175750D01*
X242600D02*Y174250D01*
Y175750D02*X243350Y176500D01*
X244850D01*
X245600Y175750D01*
Y174250D01*
X244850Y173500D02*X245600Y174250D01*
X243350Y173500D02*X244850D01*
X242600Y174250D02*X243350Y173500D01*
X247400Y176500D02*Y174250D01*
X248150Y173500D01*
X248900D01*
X249650Y174250D01*
Y176500D02*Y174250D01*
X250400Y173500D01*
X251150D01*
X251900Y174250D01*
Y176500D02*Y174250D01*
X254450Y175750D02*Y173500D01*
Y175750D02*X255200Y176500D01*
X255950D01*
X256700Y175750D01*
Y173500D01*
X253700Y176500D02*X254450Y175750D01*
X258500Y179500D02*X259250Y178750D01*
Y174250D01*
X258500Y173500D02*X259250Y174250D01*
X263750Y176500D02*X266750D01*
X271250Y179500D02*Y173500D01*
Y179500D02*X274250D01*
X271250Y176800D02*X273500D01*
X278300Y176500D02*X279050Y175750D01*
X276800Y176500D02*X278300D01*
X276050Y175750D02*X276800Y176500D01*
X276050Y175750D02*Y174250D01*
X276800Y173500D01*
X279050Y176500D02*Y174250D01*
X279800Y173500D01*
X276800D02*X278300D01*
X279050Y174250D01*
X281600Y179500D02*Y173500D01*
Y174250D02*X282350Y173500D01*
X283850D01*
X284600Y174250D01*
Y175750D02*Y174250D01*
X283850Y176500D02*X284600Y175750D01*
X282350Y176500D02*X283850D01*
X281600Y175750D02*X282350Y176500D01*
X287150Y175750D02*Y173500D01*
Y175750D02*X287900Y176500D01*
X289400D01*
X286400D02*X287150Y175750D01*
G54D96*X291200Y178000D02*Y177850D01*
G54D95*Y175750D02*Y173500D01*
X293450Y176500D02*X295700D01*
X292700Y175750D02*X293450Y176500D01*
X292700Y175750D02*Y174250D01*
X293450Y173500D01*
X295700D01*
X299750Y176500D02*X300500Y175750D01*
X298250Y176500D02*X299750D01*
X297500Y175750D02*X298250Y176500D01*
X297500Y175750D02*Y174250D01*
X298250Y173500D01*
X300500Y176500D02*Y174250D01*
X301250Y173500D01*
X298250D02*X299750D01*
X300500Y174250D01*
X303800Y179500D02*Y174250D01*
X304550Y173500D01*
X303050Y177250D02*X304550D01*
G54D96*X306050Y178000D02*Y177850D01*
G54D95*Y175750D02*Y173500D01*
X307550Y175750D02*Y174250D01*
Y175750D02*X308300Y176500D01*
X309800D01*
X310550Y175750D01*
Y174250D01*
X309800Y173500D02*X310550Y174250D01*
X308300Y173500D02*X309800D01*
X307550Y174250D02*X308300Y173500D01*
X313100Y175750D02*Y173500D01*
Y175750D02*X313850Y176500D01*
X314600D01*
X315350Y175750D01*
Y173500D01*
X312350Y176500D02*X313100Y175750D01*
X320600Y179500D02*Y173500D01*
X322550Y179500D02*X323600Y178450D01*
Y174550D01*
X322550Y173500D02*X323600Y174550D01*
X319850Y173500D02*X322550D01*
X319850Y179500D02*X322550D01*
X326150Y175750D02*Y173500D01*
Y175750D02*X326900Y176500D01*
X328400D01*
X325400D02*X326150Y175750D01*
X332450Y176500D02*X333200Y175750D01*
X330950Y176500D02*X332450D01*
X330200Y175750D02*X330950Y176500D01*
X330200Y175750D02*Y174250D01*
X330950Y173500D01*
X333200Y176500D02*Y174250D01*
X333950Y173500D01*
X330950D02*X332450D01*
X333200Y174250D01*
X335750Y176500D02*Y174250D01*
X336500Y173500D01*
X337250D01*
X338000Y174250D01*
Y176500D02*Y174250D01*
X338750Y173500D01*
X339500D01*
X340250Y174250D01*
Y176500D02*Y174250D01*
G54D96*X342050Y178000D02*Y177850D01*
G54D95*Y175750D02*Y173500D01*
X344300Y175750D02*Y173500D01*
Y175750D02*X345050Y176500D01*
X345800D01*
X346550Y175750D01*
Y173500D01*
X343550Y176500D02*X344300Y175750D01*
X350600Y176500D02*X351350Y175750D01*
X349100Y176500D02*X350600D01*
X348350Y175750D02*X349100Y176500D01*
X348350Y175750D02*Y174250D01*
X349100Y173500D01*
X350600D01*
X351350Y174250D01*
X348350Y172000D02*X349100Y171250D01*
X350600D01*
X351350Y172000D01*
Y176500D02*Y172000D01*
M02*
