G04 start of page 6 for group -4063 idx -4063 *
G04 Title: (unknown), componentmask *
G04 Creator: pcb 20110918 *
G04 CreationDate: Wed 07 Aug 2013 04:14:36 AM GMT UTC *
G04 For: ndholmes *
G04 Format: Gerber/RS-274X *
G04 PCB-Dimensions: 293000 121000 *
G04 PCB-Coordinate-Origin: lower left *
%MOIN*%
%FSLAX25Y25*%
%LNTOPMASK*%
%ADD77R,0.0300X0.0300*%
%ADD76R,0.0420X0.0420*%
%ADD75R,0.0690X0.0690*%
%ADD74R,0.0217X0.0217*%
%ADD73R,0.0550X0.0550*%
%ADD72R,0.0572X0.0572*%
%ADD71C,0.0760*%
%ADD70C,0.1500*%
%ADD69C,0.0900*%
%ADD68C,0.0660*%
%ADD67C,0.0860*%
%ADD66C,0.2997*%
%ADD65C,0.0001*%
G54D65*G36*
X108200Y17800D02*Y9200D01*
X116800D01*
Y17800D01*
X108200D01*
G37*
G54D66*X46500Y17000D03*
G54D67*X13500Y50500D03*
G54D65*G36*
X9200Y34800D02*Y26200D01*
X17800D01*
Y34800D01*
X9200D01*
G37*
G54D67*X13500Y10500D03*
G54D68*X50000Y51000D03*
G54D65*G36*
X68200Y17800D02*Y9200D01*
X76800D01*
Y17800D01*
X68200D01*
G37*
G54D67*X92500Y13500D03*
G54D68*X60000Y51000D03*
G54D67*X132500Y13500D03*
G54D65*G36*
X191700Y17800D02*Y9200D01*
X200300D01*
Y17800D01*
X191700D01*
G37*
G54D67*X216000Y13500D03*
G54D65*G36*
X151700Y17800D02*Y9200D01*
X160300D01*
Y17800D01*
X151700D01*
G37*
G54D67*X176000Y13500D03*
G54D66*X276000Y17000D03*
G54D65*G36*
X168200Y111800D02*Y103200D01*
X176800D01*
Y111800D01*
X168200D01*
G37*
G54D69*X202500Y57500D03*
X212500D03*
G54D65*G36*
X218000Y62000D02*Y53000D01*
X227000D01*
Y62000D01*
X218000D01*
G37*
G54D67*X268500Y110500D03*
G54D70*X281500Y103000D03*
G54D67*X268500Y50500D03*
Y70500D03*
G54D70*X281500Y58000D03*
G54D67*X268500Y90500D03*
G54D71*X256500Y83000D03*
X246500Y88000D03*
X256500Y93000D03*
X246500Y98000D03*
G54D66*X224000Y104000D03*
G54D71*X256500Y63000D03*
X246500Y68000D03*
X256500Y73000D03*
X246500Y78000D03*
G54D66*X46500Y104000D03*
G54D65*G36*
X9200Y114800D02*Y106200D01*
X17800D01*
Y114800D01*
X9200D01*
G37*
G54D67*X13500Y90500D03*
X152500Y107500D03*
G54D65*G36*
X128200Y111800D02*Y103200D01*
X136800D01*
Y111800D01*
X128200D01*
G37*
G54D67*X112500Y107500D03*
G54D65*G36*
X88200Y111800D02*Y103200D01*
X96800D01*
Y111800D01*
X88200D01*
G37*
G54D67*X72500Y107500D03*
G54D65*G36*
X146200Y50194D02*Y42594D01*
X153800D01*
Y50194D01*
X146200D01*
G37*
G54D71*X150000Y65606D03*
G54D65*G36*
X9200Y74800D02*Y66200D01*
X17800D01*
Y74800D01*
X9200D01*
G37*
G36*
X46700Y74300D02*Y67700D01*
X53300D01*
Y74300D01*
X46700D01*
G37*
G54D68*X50000Y61000D03*
X60000Y71000D03*
Y61000D03*
G54D72*X179607Y63586D02*X180393D01*
X179607Y56500D02*X180393D01*
X165107Y64086D02*X165893D01*
X165107Y57000D02*X165893D01*
X134107Y62543D02*X134893D01*
X134107Y55457D02*X134893D01*
G54D73*X178200Y38000D02*X181800D01*
X178200Y48000D02*X181800D01*
G54D72*X165107Y40457D02*X165893D01*
X165107Y47543D02*X165893D01*
X74457Y35893D02*Y35107D01*
X81543Y35893D02*Y35107D01*
X74107Y64043D02*X74893D01*
X74107Y56957D02*X74893D01*
X37107Y51500D02*X37893D01*
X37107Y44414D02*X37893D01*
X37107Y59914D02*X37893D01*
X37107Y67000D02*X37893D01*
X135607Y34457D02*X136393D01*
X135607Y41543D02*X136393D01*
X122607Y34457D02*X123393D01*
X122607Y41543D02*X123393D01*
G54D74*X120066Y48477D02*X124492D01*
X120066Y51626D02*X124492D01*
X120066Y54776D02*X124492D01*
X120066Y57925D02*X124492D01*
X120066Y61075D02*X124492D01*
X120066Y64225D02*X124492D01*
X120066Y67374D02*X124492D01*
X120066Y70524D02*X124492D01*
X114523Y80492D02*Y76066D01*
X111374Y80492D02*Y76066D01*
X108224Y80492D02*Y76066D01*
X105075Y80492D02*Y76066D01*
X101925Y80492D02*Y76066D01*
X98775Y80492D02*Y76066D01*
X95626Y80492D02*Y76066D01*
X92476Y80492D02*Y76066D01*
X82508Y70523D02*X86934D01*
X82508Y67374D02*X86934D01*
X82508Y64224D02*X86934D01*
X82508Y61075D02*X86934D01*
X82508Y57925D02*X86934D01*
X82508Y54775D02*X86934D01*
X82508Y51626D02*X86934D01*
X82508Y48476D02*X86934D01*
X92477Y42934D02*Y38508D01*
X95626Y42934D02*Y38508D01*
X98776Y42934D02*Y38508D01*
X101925Y42934D02*Y38508D01*
X105075Y42934D02*Y38508D01*
X108225Y42934D02*Y38508D01*
X111374Y42934D02*Y38508D01*
X114524Y42934D02*Y38508D01*
G54D75*X242000Y30492D02*Y24193D01*
G54D72*X229957Y85893D02*Y85107D01*
X237043Y85893D02*Y85107D01*
X240107Y45543D02*X240893D01*
X240107Y38457D02*X240893D01*
G54D75*X242000Y10807D02*Y4508D01*
G54D76*X251600Y35100D02*Y33900D01*
X264500Y35100D02*Y33900D01*
G54D77*X195500Y84500D02*X202000D01*
X195500Y79500D02*X202000D01*
X195500Y74500D02*X202000D01*
G54D72*X188095Y100181D02*Y97819D01*
X188043Y79893D02*Y79107D01*
G54D77*X195500Y69500D02*X202000D01*
X216000D02*X222500D01*
X216000Y74500D02*X222500D01*
X216000Y79500D02*X222500D01*
X216000Y84500D02*X222500D01*
G54D72*X199905Y100181D02*Y97819D01*
X201914Y91393D02*Y90607D01*
X209000Y91393D02*Y90607D01*
X171043Y83393D02*Y82607D01*
X180957Y79893D02*Y79107D01*
X163957Y83393D02*Y82607D01*
X199810Y110681D02*Y108319D01*
X188000Y110681D02*Y108319D01*
M02*
