G04 start of page 9 for group -4078 idx -4078 *
G04 Title: (unknown), bottomsilk *
G04 Creator: pcb 20110918 *
G04 CreationDate: Wed 07 Aug 2013 04:14:36 AM GMT UTC *
G04 For: ndholmes *
G04 Format: Gerber/RS-274X *
G04 PCB-Dimensions: 293000 121000 *
G04 PCB-Coordinate-Origin: lower left *
%MOIN*%
%FSLAX25Y25*%
%LNBOTTOMSILK*%
%ADD87C,0.0100*%
G54D87*X500Y120500D02*X292500D01*
X500Y500D02*Y120500D01*
X292500D02*Y500D01*
X500D01*
X171500Y4500D02*X173500D01*
X172500Y3500D02*Y5500D01*
X168300Y6500D02*X170300D01*
Y4500D02*Y6500D01*
Y4500D02*X169800Y5000D01*
X168800D02*X169800D01*
X168800D02*X168300Y4500D01*
Y3000D02*Y4500D01*
X168800Y2500D02*X168300Y3000D01*
X168800Y2500D02*X169800D01*
X170300Y3000D02*X169800Y2500D01*
X167100Y6500D02*X166100Y2500D01*
X165100Y6500D01*
X163400Y2500D02*Y6500D01*
X162100D02*X161400Y5800D01*
Y3200D02*Y5800D01*
X162100Y2500D02*X161400Y3200D01*
X162100Y2500D02*X163900D01*
X162100Y6500D02*X163900D01*
X158200Y2500D02*X159500D01*
X160200Y3200D02*X159500Y2500D01*
X160200Y3200D02*Y5800D01*
X159500Y6500D01*
X158200D02*X159500D01*
X215000D02*X214500Y6000D01*
X215000Y6500D02*X216500D01*
X217000Y6000D02*X216500Y6500D01*
X217000Y3000D02*Y6000D01*
Y3000D02*X216500Y2500D01*
X215000D02*X216500D01*
X215000D02*X214500Y3000D01*
Y4000D01*
X215000Y4500D02*X214500Y4000D01*
X215000Y4500D02*X216000D01*
X211300Y6500D02*X213300D01*
X211300D02*X210800Y6000D01*
Y5000D02*Y6000D01*
X211300Y4500D02*X210800Y5000D01*
X211300Y4500D02*X212800D01*
Y2500D02*Y6500D01*
X212000Y4500D02*X210800Y2500D01*
X209600Y3000D02*Y6000D01*
X209100Y6500D01*
X208100D02*X209100D01*
X208100D02*X207600Y6000D01*
Y3000D02*Y6000D01*
X208100Y2500D02*X207600Y3000D01*
X208100Y2500D02*X209100D01*
X209600Y3000D02*X209100Y2500D01*
X206400Y3000D02*Y6500D01*
Y3000D02*X205900Y2500D01*
X204900D02*X205900D01*
X204900D02*X204400Y3000D01*
Y6500D01*
X203200Y2500D02*Y6500D01*
X200700Y2500D01*
Y6500D01*
X199000Y2500D02*Y6500D01*
X197700D02*X197000Y5800D01*
Y3200D02*Y5800D01*
X197700Y2500D02*X197000Y3200D01*
X197700Y2500D02*X199500D01*
X197700Y6500D02*X199500D01*
X168500Y114500D02*X169500D01*
X169000D02*Y118500D01*
X168500D02*X169500D01*
X170700Y115000D02*Y118000D01*
Y115000D02*X171200Y114500D01*
X172200D01*
X172700Y115000D01*
Y118000D01*
X172200Y118500D02*X172700Y118000D01*
X171200Y118500D02*X172200D01*
X170700Y118000D02*X171200Y118500D01*
X173900Y118000D02*X174400Y118500D01*
X173900Y115000D02*Y118000D01*
Y115000D02*X174400Y114500D01*
X175400D01*
X175900Y115000D01*
Y118000D01*
X175400Y118500D02*X175900Y118000D01*
X174400Y118500D02*X175400D01*
X173900Y117500D02*X175900Y115500D01*
X172000Y32500D02*Y36500D01*
Y35000D02*X172500Y34500D01*
X173500D01*
X174000Y35000D01*
Y36500D01*
X175700Y32500D02*Y36000D01*
X176200Y36500D01*
X175200Y34000D02*X176200D01*
X177700Y32500D02*Y36000D01*
X178200Y36500D01*
X177200Y34000D02*X178200D01*
X179700Y35000D02*Y38000D01*
X179200Y34500D02*X179700Y35000D01*
X180200Y34500D01*
X181200D01*
X181700Y35000D01*
Y36000D01*
X181200Y36500D02*X181700Y36000D01*
X180200Y36500D02*X181200D01*
X179700Y36000D02*X180200Y36500D01*
X182900Y34000D02*X183400D01*
X182900Y35000D02*X183400D01*
X184600Y36000D02*X187600Y33000D01*
X188800Y36000D02*X191800Y33000D01*
X193000Y34500D02*Y36000D01*
X193500Y36500D01*
X194000D01*
X194500Y36000D01*
Y34500D02*Y36000D01*
X195000Y36500D01*
X195500D01*
X196000Y36000D01*
Y34500D02*Y36000D01*
X197200Y34500D02*Y36000D01*
X197700Y36500D01*
X198200D01*
X198700Y36000D01*
Y34500D02*Y36000D01*
X199200Y36500D01*
X199700D01*
X200200Y36000D01*
Y34500D02*Y36000D01*
X201400Y34500D02*Y36000D01*
X201900Y36500D01*
X202400D01*
X202900Y36000D01*
Y34500D02*Y36000D01*
X203400Y36500D01*
X203900D01*
X204400Y36000D01*
Y34500D02*Y36000D01*
X205600Y36500D02*X206100D01*
X207300Y33500D02*Y33600D01*
Y35000D02*Y36500D01*
X209800Y34500D02*X210300Y35000D01*
X208800Y34500D02*X209800D01*
X208300Y35000D02*X208800Y34500D01*
X208300Y35000D02*Y36000D01*
X208800Y36500D01*
X210300Y34500D02*Y36000D01*
X210800Y36500D01*
X208800D02*X209800D01*
X210300Y36000D01*
X212500Y36500D02*X214000D01*
X214500Y36000D01*
X214000Y35500D02*X214500Y36000D01*
X212500Y35500D02*X214000D01*
X212000Y35000D02*X212500Y35500D01*
X212000Y35000D02*X212500Y34500D01*
X214000D01*
X214500Y35000D01*
X212000Y36000D02*X212500Y36500D01*
X216200Y34500D02*X217700D01*
X215700Y35000D02*X216200Y34500D01*
X215700Y35000D02*Y36000D01*
X216200Y36500D01*
X217700D01*
X220400Y34500D02*X220900Y35000D01*
X219400Y34500D02*X220400D01*
X218900Y35000D02*X219400Y34500D01*
X218900Y35000D02*Y36000D01*
X219400Y36500D01*
X220900Y34500D02*Y36000D01*
X221400Y36500D01*
X219400D02*X220400D01*
X220900Y36000D01*
X222600Y32500D02*Y36000D01*
X223100Y36500D01*
X224600D02*X226100D01*
X224100Y36000D02*X224600Y36500D01*
X224100Y35000D02*Y36000D01*
Y35000D02*X224600Y34500D01*
X225600D01*
X226100Y35000D01*
X224100Y35500D02*X226100D01*
Y35000D02*Y35500D01*
X229300Y32500D02*Y36500D01*
X228800D02*X229300Y36000D01*
X227800Y36500D02*X228800D01*
X227300Y36000D02*X227800Y36500D01*
X227300Y35000D02*Y36000D01*
Y35000D02*X227800Y34500D01*
X228800D01*
X229300Y35000D01*
X230500Y36500D02*X231000D01*
X232700Y34500D02*X234200D01*
X232200Y35000D02*X232700Y34500D01*
X232200Y35000D02*Y36000D01*
X232700Y36500D01*
X234200D01*
X235400Y35000D02*Y36000D01*
Y35000D02*X235900Y34500D01*
X236900D01*
X237400Y35000D01*
Y36000D01*
X236900Y36500D02*X237400Y36000D01*
X235900Y36500D02*X236900D01*
X235400Y36000D02*X235900Y36500D01*
X239100Y35000D02*Y36500D01*
Y35000D02*X239600Y34500D01*
X240100D01*
X240600Y35000D01*
Y36500D01*
Y35000D02*X241100Y34500D01*
X241600D01*
X242100Y35000D01*
Y36500D01*
X238600Y34500D02*X239100Y35000D01*
X172000Y26000D02*X173000D01*
X172500D02*Y30000D01*
X172000D02*X173000D01*
X174200Y28500D02*Y29500D01*
Y28500D02*X174700Y28000D01*
X175700D01*
X176200Y28500D01*
Y29500D01*
X175700Y30000D02*X176200Y29500D01*
X174700Y30000D02*X175700D01*
X174200Y29500D02*X174700Y30000D01*
X177400Y28000D02*Y29500D01*
X177900Y30000D01*
X178400D01*
X178900Y29500D01*
Y28000D02*Y29500D01*
X179400Y30000D01*
X179900D01*
X180400Y29500D01*
Y28000D02*Y29500D01*
X183100Y28000D02*X183600Y28500D01*
X182100Y28000D02*X183100D01*
X181600Y28500D02*X182100Y28000D01*
X181600Y28500D02*Y29500D01*
X182100Y30000D01*
X183600Y28000D02*Y29500D01*
X184100Y30000D01*
X182100D02*X183100D01*
X183600Y29500D01*
X189100Y26000D02*X189600Y26500D01*
X187600Y26000D02*X189100D01*
X187100Y26500D02*X187600Y26000D01*
X187100Y26500D02*Y27500D01*
X187600Y28000D01*
X189100D01*
X189600Y28500D01*
Y29500D01*
X189100Y30000D02*X189600Y29500D01*
X187600Y30000D02*X189100D01*
X187100Y29500D02*X187600Y30000D01*
X191300Y28000D02*X192800D01*
X190800Y28500D02*X191300Y28000D01*
X190800Y28500D02*Y29500D01*
X191300Y30000D01*
X192800D01*
X195500Y28000D02*X196000Y28500D01*
X194500Y28000D02*X195500D01*
X194000Y28500D02*X194500Y28000D01*
X194000Y28500D02*Y29500D01*
X194500Y30000D01*
X196000Y28000D02*Y29500D01*
X196500Y30000D01*
X194500D02*X195500D01*
X196000Y29500D01*
X197700Y26000D02*Y29500D01*
X198200Y30000D01*
X199700D02*X201200D01*
X199200Y29500D02*X199700Y30000D01*
X199200Y28500D02*Y29500D01*
Y28500D02*X199700Y28000D01*
X200700D01*
X201200Y28500D01*
X199200Y29000D02*X201200D01*
Y28500D02*Y29000D01*
X204400Y26000D02*Y30000D01*
X203900D02*X204400Y29500D01*
X202900Y30000D02*X203900D01*
X202400Y29500D02*X202900Y30000D01*
X202400Y28500D02*Y29500D01*
Y28500D02*X202900Y28000D01*
X203900D01*
X204400Y28500D01*
X207400Y27800D02*X208900D01*
X207400Y30000D02*X209400D01*
X207400Y26000D02*Y30000D01*
Y26000D02*X209400D01*
X211100Y28500D02*Y30000D01*
Y28500D02*X211600Y28000D01*
X212100D01*
X212600Y28500D01*
Y30000D01*
X210600Y28000D02*X211100Y28500D01*
X215300Y28000D02*X215800Y28500D01*
X214300Y28000D02*X215300D01*
X213800Y28500D02*X214300Y28000D01*
X213800Y28500D02*Y29500D01*
X214300Y30000D01*
X215300D01*
X215800Y29500D01*
X213800Y31000D02*X214300Y31500D01*
X215300D01*
X215800Y31000D01*
Y28000D02*Y31000D01*
X217000Y27000D02*Y27100D01*
Y28500D02*Y30000D01*
X218500Y28500D02*Y30000D01*
Y28500D02*X219000Y28000D01*
X219500D01*
X220000Y28500D01*
Y30000D01*
X218000Y28000D02*X218500Y28500D01*
X221700Y30000D02*X223200D01*
X221200Y29500D02*X221700Y30000D01*
X221200Y28500D02*Y29500D01*
Y28500D02*X221700Y28000D01*
X222700D01*
X223200Y28500D01*
X221200Y29000D02*X223200D01*
Y28500D02*Y29000D01*
X224900Y30000D02*X226400D01*
X224400Y29500D02*X224900Y30000D01*
X224400Y28500D02*Y29500D01*
Y28500D02*X224900Y28000D01*
X225900D01*
X226400Y28500D01*
X224400Y29000D02*X226400D01*
Y28500D02*Y29000D01*
X228100Y28500D02*Y30000D01*
Y28500D02*X228600Y28000D01*
X229600D01*
X227600D02*X228100Y28500D01*
X230800Y27000D02*Y27100D01*
Y28500D02*Y30000D01*
X232300Y28500D02*Y30000D01*
Y28500D02*X232800Y28000D01*
X233300D01*
X233800Y28500D01*
Y30000D01*
X231800Y28000D02*X232300Y28500D01*
X236500Y28000D02*X237000Y28500D01*
X235500Y28000D02*X236500D01*
X235000Y28500D02*X235500Y28000D01*
X235000Y28500D02*Y29500D01*
X235500Y30000D01*
X236500D01*
X237000Y29500D01*
X235000Y31000D02*X235500Y31500D01*
X236500D01*
X237000Y31000D01*
Y28000D02*Y31000D01*
X172000Y39500D02*Y43500D01*
Y39500D02*X173500Y41500D01*
X175000Y39500D01*
Y43500D01*
X176200Y39500D02*X178200D01*
X178700Y40000D01*
Y41000D01*
X178200Y41500D02*X178700Y41000D01*
X176700Y41500D02*X178200D01*
X176700Y39500D02*Y43500D01*
X177500Y41500D02*X178700Y43500D01*
X179900D02*X181900D01*
X182400Y43000D01*
Y41800D02*Y43000D01*
X181900Y41300D02*X182400Y41800D01*
X180400Y41300D02*X181900D01*
X180400Y39500D02*Y43500D01*
X179900Y39500D02*X181900D01*
X182400Y40000D01*
Y40800D01*
X181900Y41300D02*X182400Y40800D01*
X183600Y41500D02*X185600D01*
X188800Y39500D02*X189300Y40000D01*
X187300Y39500D02*X188800D01*
X186800Y40000D02*X187300Y39500D01*
X186800Y40000D02*Y43000D01*
X187300Y43500D01*
X188800D01*
X189300Y43000D01*
Y42000D02*Y43000D01*
X188800Y41500D02*X189300Y42000D01*
X187800Y41500D02*X188800D01*
X190500Y39500D02*X191500D01*
X191000D02*Y43500D01*
X190500D02*X191500D01*
X192700Y40000D02*Y43000D01*
Y40000D02*X193200Y39500D01*
X194200D01*
X194700Y40000D01*
Y43000D01*
X194200Y43500D02*X194700Y43000D01*
X193200Y43500D02*X194200D01*
X192700Y43000D02*X193200Y43500D01*
X197700Y41500D02*X198700Y43500D01*
X199700Y41500D02*X198700Y43500D01*
X200900Y40300D02*X201700Y39500D01*
Y43500D01*
X200900D02*X202400D01*
X203600D02*X204100D01*
X205300Y40300D02*X206100Y39500D01*
Y43500D01*
X205300D02*X206800D01*
X209800Y41500D02*X211800D01*
X215500Y43500D02*X216800D01*
X214800Y42800D02*X215500Y43500D01*
X214800Y40200D02*Y42800D01*
Y40200D02*X215500Y39500D01*
X216800D01*
X218700Y43500D02*X220000D01*
X218000Y42800D02*X218700Y43500D01*
X218000Y40200D02*Y42800D01*
Y40200D02*X218700Y39500D01*
X220000D01*
X223000Y43500D02*X225000D01*
X225500Y43000D01*
Y41800D02*Y43000D01*
X225000Y41300D02*X225500Y41800D01*
X223500Y41300D02*X225000D01*
X223500Y39500D02*Y43500D01*
X223000Y39500D02*X225000D01*
X225500Y40000D01*
Y40800D01*
X225000Y41300D02*X225500Y40800D01*
X226700Y39500D02*X227700Y41500D01*
X228700Y39500D01*
X227700Y41500D02*Y43500D01*
X229900Y41500D02*X231900D01*
X235100Y39500D02*X235600Y40000D01*
X233600Y39500D02*X235100D01*
X233100Y40000D02*X233600Y39500D01*
X233100Y40000D02*Y41000D01*
X233600Y41500D01*
X235100D01*
X235600Y42000D01*
Y43000D01*
X235100Y43500D02*X235600Y43000D01*
X233600Y43500D02*X235100D01*
X233100Y43000D02*X233600Y43500D01*
X236800Y40500D02*Y43500D01*
Y40500D02*X237500Y39500D01*
X238600D01*
X239300Y40500D01*
Y43500D01*
X236800Y41500D02*X239300D01*
X242300Y43000D02*X242800Y43500D01*
X242300Y40000D02*X242800Y39500D01*
X242300Y40000D02*Y43000D01*
X244500Y41500D02*X246000D01*
X244000Y42000D02*X244500Y41500D01*
X244000Y42000D02*Y43000D01*
X244500Y43500D01*
X246000D01*
X247200Y39500D02*X247700Y40000D01*
Y43000D01*
X247200Y43500D02*X247700Y43000D01*
X250700Y40000D02*X251200Y39500D01*
X252700D01*
X253200Y40000D01*
Y41000D01*
X250700Y43500D02*X253200Y41000D01*
X250700Y43500D02*X253200D01*
X254400Y43000D02*X254900Y43500D01*
X254400Y40000D02*Y43000D01*
Y40000D02*X254900Y39500D01*
X255900D01*
X256400Y40000D01*
Y43000D01*
X255900Y43500D02*X256400Y43000D01*
X254900Y43500D02*X255900D01*
X254400Y42500D02*X256400Y40500D01*
X257600Y40300D02*X258400Y39500D01*
Y43500D01*
X257600D02*X259100D01*
X260300Y40000D02*X260800Y39500D01*
X261800D01*
X262300Y40000D01*
X261800Y43500D02*X262300Y43000D01*
X260800Y43500D02*X261800D01*
X260300Y43000D02*X260800Y43500D01*
Y41300D02*X261800D01*
X262300Y40000D02*Y40800D01*
Y41800D02*Y43000D01*
Y41800D02*X261800Y41300D01*
X262300Y40800D02*X261800Y41300D01*
X116500Y6500D02*X117500D01*
X117000Y2500D02*Y6500D01*
X116500Y2500D02*X117500D01*
X115300Y3000D02*Y6000D01*
X114800Y6500D01*
X113800D02*X114800D01*
X113800D02*X113300Y6000D01*
Y3000D02*Y6000D01*
X113800Y2500D02*X113300Y3000D01*
X113800Y2500D02*X114800D01*
X115300Y3000D02*X114800Y2500D01*
X112100Y5700D02*X111300Y6500D01*
Y2500D02*Y6500D01*
X110600Y2500D02*X112100D01*
X109400Y4000D02*X107400Y6500D01*
X106900Y4000D02*X109400D01*
X107400Y2500D02*Y6500D01*
X136500D02*X137500D01*
X137000Y2500D02*Y6500D01*
X136500Y2500D02*X137500D01*
X135300Y3000D02*Y6000D01*
X134800Y6500D01*
X133800D02*X134800D01*
X133800D02*X133300Y6000D01*
Y3000D02*Y6000D01*
X133800Y2500D02*X133300Y3000D01*
X133800Y2500D02*X134800D01*
X135300Y3000D02*X134800Y2500D01*
X132100Y5700D02*X131300Y6500D01*
Y2500D02*Y6500D01*
X130600Y2500D02*X132100D01*
X127400Y6500D02*X129400D01*
Y4500D02*Y6500D01*
Y4500D02*X128900Y5000D01*
X127900D02*X128900D01*
X127900D02*X127400Y4500D01*
Y3000D02*Y4500D01*
X127900Y2500D02*X127400Y3000D01*
X127900Y2500D02*X128900D01*
X129400Y3000D02*X128900Y2500D01*
X96500Y6500D02*X97500D01*
X97000Y2500D02*Y6500D01*
X96500Y2500D02*X97500D01*
X95300Y3000D02*Y6000D01*
X94800Y6500D01*
X93800D02*X94800D01*
X93800D02*X93300Y6000D01*
Y3000D02*Y6000D01*
X93800Y2500D02*X93300Y3000D01*
X93800Y2500D02*X94800D01*
X95300Y3000D02*X94800Y2500D01*
X92100Y5700D02*X91300Y6500D01*
Y2500D02*Y6500D01*
X90600Y2500D02*X92100D01*
X89400Y6000D02*X88900Y6500D01*
X87900D02*X88900D01*
X87900D02*X87400Y6000D01*
X87900Y2500D02*X87400Y3000D01*
X87900Y2500D02*X88900D01*
X89400Y3000D02*X88900Y2500D01*
X87900Y4700D02*X88900D01*
X87400Y5200D02*Y6000D01*
Y3000D02*Y4200D01*
X87900Y4700D01*
X87400Y5200D02*X87900Y4700D01*
X76500Y6500D02*X77500D01*
X77000Y2500D02*Y6500D01*
X76500Y2500D02*X77500D01*
X75300Y3000D02*Y6000D01*
X74800Y6500D01*
X73800D02*X74800D01*
X73800D02*X73300Y6000D01*
Y3000D02*Y6000D01*
X73800Y2500D02*X73300Y3000D01*
X73800Y2500D02*X74800D01*
X75300Y3000D02*X74800Y2500D01*
X72100Y5700D02*X71300Y6500D01*
Y2500D02*Y6500D01*
X70600Y2500D02*X72100D01*
X69400Y6000D02*X68900Y6500D01*
X67400D02*X68900D01*
X67400D02*X66900Y6000D01*
Y5000D02*Y6000D01*
X69400Y2500D02*X66900Y5000D01*
Y2500D02*X69400D01*
X6500Y5000D02*Y6000D01*
X2500Y5500D02*X6500D01*
X2500Y5000D02*Y6000D01*
X3000Y7200D02*X6000D01*
X6500Y7700D01*
Y8700D01*
X6000Y9200D01*
X3000D02*X6000D01*
X2500Y8700D02*X3000Y9200D01*
X2500Y7700D02*Y8700D01*
X3000Y7200D02*X2500Y7700D01*
X5700Y10400D02*X6500Y11200D01*
X2500D02*X6500D01*
X2500Y10400D02*Y11900D01*
X5700Y13100D02*X6500Y13900D01*
X2500D02*X6500D01*
X2500Y13100D02*Y14600D01*
X149500Y114500D02*X150500D01*
X150000D02*Y118500D01*
X149500D02*X150500D01*
X151700Y115000D02*Y118000D01*
Y115000D02*X152200Y114500D01*
X153200D01*
X153700Y115000D01*
Y118000D01*
X153200Y118500D02*X153700Y118000D01*
X152200Y118500D02*X153200D01*
X151700Y118000D02*X152200Y118500D01*
X154900Y115300D02*X155700Y114500D01*
Y118500D01*
X154900D02*X156400D01*
X128000Y114500D02*X129000D01*
X128500D02*Y118500D01*
X128000D02*X129000D01*
X130200Y115000D02*Y118000D01*
Y115000D02*X130700Y114500D01*
X131700D01*
X132200Y115000D01*
Y118000D01*
X131700Y118500D02*X132200Y118000D01*
X130700Y118500D02*X131700D01*
X130200Y118000D02*X130700Y118500D01*
X133400Y115000D02*X133900Y114500D01*
X135400D01*
X135900Y115000D01*
Y116000D01*
X133400Y118500D02*X135900Y116000D01*
X133400Y118500D02*X135900D01*
X109000Y114500D02*X110000D01*
X109500D02*Y118500D01*
X109000D02*X110000D01*
X111200Y115000D02*Y118000D01*
Y115000D02*X111700Y114500D01*
X112700D01*
X113200Y115000D01*
Y118000D01*
X112700Y118500D02*X113200Y118000D01*
X111700Y118500D02*X112700D01*
X111200Y118000D02*X111700Y118500D01*
X114400Y115000D02*X114900Y114500D01*
X115900D01*
X116400Y115000D01*
X115900Y118500D02*X116400Y118000D01*
X114900Y118500D02*X115900D01*
X114400Y118000D02*X114900Y118500D01*
Y116300D02*X115900D01*
X116400Y115000D02*Y115800D01*
Y116800D02*Y118000D01*
Y116800D02*X115900Y116300D01*
X116400Y115800D02*X115900Y116300D01*
X89000Y114500D02*X90000D01*
X89500D02*Y118500D01*
X89000D02*X90000D01*
X91200Y115000D02*Y118000D01*
Y115000D02*X91700Y114500D01*
X92700D01*
X93200Y115000D01*
Y118000D01*
X92700Y118500D02*X93200Y118000D01*
X91700Y118500D02*X92700D01*
X91200Y118000D02*X91700Y118500D01*
X94400Y117000D02*X96400Y114500D01*
X94400Y117000D02*X96900D01*
X96400Y114500D02*Y118500D01*
X69000Y114500D02*X70000D01*
X69500D02*Y118500D01*
X69000D02*X70000D01*
X71200Y115000D02*Y118000D01*
Y115000D02*X71700Y114500D01*
X72700D01*
X73200Y115000D01*
Y118000D01*
X72700Y118500D02*X73200Y118000D01*
X71700Y118500D02*X72700D01*
X71200Y118000D02*X71700Y118500D01*
X74400Y114500D02*X76400D01*
X74400D02*Y116500D01*
X74900Y116000D01*
X75900D01*
X76400Y116500D01*
Y118000D01*
X75900Y118500D02*X76400Y118000D01*
X74900Y118500D02*X75900D01*
X74400Y118000D02*X74900Y118500D01*
X6500Y106500D02*Y107500D01*
X2500Y107000D02*X6500D01*
X2500Y106500D02*Y107500D01*
X3000Y108700D02*X6000D01*
X6500Y109200D01*
Y110200D01*
X6000Y110700D01*
X3000D02*X6000D01*
X2500Y110200D02*X3000Y110700D01*
X2500Y109200D02*Y110200D01*
X3000Y108700D02*X2500Y109200D01*
X6500Y113400D02*X6000Y113900D01*
X6500Y112400D02*Y113400D01*
X6000Y111900D02*X6500Y112400D01*
X3000Y111900D02*X6000D01*
X3000D02*X2500Y112400D01*
X4700Y113400D02*X4200Y113900D01*
X4700Y111900D02*Y113400D01*
X2500Y112400D02*Y113400D01*
X3000Y113900D01*
X4200D01*
X6500Y66500D02*Y67500D01*
X2500Y67000D02*X6500D01*
X2500Y66500D02*Y67500D01*
X3000Y68700D02*X6000D01*
X6500Y69200D01*
Y70200D01*
X6000Y70700D01*
X3000D02*X6000D01*
X2500Y70200D02*X3000Y70700D01*
X2500Y69200D02*Y70200D01*
X3000Y68700D02*X2500Y69200D01*
X3000Y71900D02*X2500Y72400D01*
X3000Y71900D02*X3800D01*
X4500Y72600D01*
Y73200D01*
X3800Y73900D01*
X3000D02*X3800D01*
X2500Y73400D02*X3000Y73900D01*
X2500Y72400D02*Y73400D01*
X5200Y71900D02*X4500Y72600D01*
X5200Y71900D02*X6000D01*
X6500Y72400D01*
Y73400D01*
X6000Y73900D01*
X5200D02*X6000D01*
X4500Y73200D02*X5200Y73900D01*
X6500Y46500D02*Y47500D01*
X2500Y47000D02*X6500D01*
X2500Y46500D02*Y47500D01*
X3000Y48700D02*X6000D01*
X6500Y49200D01*
Y50200D01*
X6000Y50700D01*
X3000D02*X6000D01*
X2500Y50200D02*X3000Y50700D01*
X2500Y49200D02*Y50200D01*
X3000Y48700D02*X2500Y49200D01*
Y52400D02*X4500Y53900D01*
X6000D01*
X6500Y53400D02*X6000Y53900D01*
X6500Y52400D02*Y53400D01*
X6000Y51900D02*X6500Y52400D01*
X5000Y51900D02*X6000D01*
X5000D02*X4500Y52400D01*
Y53900D01*
X6500Y86500D02*Y87500D01*
X2500Y87000D02*X6500D01*
X2500Y86500D02*Y87500D01*
X3000Y88700D02*X6000D01*
X6500Y89200D01*
Y90200D01*
X6000Y90700D01*
X3000D02*X6000D01*
X2500Y90200D02*X3000Y90700D01*
X2500Y89200D02*Y90200D01*
X3000Y88700D02*X2500Y89200D01*
Y92400D02*X6500Y94400D01*
Y91900D02*Y94400D01*
Y25000D02*Y26000D01*
X2500Y25500D02*X6500D01*
X2500Y25000D02*Y26000D01*
X3000Y27200D02*X6000D01*
X6500Y27700D01*
Y28700D01*
X6000Y29200D01*
X3000D02*X6000D01*
X2500Y28700D02*X3000Y29200D01*
X2500Y27700D02*Y28700D01*
X3000Y27200D02*X2500Y27700D01*
X5700Y30400D02*X6500Y31200D01*
X2500D02*X6500D01*
X2500Y30400D02*Y31900D01*
X3000Y33100D02*X2500Y33600D01*
X3000Y33100D02*X6000D01*
X6500Y33600D01*
Y34600D01*
X6000Y35100D01*
X3000D02*X6000D01*
X2500Y34600D02*X3000Y35100D01*
X2500Y33600D02*Y34600D01*
X3500Y33100D02*X5500Y35100D01*
M02*
