M48
INCH
T64C0.020
T63C0.030
T62C0.128
T61C0.045
T60C0.038
T59C0.129
T58C0.048
%
T64
X015000Y004639
X015000Y006561
X020650Y007950
X015800Y008300
X020700Y011100
X017150Y005650
X014900Y005550
X015350Y005550
X015800Y005550
X013200Y005000
X013700Y005000
X017150Y005200
X017150Y004750
X017350Y006600
X017400Y002250
X017850Y002250
X013450Y004650
X013500Y002450
X012750Y007550
X023600Y001150
X023600Y000700
X023150Y001150
X023150Y000700
X025250Y001150
X025250Y000700
X024800Y001150
X024800Y000700
X015150Y002250
X015600Y002250
X016050Y002250
X016500Y002250
X016950Y002250
X011500Y002450
X012000Y002450
X012500Y002450
X013000Y002450
X008550Y007850
X008550Y008300
X008550Y008750
X008550Y009200
X004150Y007400
X006800Y003550
X011000Y002450
X008850Y003800
X011150Y003500
X010700Y003300
X012050Y008150
X011750Y008550
X011850Y007700
X010900Y008600
X010350Y004900
X010150Y005800
X011350Y008850
X011350Y006600
X011350Y006150
X011350Y005700
X004350Y004450
X004900Y004450
T63
X025650Y008300
X024650Y008800
X025650Y009300
X024650Y009800
X025650Y006300
X024650Y006800
X025650Y007300
X024650Y007800
T60
X005000Y005100
X006000Y005100
X005000Y007100
X005000Y006100
X006000Y007100
X006000Y006100
T61
X020250Y005750
X021250Y005750
X022250Y005750
T58
X011250Y001350
X001350Y005050
X001350Y003050
X001350Y001050
X007250Y001350
X009250Y001350
X013250Y001350
X019600Y001350
X021600Y001350
X015600Y001350
X017600Y001350
X017250Y010750
X026850Y011050
X026850Y005050
X026850Y007050
X026850Y009050
X001350Y011050
X001350Y009050
X015250Y010750
X013250Y010750
X011250Y010750
X009250Y010750
X007250Y010750
X001350Y007050
T62
X028150Y010300
X028150Y005800
T59
X004650Y001700
X027600Y001700
X022400Y010400
X004650Y010400
M30
