G04 start of page 9 for group -4015 idx -4015 *
G04 Title: (unknown), toppaste *
G04 Creator: pcb 20110918 *
G04 CreationDate: Thu 04 Apr 2013 04:22:17 AM GMT UTC *
G04 For: railfan *
G04 Format: Gerber/RS-274X *
G04 PCB-Dimensions: 293000 121000 *
G04 PCB-Coordinate-Origin: lower left *
%MOIN*%
%FSLAX25Y25*%
%LNTOPPASTE*%
%ADD92R,0.0157X0.0157*%
%ADD91R,0.0490X0.0490*%
%ADD90R,0.0200X0.0200*%
%ADD89R,0.0360X0.0360*%
%ADD88R,0.0630X0.0630*%
%ADD87R,0.0512X0.0512*%
G54D87*X74457Y35893D02*Y35107D01*
X81543Y35893D02*Y35107D01*
X179607Y63586D02*X180393D01*
X179607Y56500D02*X180393D01*
X74107Y64043D02*X74893D01*
X74107Y56957D02*X74893D01*
X165107Y64086D02*X165893D01*
X165107Y57000D02*X165893D01*
G54D88*X242000Y30492D02*Y24193D01*
Y10807D02*Y4508D01*
G54D89*X251600Y35100D02*Y33900D01*
X264500Y35100D02*Y33900D01*
G54D87*X229957Y85893D02*Y85107D01*
X237043Y85893D02*Y85107D01*
G54D90*X195500Y84500D02*X202000D01*
X195500Y79500D02*X202000D01*
X195500Y74500D02*X202000D01*
X195500Y69500D02*X202000D01*
X216000D02*X222500D01*
X216000Y74500D02*X222500D01*
X216000Y79500D02*X222500D01*
X216000Y84500D02*X222500D01*
G54D87*X188095Y100181D02*Y97819D01*
X199905Y100181D02*Y97819D01*
X201914Y91393D02*Y90607D01*
X209000Y91393D02*Y90607D01*
X171043Y83393D02*Y82607D01*
X163957Y83393D02*Y82607D01*
X240107Y45543D02*X240893D01*
X240107Y38457D02*X240893D01*
G54D91*X178200Y38000D02*X181800D01*
X178200Y48000D02*X181800D01*
G54D87*X199810Y110681D02*Y108319D01*
X188000Y110681D02*Y108319D01*
X165107Y40457D02*X165893D01*
X165107Y47543D02*X165893D01*
X134107Y62543D02*X134893D01*
X134107Y55457D02*X134893D01*
X188043Y79893D02*Y79107D01*
X180957Y79893D02*Y79107D01*
G54D92*X120066Y48477D02*X124492D01*
X120066Y51626D02*X124492D01*
X120066Y54776D02*X124492D01*
X120066Y57925D02*X124492D01*
X120066Y61075D02*X124492D01*
X120066Y64225D02*X124492D01*
X120066Y67374D02*X124492D01*
X120066Y70524D02*X124492D01*
X114523Y80492D02*Y76066D01*
X111374Y80492D02*Y76066D01*
X108224Y80492D02*Y76066D01*
X105075Y80492D02*Y76066D01*
X101925Y80492D02*Y76066D01*
X98775Y80492D02*Y76066D01*
X95626Y80492D02*Y76066D01*
X92476Y80492D02*Y76066D01*
X82508Y70523D02*X86934D01*
X82508Y67374D02*X86934D01*
X82508Y64224D02*X86934D01*
X82508Y61075D02*X86934D01*
X82508Y57925D02*X86934D01*
X82508Y54775D02*X86934D01*
X82508Y51626D02*X86934D01*
X82508Y48476D02*X86934D01*
X92477Y42934D02*Y38508D01*
X95626Y42934D02*Y38508D01*
X98776Y42934D02*Y38508D01*
X101925Y42934D02*Y38508D01*
X105075Y42934D02*Y38508D01*
X108225Y42934D02*Y38508D01*
X111374Y42934D02*Y38508D01*
X114524Y42934D02*Y38508D01*
G54D87*X37107Y51500D02*X37893D01*
X37107Y44414D02*X37893D01*
X37107Y59914D02*X37893D01*
X37107Y67000D02*X37893D01*
X135607Y34457D02*X136393D01*
X135607Y41543D02*X136393D01*
X122607D02*X123393D01*
X122607Y34457D02*X123393D01*
M02*
