G04 start of page 6 for group -4062 idx -4062 *
G04 Title: (unknown), soldermask *
G04 Creator: pcb 20110918 *
G04 CreationDate: Thu 04 Apr 2013 04:22:17 AM GMT UTC *
G04 For: railfan *
G04 Format: Gerber/RS-274X *
G04 PCB-Dimensions: 293000 121000 *
G04 PCB-Coordinate-Origin: lower left *
%MOIN*%
%FSLAX25Y25*%
%LNBOTTOMMASK*%
%ADD83C,0.0760*%
%ADD82C,0.1500*%
%ADD81C,0.0900*%
%ADD80C,0.0660*%
%ADD79C,0.0860*%
%ADD78C,0.2997*%
%ADD77C,0.0001*%
G54D77*G36*
X108200Y17800D02*Y9200D01*
X116800D01*
Y17800D01*
X108200D01*
G37*
G54D78*X46500Y17000D03*
G54D79*X13500Y50500D03*
G54D77*G36*
X9200Y34800D02*Y26200D01*
X17800D01*
Y34800D01*
X9200D01*
G37*
G54D79*X13500Y10500D03*
G54D80*X50000Y51000D03*
G54D77*G36*
X68200Y17800D02*Y9200D01*
X76800D01*
Y17800D01*
X68200D01*
G37*
G54D79*X92500Y13500D03*
G54D80*X60000Y51000D03*
G54D79*X132500Y13500D03*
G54D77*G36*
X191700Y17800D02*Y9200D01*
X200300D01*
Y17800D01*
X191700D01*
G37*
G54D79*X216000Y13500D03*
G54D77*G36*
X151700Y17800D02*Y9200D01*
X160300D01*
Y17800D01*
X151700D01*
G37*
G54D79*X176000Y13500D03*
G54D78*X276000Y17000D03*
G54D77*G36*
X168200Y111800D02*Y103200D01*
X176800D01*
Y111800D01*
X168200D01*
G37*
G54D81*X202500Y57500D03*
X212500D03*
G54D77*G36*
X218000Y62000D02*Y53000D01*
X227000D01*
Y62000D01*
X218000D01*
G37*
G54D79*X268500Y110500D03*
G54D82*X281500Y103000D03*
G54D79*X268500Y50500D03*
Y70500D03*
G54D82*X281500Y58000D03*
G54D79*X268500Y90500D03*
G54D83*X256500Y83000D03*
X246500Y88000D03*
X256500Y93000D03*
X246500Y98000D03*
G54D78*X224000Y104000D03*
G54D83*X256500Y63000D03*
X246500Y68000D03*
X256500Y73000D03*
X246500Y78000D03*
G54D78*X46500Y104000D03*
G54D77*G36*
X9200Y114800D02*Y106200D01*
X17800D01*
Y114800D01*
X9200D01*
G37*
G54D79*X13500Y90500D03*
X152500Y107500D03*
G54D77*G36*
X128200Y111800D02*Y103200D01*
X136800D01*
Y111800D01*
X128200D01*
G37*
G54D79*X112500Y107500D03*
G54D77*G36*
X88200Y111800D02*Y103200D01*
X96800D01*
Y111800D01*
X88200D01*
G37*
G54D79*X72500Y107500D03*
G54D77*G36*
X146200Y50194D02*Y42594D01*
X153800D01*
Y50194D01*
X146200D01*
G37*
G54D83*X150000Y65606D03*
G54D77*G36*
X9200Y74800D02*Y66200D01*
X17800D01*
Y74800D01*
X9200D01*
G37*
G36*
X46700Y74300D02*Y67700D01*
X53300D01*
Y74300D01*
X46700D01*
G37*
G54D80*X50000Y61000D03*
X60000Y71000D03*
Y61000D03*
M02*
