G04 start of page 3 for group 1 idx 1 *
G04 Title: (unknown), solder *
G04 Creator: pcb 20110918 *
G04 CreationDate: Thu 04 Apr 2013 04:22:17 AM GMT UTC *
G04 For: railfan *
G04 Format: Gerber/RS-274X *
G04 PCB-Dimensions: 293000 121000 *
G04 PCB-Coordinate-Origin: lower left *
%MOIN*%
%FSLAX25Y25*%
%LNBOTTOM*%
%ADD56C,0.0300*%
%ADD55C,0.1280*%
%ADD54C,0.0450*%
%ADD53C,0.0380*%
%ADD52C,0.1285*%
%ADD51C,0.0480*%
%ADD50C,0.0200*%
%ADD49C,0.0360*%
%ADD48C,0.0700*%
%ADD47C,0.1440*%
%ADD46C,0.0787*%
%ADD45C,0.0600*%
%ADD44C,0.0800*%
%ADD43C,0.2937*%
%ADD42C,0.0250*%
%ADD41C,0.0500*%
%ADD40C,0.0400*%
%ADD39C,0.0150*%
%ADD38C,0.0100*%
%ADD37C,0.0001*%
G54D37*G36*
X154500Y79000D02*Y67808D01*
X154469Y67883D01*
X154058Y68554D01*
X153546Y69152D01*
X152948Y69664D01*
X152277Y70075D01*
X151550Y70376D01*
X150785Y70560D01*
X150000Y70621D01*
X149215Y70560D01*
X148450Y70376D01*
X147723Y70075D01*
X147052Y69664D01*
X146454Y69152D01*
X145942Y68554D01*
X145531Y67883D01*
X145230Y67156D01*
X145046Y66391D01*
X144985Y65606D01*
X145046Y64821D01*
X145230Y64056D01*
X145531Y63329D01*
X145942Y62658D01*
X146454Y62060D01*
X147052Y61548D01*
X147723Y61137D01*
X148450Y60836D01*
X149215Y60652D01*
X150000Y60591D01*
X150785Y60652D01*
X151550Y60836D01*
X152277Y61137D01*
X152948Y61548D01*
X153546Y62060D01*
X154058Y62658D01*
X154469Y63329D01*
X154500Y63404D01*
Y51013D01*
X154384Y51111D01*
X154183Y51235D01*
X153965Y51325D01*
X153735Y51380D01*
X153500Y51394D01*
X146265Y51380D01*
X146035Y51325D01*
X145817Y51235D01*
X145616Y51111D01*
X145436Y50958D01*
X145283Y50778D01*
X145159Y50577D01*
X145069Y50359D01*
X145014Y50129D01*
X145000Y49894D01*
X145014Y42659D01*
X145069Y42429D01*
X145159Y42211D01*
X145283Y42010D01*
X145436Y41830D01*
X145616Y41677D01*
X145817Y41553D01*
X146035Y41463D01*
X146265Y41408D01*
X146500Y41394D01*
X153735Y41408D01*
X153965Y41463D01*
X154183Y41553D01*
X154384Y41677D01*
X154500Y41775D01*
Y29500D01*
X128500D01*
Y79000D01*
X154500D01*
G37*
G36*
X180493Y27000D02*X183000D01*
Y3500D01*
X180493D01*
Y10645D01*
X180578Y10681D01*
X180679Y10743D01*
X180769Y10819D01*
X180845Y10909D01*
X180905Y11011D01*
X181122Y11480D01*
X181289Y11969D01*
X181409Y12472D01*
X181482Y12984D01*
X181506Y13500D01*
X181482Y14016D01*
X181409Y14528D01*
X181289Y15031D01*
X181122Y15520D01*
X180910Y15992D01*
X180849Y16093D01*
X180772Y16184D01*
X180682Y16261D01*
X180580Y16323D01*
X180493Y16360D01*
Y27000D01*
G37*
G36*
X176002D02*X180493D01*
Y16360D01*
X180471Y16369D01*
X180355Y16397D01*
X180237Y16406D01*
X180119Y16397D01*
X180003Y16370D01*
X179893Y16324D01*
X179792Y16262D01*
X179702Y16186D01*
X179624Y16095D01*
X179562Y15994D01*
X179516Y15885D01*
X179489Y15769D01*
X179479Y15651D01*
X179488Y15532D01*
X179516Y15417D01*
X179563Y15308D01*
X179721Y14968D01*
X179842Y14612D01*
X179930Y14247D01*
X179982Y13875D01*
X180000Y13500D01*
X179982Y13125D01*
X179930Y12753D01*
X179842Y12388D01*
X179721Y12032D01*
X179567Y11690D01*
X179520Y11582D01*
X179493Y11467D01*
X179483Y11349D01*
X179493Y11232D01*
X179521Y11117D01*
X179566Y11008D01*
X179628Y10907D01*
X179705Y10818D01*
X179795Y10741D01*
X179895Y10680D01*
X180004Y10635D01*
X180119Y10607D01*
X180237Y10598D01*
X180355Y10608D01*
X180469Y10635D01*
X180493Y10645D01*
Y3500D01*
X176002D01*
Y7994D01*
X176516Y8018D01*
X177028Y8091D01*
X177531Y8211D01*
X178020Y8378D01*
X178492Y8590D01*
X178593Y8651D01*
X178684Y8728D01*
X178761Y8818D01*
X178823Y8920D01*
X178869Y9029D01*
X178897Y9145D01*
X178906Y9263D01*
X178897Y9381D01*
X178870Y9497D01*
X178824Y9607D01*
X178762Y9708D01*
X178686Y9798D01*
X178595Y9876D01*
X178494Y9938D01*
X178385Y9984D01*
X178269Y10011D01*
X178151Y10021D01*
X178032Y10012D01*
X177917Y9984D01*
X177808Y9937D01*
X177468Y9779D01*
X177112Y9658D01*
X176747Y9570D01*
X176375Y9518D01*
X176002Y9500D01*
Y17500D01*
X176375Y17482D01*
X176747Y17430D01*
X177112Y17342D01*
X177468Y17221D01*
X177810Y17067D01*
X177918Y17020D01*
X178033Y16993D01*
X178151Y16983D01*
X178268Y16993D01*
X178383Y17021D01*
X178492Y17066D01*
X178593Y17128D01*
X178682Y17205D01*
X178759Y17295D01*
X178820Y17395D01*
X178865Y17504D01*
X178893Y17619D01*
X178902Y17737D01*
X178892Y17855D01*
X178865Y17969D01*
X178819Y18078D01*
X178757Y18179D01*
X178681Y18269D01*
X178591Y18345D01*
X178489Y18405D01*
X178020Y18622D01*
X177531Y18789D01*
X177028Y18909D01*
X176516Y18982D01*
X176002Y19006D01*
Y27000D01*
G37*
G36*
X171507D02*X176002D01*
Y19006D01*
X176000Y19006D01*
X175484Y18982D01*
X174972Y18909D01*
X174469Y18789D01*
X173980Y18622D01*
X173508Y18410D01*
X173407Y18349D01*
X173316Y18272D01*
X173239Y18182D01*
X173177Y18080D01*
X173131Y17971D01*
X173103Y17855D01*
X173094Y17737D01*
X173103Y17619D01*
X173130Y17503D01*
X173176Y17393D01*
X173238Y17292D01*
X173314Y17202D01*
X173405Y17124D01*
X173506Y17062D01*
X173615Y17016D01*
X173731Y16989D01*
X173849Y16979D01*
X173968Y16988D01*
X174083Y17016D01*
X174192Y17063D01*
X174532Y17221D01*
X174888Y17342D01*
X175253Y17430D01*
X175625Y17482D01*
X176000Y17500D01*
X176002Y17500D01*
Y9500D01*
X176000Y9500D01*
X175625Y9518D01*
X175253Y9570D01*
X174888Y9658D01*
X174532Y9779D01*
X174190Y9933D01*
X174082Y9980D01*
X173967Y10007D01*
X173849Y10017D01*
X173732Y10007D01*
X173617Y9979D01*
X173508Y9934D01*
X173407Y9872D01*
X173318Y9795D01*
X173241Y9705D01*
X173180Y9605D01*
X173135Y9496D01*
X173107Y9381D01*
X173098Y9263D01*
X173108Y9145D01*
X173135Y9031D01*
X173181Y8922D01*
X173243Y8821D01*
X173319Y8731D01*
X173409Y8655D01*
X173511Y8595D01*
X173980Y8378D01*
X174469Y8211D01*
X174972Y8091D01*
X175484Y8018D01*
X176000Y7994D01*
X176002Y7994D01*
Y3500D01*
X171507D01*
Y10640D01*
X171529Y10631D01*
X171645Y10603D01*
X171763Y10594D01*
X171881Y10603D01*
X171997Y10630D01*
X172107Y10676D01*
X172208Y10738D01*
X172298Y10814D01*
X172376Y10905D01*
X172438Y11006D01*
X172484Y11115D01*
X172511Y11231D01*
X172521Y11349D01*
X172512Y11468D01*
X172484Y11583D01*
X172437Y11692D01*
X172279Y12032D01*
X172158Y12388D01*
X172070Y12753D01*
X172018Y13125D01*
X172000Y13500D01*
X172018Y13875D01*
X172070Y14247D01*
X172158Y14612D01*
X172279Y14968D01*
X172433Y15310D01*
X172480Y15418D01*
X172507Y15533D01*
X172517Y15651D01*
X172507Y15768D01*
X172479Y15883D01*
X172434Y15992D01*
X172372Y16093D01*
X172295Y16182D01*
X172205Y16259D01*
X172105Y16320D01*
X171996Y16365D01*
X171881Y16393D01*
X171763Y16402D01*
X171645Y16392D01*
X171531Y16365D01*
X171507Y16355D01*
Y27000D01*
G37*
G36*
X160750D02*X171507D01*
Y16355D01*
X171422Y16319D01*
X171321Y16257D01*
X171231Y16181D01*
X171155Y16091D01*
X171095Y15989D01*
X170878Y15520D01*
X170711Y15031D01*
X170591Y14528D01*
X170518Y14016D01*
X170494Y13500D01*
X170518Y12984D01*
X170591Y12472D01*
X170711Y11969D01*
X170878Y11480D01*
X171090Y11008D01*
X171151Y10907D01*
X171228Y10816D01*
X171318Y10739D01*
X171420Y10677D01*
X171507Y10640D01*
Y3500D01*
X160750D01*
Y10248D01*
X160868Y10257D01*
X160982Y10285D01*
X161092Y10330D01*
X161192Y10391D01*
X161282Y10468D01*
X161359Y10558D01*
X161420Y10658D01*
X161465Y10768D01*
X161493Y10882D01*
X161500Y11000D01*
Y16000D01*
X161493Y16118D01*
X161465Y16232D01*
X161420Y16342D01*
X161359Y16442D01*
X161282Y16532D01*
X161192Y16609D01*
X161092Y16670D01*
X160982Y16715D01*
X160868Y16743D01*
X160750Y16752D01*
Y27000D01*
G37*
G36*
X156000D02*X160750D01*
Y16752D01*
X160632Y16743D01*
X160518Y16715D01*
X160408Y16670D01*
X160308Y16609D01*
X160218Y16532D01*
X160141Y16442D01*
X160080Y16342D01*
X160035Y16232D01*
X160007Y16118D01*
X160000Y16000D01*
Y11000D01*
X160007Y10882D01*
X160035Y10768D01*
X160080Y10658D01*
X160141Y10558D01*
X160218Y10468D01*
X160308Y10391D01*
X160408Y10330D01*
X160518Y10285D01*
X160632Y10257D01*
X160750Y10248D01*
Y3500D01*
X156000D01*
Y8000D01*
X158500D01*
X158618Y8007D01*
X158732Y8035D01*
X158842Y8080D01*
X158942Y8141D01*
X159032Y8218D01*
X159109Y8308D01*
X159170Y8408D01*
X159215Y8518D01*
X159243Y8632D01*
X159252Y8750D01*
X159243Y8868D01*
X159215Y8982D01*
X159170Y9092D01*
X159109Y9192D01*
X159032Y9282D01*
X158942Y9359D01*
X158842Y9420D01*
X158732Y9465D01*
X158618Y9493D01*
X158500Y9500D01*
X156000D01*
Y17500D01*
X158500D01*
X158618Y17507D01*
X158732Y17535D01*
X158842Y17580D01*
X158942Y17641D01*
X159032Y17718D01*
X159109Y17808D01*
X159170Y17908D01*
X159215Y18018D01*
X159243Y18132D01*
X159252Y18250D01*
X159243Y18368D01*
X159215Y18482D01*
X159170Y18592D01*
X159109Y18692D01*
X159032Y18782D01*
X158942Y18859D01*
X158842Y18920D01*
X158732Y18965D01*
X158618Y18993D01*
X158500Y19000D01*
X156000D01*
Y27000D01*
G37*
G36*
X151250D02*X156000D01*
Y19000D01*
X153500D01*
X153382Y18993D01*
X153268Y18965D01*
X153158Y18920D01*
X153058Y18859D01*
X152968Y18782D01*
X152891Y18692D01*
X152830Y18592D01*
X152785Y18482D01*
X152757Y18368D01*
X152748Y18250D01*
X152757Y18132D01*
X152785Y18018D01*
X152830Y17908D01*
X152891Y17808D01*
X152968Y17718D01*
X153058Y17641D01*
X153158Y17580D01*
X153268Y17535D01*
X153382Y17507D01*
X153500Y17500D01*
X156000D01*
Y9500D01*
X153500D01*
X153382Y9493D01*
X153268Y9465D01*
X153158Y9420D01*
X153058Y9359D01*
X152968Y9282D01*
X152891Y9192D01*
X152830Y9092D01*
X152785Y8982D01*
X152757Y8868D01*
X152748Y8750D01*
X152757Y8632D01*
X152785Y8518D01*
X152830Y8408D01*
X152891Y8308D01*
X152968Y8218D01*
X153058Y8141D01*
X153158Y8080D01*
X153268Y8035D01*
X153382Y8007D01*
X153500Y8000D01*
X156000D01*
Y3500D01*
X151250D01*
Y10248D01*
X151368Y10257D01*
X151482Y10285D01*
X151592Y10330D01*
X151692Y10391D01*
X151782Y10468D01*
X151859Y10558D01*
X151920Y10658D01*
X151965Y10768D01*
X151993Y10882D01*
X152000Y11000D01*
Y16000D01*
X151993Y16118D01*
X151965Y16232D01*
X151920Y16342D01*
X151859Y16442D01*
X151782Y16532D01*
X151692Y16609D01*
X151592Y16670D01*
X151482Y16715D01*
X151368Y16743D01*
X151250Y16752D01*
Y27000D01*
G37*
G36*
X132492D02*X151250D01*
Y16752D01*
X151132Y16743D01*
X151018Y16715D01*
X150908Y16670D01*
X150808Y16609D01*
X150718Y16532D01*
X150641Y16442D01*
X150580Y16342D01*
X150535Y16232D01*
X150507Y16118D01*
X150500Y16000D01*
Y11000D01*
X150507Y10882D01*
X150535Y10768D01*
X150580Y10658D01*
X150641Y10558D01*
X150718Y10468D01*
X150808Y10391D01*
X150908Y10330D01*
X151018Y10285D01*
X151132Y10257D01*
X151250Y10248D01*
Y3500D01*
X132492D01*
Y7984D01*
X132500Y7983D01*
X133363Y8051D01*
X134205Y8253D01*
X135005Y8584D01*
X135743Y9037D01*
X136401Y9599D01*
X136963Y10257D01*
X137416Y10995D01*
X137747Y11795D01*
X137949Y12637D01*
X138000Y13500D01*
X137949Y14363D01*
X137747Y15205D01*
X137416Y16005D01*
X136963Y16743D01*
X136401Y17401D01*
X135743Y17963D01*
X135005Y18416D01*
X134205Y18747D01*
X133363Y18949D01*
X132500Y19017D01*
X132492Y19016D01*
Y27000D01*
G37*
G36*
X109500D02*X132492D01*
Y19016D01*
X131637Y18949D01*
X130795Y18747D01*
X129995Y18416D01*
X129257Y17963D01*
X128599Y17401D01*
X128037Y16743D01*
X127584Y16005D01*
X127253Y15205D01*
X127051Y14363D01*
X126983Y13500D01*
X127051Y12637D01*
X127253Y11795D01*
X127584Y10995D01*
X128037Y10257D01*
X128599Y9599D01*
X129257Y9037D01*
X129995Y8584D01*
X130795Y8253D01*
X131637Y8051D01*
X132492Y7984D01*
Y3500D01*
X109500D01*
Y8002D01*
X116735Y8014D01*
X116965Y8069D01*
X117183Y8159D01*
X117384Y8283D01*
X117564Y8436D01*
X117717Y8616D01*
X117841Y8817D01*
X117931Y9035D01*
X117986Y9265D01*
X118000Y9500D01*
X117986Y17735D01*
X117931Y17965D01*
X117841Y18183D01*
X117717Y18384D01*
X117564Y18564D01*
X117384Y18717D01*
X117183Y18841D01*
X116965Y18931D01*
X116735Y18986D01*
X116500Y19000D01*
X109500Y18988D01*
Y27000D01*
G37*
G36*
X129000Y3500D02*X112500D01*
Y8007D01*
X116735Y8014D01*
X116965Y8069D01*
X117183Y8159D01*
X117384Y8283D01*
X117564Y8436D01*
X117717Y8616D01*
X117841Y8817D01*
X117931Y9035D01*
X117986Y9265D01*
X118000Y9500D01*
X117986Y17735D01*
X117931Y17965D01*
X117841Y18183D01*
X117717Y18384D01*
X117564Y18564D01*
X117384Y18717D01*
X117183Y18841D01*
X116965Y18931D01*
X116735Y18986D01*
X116500Y19000D01*
X112500Y18993D01*
Y27000D01*
X129000D01*
Y17744D01*
X128599Y17401D01*
X128037Y16743D01*
X127584Y16005D01*
X127253Y15205D01*
X127051Y14363D01*
X126983Y13500D01*
X127051Y12637D01*
X127253Y11795D01*
X127584Y10995D01*
X128037Y10257D01*
X128599Y9599D01*
X129000Y9256D01*
Y3500D01*
G37*
G36*
X112500D02*X102500D01*
Y27000D01*
X112500D01*
Y18993D01*
X108265Y18986D01*
X108035Y18931D01*
X107817Y18841D01*
X107616Y18717D01*
X107436Y18564D01*
X107283Y18384D01*
X107159Y18183D01*
X107069Y17965D01*
X107014Y17735D01*
X107000Y17500D01*
X107014Y9265D01*
X107069Y9035D01*
X107159Y8817D01*
X107283Y8616D01*
X107436Y8436D01*
X107616Y8283D01*
X107817Y8159D01*
X108035Y8069D01*
X108265Y8014D01*
X108500Y8000D01*
X112500Y8007D01*
Y3500D01*
G37*
G36*
X111000Y68500D02*X126500D01*
Y9500D01*
X118000D01*
X117986Y17735D01*
X117931Y17965D01*
X117841Y18183D01*
X117717Y18384D01*
X117564Y18564D01*
X117384Y18717D01*
X117183Y18841D01*
X116965Y18931D01*
X116735Y18986D01*
X116500Y19000D01*
X111000Y18991D01*
Y59221D01*
X111003Y59225D01*
X111171Y59632D01*
X111274Y60061D01*
X111300Y60500D01*
X111274Y60939D01*
X111171Y61368D01*
X111003Y61775D01*
X111000Y61779D01*
Y68500D01*
G37*
G36*
X172500Y119500D02*X211500D01*
Y113514D01*
X211272Y113247D01*
X209982Y111142D01*
X209038Y108862D01*
X208461Y106461D01*
X208268Y104000D01*
X208461Y101539D01*
X209038Y99138D01*
X209982Y96858D01*
X211272Y94753D01*
X211500Y94486D01*
Y74000D01*
X175750D01*
Y80412D01*
X175757Y80500D01*
X175729Y80853D01*
X175646Y81197D01*
X175607Y81293D01*
X175511Y81525D01*
X175396Y81712D01*
X175326Y81827D01*
X175326Y81827D01*
X175096Y82096D01*
X175029Y82153D01*
X172653Y84529D01*
X172596Y84596D01*
X172500Y84678D01*
Y102007D01*
X176735Y102014D01*
X176965Y102069D01*
X177183Y102159D01*
X177384Y102283D01*
X177564Y102436D01*
X177717Y102616D01*
X177841Y102817D01*
X177931Y103035D01*
X177986Y103265D01*
X178000Y103500D01*
X177986Y111735D01*
X177931Y111965D01*
X177841Y112183D01*
X177717Y112384D01*
X177564Y112564D01*
X177384Y112717D01*
X177183Y112841D01*
X176965Y112931D01*
X176735Y112986D01*
X176500Y113000D01*
X172500Y112993D01*
Y119500D01*
G37*
G36*
X152492D02*X172500D01*
Y112993D01*
X168265Y112986D01*
X168035Y112931D01*
X167817Y112841D01*
X167616Y112717D01*
X167436Y112564D01*
X167283Y112384D01*
X167159Y112183D01*
X167069Y111965D01*
X167014Y111735D01*
X167000Y111500D01*
X167014Y103265D01*
X167069Y103035D01*
X167159Y102817D01*
X167283Y102616D01*
X167436Y102436D01*
X167616Y102283D01*
X167817Y102159D01*
X168035Y102069D01*
X168265Y102014D01*
X168500Y102000D01*
X172500Y102007D01*
Y84678D01*
X172327Y84826D01*
X172327Y84826D01*
X172212Y84896D01*
X172025Y85011D01*
X171793Y85107D01*
X171697Y85146D01*
X171353Y85229D01*
X171000Y85257D01*
X170912Y85250D01*
X159677D01*
X159651Y85272D01*
X159275Y85503D01*
X158868Y85671D01*
X158439Y85774D01*
X158000Y85809D01*
X157561Y85774D01*
X157132Y85671D01*
X156725Y85503D01*
X156349Y85272D01*
X156014Y84986D01*
X155728Y84651D01*
X155497Y84275D01*
X155329Y83868D01*
X155226Y83439D01*
X155191Y83000D01*
X155226Y82561D01*
X155329Y82132D01*
X155497Y81725D01*
X155728Y81349D01*
X156014Y81014D01*
X156349Y80728D01*
X156725Y80497D01*
X157132Y80329D01*
X157561Y80226D01*
X158000Y80191D01*
X158439Y80226D01*
X158868Y80329D01*
X159275Y80497D01*
X159651Y80728D01*
X159677Y80750D01*
X170068D01*
X171250Y79568D01*
Y74000D01*
X152492D01*
Y101984D01*
X152500Y101983D01*
X153363Y102051D01*
X154205Y102253D01*
X155005Y102584D01*
X155743Y103037D01*
X156401Y103599D01*
X156963Y104257D01*
X157416Y104995D01*
X157747Y105795D01*
X157949Y106637D01*
X158000Y107500D01*
X157949Y108363D01*
X157747Y109205D01*
X157416Y110005D01*
X156963Y110743D01*
X156401Y111401D01*
X155743Y111963D01*
X155005Y112416D01*
X154205Y112747D01*
X153363Y112949D01*
X152500Y113017D01*
X152492Y113016D01*
Y119500D01*
G37*
G36*
X132500D02*X152492D01*
Y113016D01*
X151637Y112949D01*
X150795Y112747D01*
X149995Y112416D01*
X149257Y111963D01*
X148599Y111401D01*
X148037Y110743D01*
X147584Y110005D01*
X147253Y109205D01*
X147051Y108363D01*
X146983Y107500D01*
X147051Y106637D01*
X147253Y105795D01*
X147584Y104995D01*
X148037Y104257D01*
X148599Y103599D01*
X149257Y103037D01*
X149995Y102584D01*
X150795Y102253D01*
X151637Y102051D01*
X152492Y101984D01*
Y74000D01*
X132500D01*
Y102007D01*
X136735Y102014D01*
X136965Y102069D01*
X137183Y102159D01*
X137384Y102283D01*
X137564Y102436D01*
X137717Y102616D01*
X137841Y102817D01*
X137931Y103035D01*
X137986Y103265D01*
X138000Y103500D01*
X137986Y111735D01*
X137931Y111965D01*
X137841Y112183D01*
X137717Y112384D01*
X137564Y112564D01*
X137384Y112717D01*
X137183Y112841D01*
X136965Y112931D01*
X136735Y112986D01*
X136500Y113000D01*
X132500Y112993D01*
Y119500D01*
G37*
G36*
X103500Y96755D02*X103225Y96734D01*
X102958Y96669D01*
X102703Y96564D01*
X102468Y96420D01*
X102259Y96241D01*
X102214Y96189D01*
X99775Y93750D01*
X92069D01*
X92000Y93755D01*
X91725Y93734D01*
X91458Y93669D01*
X91203Y93564D01*
X90968Y93420D01*
X90968Y93420D01*
X90759Y93241D01*
X90714Y93189D01*
X87230Y89705D01*
X87177Y89750D01*
X87486Y90014D01*
X87772Y90349D01*
X88003Y90725D01*
X88171Y91132D01*
X88274Y91561D01*
X88300Y92000D01*
X88274Y92439D01*
X88171Y92868D01*
X88003Y93275D01*
X87772Y93651D01*
X87486Y93986D01*
X87151Y94272D01*
X86779Y94500D01*
X94941D01*
X95000Y94495D01*
X95235Y94514D01*
X95235Y94514D01*
X95465Y94569D01*
X95683Y94659D01*
X95884Y94783D01*
X96064Y94936D01*
X96102Y94981D01*
X107121Y106000D01*
X107204D01*
X107253Y105795D01*
X107584Y104995D01*
X108037Y104257D01*
X108599Y103599D01*
X109257Y103037D01*
X109995Y102584D01*
X110795Y102253D01*
X111637Y102051D01*
X112500Y101983D01*
X113363Y102051D01*
X114205Y102253D01*
X115005Y102584D01*
X115743Y103037D01*
X116401Y103599D01*
X116963Y104257D01*
X117416Y104995D01*
X117747Y105795D01*
X117949Y106637D01*
X118000Y107500D01*
X117949Y108363D01*
X117747Y109205D01*
X117416Y110005D01*
X116963Y110743D01*
X116401Y111401D01*
X115743Y111963D01*
X115005Y112416D01*
X114205Y112747D01*
X113363Y112949D01*
X112500Y113017D01*
X111637Y112949D01*
X110795Y112747D01*
X109995Y112416D01*
X109257Y111963D01*
X108599Y111401D01*
X108037Y110743D01*
X107584Y110005D01*
X107253Y109205D01*
X107204Y109000D01*
X106559D01*
X106500Y109005D01*
X106265Y108986D01*
X106035Y108931D01*
X105817Y108841D01*
X105616Y108717D01*
X105615Y108717D01*
X105436Y108564D01*
X105398Y108519D01*
X94379Y97500D01*
X90059D01*
X90235Y97514D01*
X90235Y97514D01*
X90465Y97569D01*
X90683Y97659D01*
X90884Y97783D01*
X91064Y97936D01*
X91102Y97981D01*
X93519Y100398D01*
X93564Y100436D01*
X93717Y100615D01*
X93717Y100616D01*
X93841Y100817D01*
X93931Y101035D01*
X93986Y101265D01*
X94005Y101500D01*
X94000Y101559D01*
Y102009D01*
X96735Y102014D01*
X96965Y102069D01*
X97183Y102159D01*
X97384Y102283D01*
X97564Y102436D01*
X97717Y102616D01*
X97841Y102817D01*
X97931Y103035D01*
X97986Y103265D01*
X98000Y103500D01*
X97986Y111735D01*
X97931Y111965D01*
X97841Y112183D01*
X97717Y112384D01*
X97564Y112564D01*
X97384Y112717D01*
X97183Y112841D01*
X96965Y112931D01*
X96735Y112986D01*
X96500Y113000D01*
X88265Y112986D01*
X88035Y112931D01*
X87817Y112841D01*
X87616Y112717D01*
X87436Y112564D01*
X87283Y112384D01*
X87159Y112183D01*
X87069Y111965D01*
X87014Y111735D01*
X87000Y111500D01*
X87014Y103265D01*
X87069Y103035D01*
X87159Y102817D01*
X87283Y102616D01*
X87436Y102436D01*
X87616Y102283D01*
X87817Y102159D01*
X88035Y102069D01*
X88265Y102014D01*
X88500Y102000D01*
X90883Y102004D01*
X89379Y100500D01*
X82559D01*
X82500Y100505D01*
X82265Y100486D01*
X82035Y100431D01*
X81817Y100341D01*
X81616Y100217D01*
X81615Y100217D01*
X81436Y100064D01*
X81398Y100019D01*
X75481Y94102D01*
X75436Y94064D01*
X75283Y93884D01*
X75159Y93683D01*
X75069Y93465D01*
X75014Y93235D01*
X75014Y93235D01*
X74995Y93000D01*
X75000Y92941D01*
Y82621D01*
X72879Y80500D01*
X72492D01*
Y101984D01*
X72500Y101983D01*
X73363Y102051D01*
X74205Y102253D01*
X75005Y102584D01*
X75743Y103037D01*
X76401Y103599D01*
X76963Y104257D01*
X77416Y104995D01*
X77747Y105795D01*
X77949Y106637D01*
X78000Y107500D01*
X77949Y108363D01*
X77747Y109205D01*
X77416Y110005D01*
X76963Y110743D01*
X76401Y111401D01*
X75743Y111963D01*
X75005Y112416D01*
X74205Y112747D01*
X73363Y112949D01*
X72500Y113017D01*
X72492Y113016D01*
Y119500D01*
X132500D01*
Y112993D01*
X128265Y112986D01*
X128035Y112931D01*
X127817Y112841D01*
X127616Y112717D01*
X127436Y112564D01*
X127283Y112384D01*
X127159Y112183D01*
X127069Y111965D01*
X127014Y111735D01*
X127000Y111500D01*
X127014Y103265D01*
X127069Y103035D01*
X127159Y102817D01*
X127283Y102616D01*
X127436Y102436D01*
X127616Y102283D01*
X127817Y102159D01*
X128035Y102069D01*
X128265Y102014D01*
X128500Y102000D01*
X132500Y102007D01*
Y74000D01*
X122000D01*
Y79135D01*
X122151Y79228D01*
X122486Y79514D01*
X122772Y79849D01*
X123003Y80225D01*
X123171Y80632D01*
X123274Y81061D01*
X123300Y81500D01*
X123274Y81939D01*
X123171Y82368D01*
X123003Y82775D01*
X122772Y83151D01*
X122486Y83486D01*
X122151Y83772D01*
X121775Y84003D01*
X121368Y84171D01*
X120939Y84274D01*
X120500Y84309D01*
X120061Y84274D01*
X120019Y84264D01*
X120171Y84632D01*
X120274Y85061D01*
X120300Y85500D01*
X120274Y85939D01*
X120171Y86368D01*
X120003Y86775D01*
X119772Y87151D01*
X119486Y87486D01*
X119250Y87688D01*
Y92931D01*
X119255Y93000D01*
X119234Y93274D01*
X119234Y93275D01*
X119169Y93542D01*
X119064Y93797D01*
X118920Y94032D01*
X118741Y94241D01*
X118689Y94286D01*
X116786Y96189D01*
X116741Y96241D01*
X116532Y96420D01*
X116297Y96564D01*
X116042Y96669D01*
X115775Y96734D01*
X115774Y96734D01*
X115500Y96755D01*
X115432Y96750D01*
X103569D01*
X103500Y96755D01*
G37*
G36*
X72492Y80500D02*X58059D01*
X58000Y80505D01*
X57765Y80486D01*
X57535Y80431D01*
X57317Y80341D01*
X57116Y80217D01*
X57115Y80217D01*
X56936Y80064D01*
X56898Y80019D01*
X52377Y75499D01*
X46765Y75486D01*
X46535Y75431D01*
X46317Y75341D01*
X46116Y75217D01*
X45936Y75064D01*
X45783Y74884D01*
X45659Y74683D01*
X45569Y74465D01*
X45514Y74235D01*
X45500Y74000D01*
X44300D01*
X44274Y74439D01*
X44171Y74868D01*
X44003Y75275D01*
X43772Y75651D01*
X43486Y75986D01*
X43151Y76272D01*
X42775Y76503D01*
X42368Y76671D01*
X41939Y76774D01*
X41500Y76809D01*
X41061Y76774D01*
X40632Y76671D01*
X40225Y76503D01*
X39849Y76272D01*
X39514Y75986D01*
X39228Y75651D01*
X38997Y75275D01*
X38829Y74868D01*
X38726Y74439D01*
X38691Y74000D01*
X33000D01*
Y96013D01*
X33772Y94753D01*
X35376Y92876D01*
X37253Y91272D01*
X39358Y89982D01*
X41638Y89038D01*
X44039Y88461D01*
X46500Y88268D01*
X48961Y88461D01*
X51362Y89038D01*
X53642Y89982D01*
X55747Y91272D01*
X57624Y92876D01*
X59228Y94753D01*
X60518Y96858D01*
X61462Y99138D01*
X62039Y101539D01*
X62184Y104000D01*
X62039Y106461D01*
X61462Y108862D01*
X60518Y111142D01*
X59228Y113247D01*
X57624Y115124D01*
X55747Y116728D01*
X53642Y118018D01*
X51362Y118962D01*
X49122Y119500D01*
X72492D01*
Y113016D01*
X71637Y112949D01*
X70795Y112747D01*
X69995Y112416D01*
X69257Y111963D01*
X68599Y111401D01*
X68037Y110743D01*
X67584Y110005D01*
X67253Y109205D01*
X67051Y108363D01*
X66983Y107500D01*
X67051Y106637D01*
X67253Y105795D01*
X67584Y104995D01*
X68037Y104257D01*
X68599Y103599D01*
X69257Y103037D01*
X69995Y102584D01*
X70795Y102253D01*
X71637Y102051D01*
X72492Y101984D01*
Y80500D01*
G37*
G36*
X72500Y37500D02*X85000D01*
Y2000D01*
X72500D01*
Y8007D01*
X76735Y8014D01*
X76965Y8069D01*
X77183Y8159D01*
X77384Y8283D01*
X77564Y8436D01*
X77717Y8616D01*
X77841Y8817D01*
X77931Y9035D01*
X77986Y9265D01*
X78000Y9500D01*
X77986Y17735D01*
X77931Y17965D01*
X77841Y18183D01*
X77717Y18384D01*
X77564Y18564D01*
X77384Y18717D01*
X77183Y18841D01*
X76965Y18931D01*
X76735Y18986D01*
X76500Y19000D01*
X72500Y18993D01*
Y37500D01*
G37*
G36*
X60002Y54000D02*X60289Y53986D01*
X60575Y53944D01*
X60855Y53876D01*
X61128Y53780D01*
X61239Y53742D01*
X61356Y53725D01*
X61474Y53725D01*
X61591Y53745D01*
X61703Y53782D01*
X61807Y53836D01*
X61902Y53906D01*
X61937Y53942D01*
X62939Y52940D01*
X62904Y52905D01*
X62833Y52809D01*
X62779Y52704D01*
X62741Y52592D01*
X62722Y52475D01*
X62721Y52356D01*
X62739Y52239D01*
X62777Y52126D01*
X62876Y51855D01*
X62944Y51575D01*
X62986Y51289D01*
X63000Y51000D01*
Y51000D01*
X62986Y50711D01*
X62944Y50425D01*
X62876Y50145D01*
X62780Y49872D01*
X62742Y49761D01*
X62725Y49644D01*
X62725Y49526D01*
X62745Y49409D01*
X62782Y49297D01*
X62836Y49193D01*
X62906Y49098D01*
X62991Y49015D01*
X63000Y49008D01*
Y41559D01*
X62995Y41500D01*
X63014Y41265D01*
X63069Y41035D01*
X63159Y40817D01*
X63283Y40616D01*
X63436Y40436D01*
X63481Y40398D01*
X65898Y37981D01*
X65936Y37936D01*
X66116Y37783D01*
X66317Y37659D01*
X66535Y37569D01*
X66765Y37514D01*
X67000Y37495D01*
X67059Y37500D01*
X72500D01*
Y18993D01*
X68265Y18986D01*
X68035Y18931D01*
X67817Y18841D01*
X67616Y18717D01*
X67436Y18564D01*
X67283Y18384D01*
X67159Y18183D01*
X67069Y17965D01*
X67014Y17735D01*
X67000Y17500D01*
X67014Y9265D01*
X67069Y9035D01*
X67159Y8817D01*
X67283Y8616D01*
X67436Y8436D01*
X67616Y8283D01*
X67817Y8159D01*
X68035Y8069D01*
X68265Y8014D01*
X68500Y8000D01*
X72500Y8007D01*
Y2000D01*
X60002D01*
Y9016D01*
X60518Y9858D01*
X61462Y12138D01*
X62039Y14539D01*
X62184Y17000D01*
X62039Y19461D01*
X61462Y21862D01*
X60518Y24142D01*
X60002Y24984D01*
Y46495D01*
X60433Y46516D01*
X60863Y46578D01*
X61284Y46682D01*
X61694Y46825D01*
X61800Y46878D01*
X61896Y46947D01*
X61981Y47030D01*
X62051Y47125D01*
X62106Y47231D01*
X62143Y47343D01*
X62163Y47460D01*
X62164Y47579D01*
X62146Y47696D01*
X62110Y47809D01*
X62057Y47915D01*
X61988Y48012D01*
X61905Y48096D01*
X61809Y48167D01*
X61704Y48221D01*
X61592Y48259D01*
X61475Y48278D01*
X61356Y48279D01*
X61239Y48261D01*
X61126Y48223D01*
X60855Y48124D01*
X60575Y48056D01*
X60289Y48014D01*
X60002Y48000D01*
Y54000D01*
G37*
G36*
Y2000D02*X51205D01*
X51362Y2038D01*
X53642Y2982D01*
X55747Y4272D01*
X57624Y5876D01*
X59228Y7753D01*
X60002Y9016D01*
Y2000D01*
G37*
G36*
X56387Y54000D02*X58004D01*
X58012Y53988D01*
X58095Y53904D01*
X58191Y53833D01*
X58296Y53779D01*
X58408Y53741D01*
X58525Y53722D01*
X58644Y53721D01*
X58761Y53739D01*
X58874Y53777D01*
X59145Y53876D01*
X59425Y53944D01*
X59711Y53986D01*
X60000Y54000D01*
X60002Y54000D01*
Y48000D01*
X60000Y48000D01*
X59711Y48014D01*
X59425Y48056D01*
X59145Y48124D01*
X58872Y48220D01*
X58761Y48258D01*
X58644Y48275D01*
X58526Y48275D01*
X58409Y48255D01*
X58297Y48218D01*
X58193Y48164D01*
X58098Y48094D01*
X58015Y48009D01*
X57946Y47913D01*
X57893Y47808D01*
X57857Y47695D01*
X57840Y47579D01*
X57841Y47461D01*
X57860Y47344D01*
X57897Y47232D01*
X57952Y47127D01*
X58022Y47032D01*
X58106Y46949D01*
X58202Y46881D01*
X58308Y46830D01*
X58716Y46682D01*
X59137Y46578D01*
X59567Y46516D01*
X60000Y46495D01*
X60002Y46495D01*
Y24984D01*
X59228Y26247D01*
X57624Y28124D01*
X56387Y29181D01*
Y48849D01*
X56460Y48837D01*
X56579Y48836D01*
X56696Y48854D01*
X56809Y48890D01*
X56915Y48943D01*
X57012Y49012D01*
X57096Y49095D01*
X57167Y49191D01*
X57221Y49296D01*
X57259Y49408D01*
X57278Y49525D01*
X57279Y49644D01*
X57261Y49761D01*
X57223Y49874D01*
X57124Y50145D01*
X57056Y50425D01*
X57014Y50711D01*
X57000Y51000D01*
X57014Y51289D01*
X57056Y51575D01*
X57124Y51855D01*
X57220Y52128D01*
X57258Y52239D01*
X57275Y52356D01*
X57275Y52474D01*
X57255Y52591D01*
X57218Y52703D01*
X57164Y52807D01*
X57094Y52902D01*
X57009Y52985D01*
X56913Y53054D01*
X56808Y53107D01*
X56695Y53143D01*
X56579Y53160D01*
X56461Y53159D01*
X56387Y53147D01*
Y54000D01*
G37*
G36*
X46596Y48057D02*X46808Y47808D01*
X47347Y47348D01*
X47951Y46978D01*
X48605Y46707D01*
X49294Y46542D01*
X50000Y46486D01*
X50706Y46542D01*
X51395Y46707D01*
X52049Y46978D01*
X52653Y47348D01*
X53192Y47808D01*
X53652Y48347D01*
X54022Y48951D01*
X54293Y49605D01*
X54458Y50294D01*
X54500Y51000D01*
X54458Y51706D01*
X54293Y52395D01*
X54022Y53049D01*
X53698Y53577D01*
X54121Y54000D01*
X56387D01*
Y53147D01*
X56344Y53140D01*
X56232Y53103D01*
X56127Y53048D01*
X56032Y52978D01*
X55949Y52894D01*
X55881Y52798D01*
X55830Y52692D01*
X55682Y52284D01*
X55578Y51863D01*
X55516Y51433D01*
X55495Y51000D01*
X55516Y50567D01*
X55578Y50137D01*
X55682Y49716D01*
X55825Y49306D01*
X55878Y49200D01*
X55947Y49104D01*
X56030Y49019D01*
X56125Y48949D01*
X56231Y48894D01*
X56343Y48857D01*
X56387Y48849D01*
Y29181D01*
X55747Y29728D01*
X53642Y31018D01*
X51362Y31962D01*
X48961Y32539D01*
X46596Y32725D01*
Y48057D01*
G37*
G36*
Y66554D02*X46765Y66514D01*
X47000Y66500D01*
X53235Y66514D01*
X53465Y66569D01*
X53500Y66584D01*
Y66559D01*
X53495Y66500D01*
X53514Y66265D01*
X53569Y66035D01*
X53659Y65817D01*
X53783Y65616D01*
X53783Y65615D01*
X53936Y65436D01*
X53981Y65398D01*
X56112Y63267D01*
X55978Y63049D01*
X55707Y62395D01*
X55542Y61706D01*
X55486Y61000D01*
X55542Y60294D01*
X55707Y59605D01*
X55978Y58951D01*
X56348Y58347D01*
X56808Y57808D01*
X57347Y57348D01*
X57915Y57000D01*
X53559D01*
X53500Y57005D01*
X53265Y56986D01*
X53035Y56931D01*
X52817Y56841D01*
X52616Y56717D01*
X52615Y56717D01*
X52436Y56564D01*
X52398Y56519D01*
X51215Y55336D01*
X50706Y55458D01*
X50000Y55514D01*
X49294Y55458D01*
X48605Y55293D01*
X47951Y55022D01*
X47347Y54652D01*
X46808Y54192D01*
X46596Y53943D01*
Y58057D01*
X46808Y57808D01*
X47347Y57348D01*
X47951Y56978D01*
X48605Y56707D01*
X49294Y56542D01*
X50000Y56486D01*
X50706Y56542D01*
X51395Y56707D01*
X52049Y56978D01*
X52653Y57348D01*
X53192Y57808D01*
X53652Y58347D01*
X54022Y58951D01*
X54293Y59605D01*
X54458Y60294D01*
X54500Y61000D01*
X54458Y61706D01*
X54293Y62395D01*
X54022Y63049D01*
X53652Y63653D01*
X53192Y64192D01*
X52653Y64652D01*
X52049Y65022D01*
X51395Y65293D01*
X50706Y65458D01*
X50000Y65514D01*
X49294Y65458D01*
X48605Y65293D01*
X47951Y65022D01*
X47347Y64652D01*
X46808Y64192D01*
X46596Y63943D01*
Y66554D01*
G37*
G36*
Y80500D02*X57941D01*
X57765Y80486D01*
X57535Y80431D01*
X57317Y80341D01*
X57116Y80217D01*
X57115Y80217D01*
X56936Y80064D01*
X56898Y80019D01*
X52377Y75499D01*
X46765Y75486D01*
X46596Y75446D01*
Y80500D01*
G37*
G36*
X33000D02*X46596D01*
Y75446D01*
X46535Y75431D01*
X46317Y75341D01*
X46116Y75217D01*
X45936Y75064D01*
X45783Y74884D01*
X45659Y74683D01*
X45569Y74465D01*
X45514Y74235D01*
X45500Y74000D01*
X45514Y67765D01*
X45569Y67535D01*
X45659Y67317D01*
X45783Y67116D01*
X45936Y66936D01*
X46116Y66783D01*
X46317Y66659D01*
X46535Y66569D01*
X46596Y66554D01*
Y63943D01*
X46348Y63653D01*
X45978Y63049D01*
X45751Y62500D01*
X44621D01*
X43000Y64121D01*
Y71635D01*
X43151Y71728D01*
X43486Y72014D01*
X43772Y72349D01*
X44003Y72725D01*
X44171Y73132D01*
X44274Y73561D01*
X44300Y74000D01*
X44274Y74439D01*
X44171Y74868D01*
X44003Y75275D01*
X43772Y75651D01*
X43486Y75986D01*
X43151Y76272D01*
X42775Y76503D01*
X42368Y76671D01*
X41939Y76774D01*
X41500Y76809D01*
X41061Y76774D01*
X40632Y76671D01*
X40225Y76503D01*
X39849Y76272D01*
X39514Y75986D01*
X39228Y75651D01*
X38997Y75275D01*
X38829Y74868D01*
X38726Y74439D01*
X38691Y74000D01*
X38726Y73561D01*
X38829Y73132D01*
X38997Y72725D01*
X39228Y72349D01*
X39514Y72014D01*
X39849Y71728D01*
X40000Y71635D01*
Y63559D01*
X39995Y63500D01*
X40014Y63265D01*
X40069Y63035D01*
X40159Y62817D01*
X40283Y62616D01*
X40436Y62436D01*
X40481Y62398D01*
X42898Y59981D01*
X42936Y59936D01*
X43116Y59783D01*
X43317Y59659D01*
X43535Y59569D01*
X43765Y59514D01*
X44000Y59495D01*
X44059Y59500D01*
X45751D01*
X45978Y58951D01*
X46348Y58347D01*
X46596Y58057D01*
Y53943D01*
X46348Y53653D01*
X45978Y53049D01*
X45707Y52395D01*
X45542Y51706D01*
X45486Y51000D01*
X45542Y50294D01*
X45707Y49605D01*
X45978Y48951D01*
X46348Y48347D01*
X46596Y48057D01*
Y32725D01*
X46500Y32732D01*
X44039Y32539D01*
X41638Y31962D01*
X39358Y31018D01*
X37253Y29728D01*
X35376Y28124D01*
X33772Y26247D01*
X33000Y24987D01*
Y80500D01*
G37*
G36*
X98000Y1500D02*X72500D01*
Y8007D01*
X76735Y8014D01*
X76965Y8069D01*
X77183Y8159D01*
X77384Y8283D01*
X77564Y8436D01*
X77717Y8616D01*
X77841Y8817D01*
X77931Y9035D01*
X77986Y9265D01*
X78000Y9500D01*
X77986Y17735D01*
X77931Y17965D01*
X77841Y18183D01*
X77717Y18384D01*
X77564Y18564D01*
X77384Y18717D01*
X77183Y18841D01*
X76965Y18931D01*
X76735Y18986D01*
X76500Y19000D01*
X72500Y18993D01*
Y37500D01*
X91441D01*
X91500Y37495D01*
X91735Y37514D01*
X91735Y37514D01*
X91965Y37569D01*
X92183Y37659D01*
X92384Y37783D01*
X92564Y37936D01*
X92602Y37981D01*
X94121Y39500D01*
X98000D01*
Y13500D01*
X97949Y14363D01*
X97747Y15205D01*
X97416Y16005D01*
X96963Y16743D01*
X96401Y17401D01*
X95743Y17963D01*
X95005Y18416D01*
X94205Y18747D01*
X93363Y18949D01*
X92500Y19017D01*
X91637Y18949D01*
X90795Y18747D01*
X89995Y18416D01*
X89257Y17963D01*
X88599Y17401D01*
X88037Y16743D01*
X87584Y16005D01*
X87253Y15205D01*
X87051Y14363D01*
X86983Y13500D01*
X87051Y12637D01*
X87253Y11795D01*
X87584Y10995D01*
X88037Y10257D01*
X88599Y9599D01*
X89257Y9037D01*
X89995Y8584D01*
X90795Y8253D01*
X91637Y8051D01*
X92500Y7983D01*
X93363Y8051D01*
X94205Y8253D01*
X95005Y8584D01*
X95743Y9037D01*
X96401Y9599D01*
X96963Y10257D01*
X97416Y10995D01*
X97747Y11795D01*
X97949Y12637D01*
X98000Y13500D01*
Y1500D01*
G37*
G36*
X72500D02*X49122D01*
X51362Y2038D01*
X53642Y2982D01*
X55747Y4272D01*
X57624Y5876D01*
X59228Y7753D01*
X60518Y9858D01*
X61462Y12138D01*
X62039Y14539D01*
X62184Y17000D01*
X62039Y19461D01*
X61462Y21862D01*
X60518Y24142D01*
X59228Y26247D01*
X57624Y28124D01*
X55747Y29728D01*
X53642Y31018D01*
X51362Y31962D01*
X48961Y32539D01*
X46500Y32732D01*
X44039Y32539D01*
X41638Y31962D01*
X39358Y31018D01*
X37253Y29728D01*
X35376Y28124D01*
X33772Y26247D01*
X33000Y24987D01*
Y39500D01*
X64379D01*
X65898Y37981D01*
X65936Y37936D01*
X66116Y37783D01*
X66317Y37659D01*
X66535Y37569D01*
X66765Y37514D01*
X67000Y37495D01*
X67059Y37500D01*
X72500D01*
Y18993D01*
X68265Y18986D01*
X68035Y18931D01*
X67817Y18841D01*
X67616Y18717D01*
X67436Y18564D01*
X67283Y18384D01*
X67159Y18183D01*
X67069Y17965D01*
X67014Y17735D01*
X67000Y17500D01*
X67014Y9265D01*
X67069Y9035D01*
X67159Y8817D01*
X67283Y8616D01*
X67436Y8436D01*
X67616Y8283D01*
X67817Y8159D01*
X68035Y8069D01*
X68265Y8014D01*
X68500Y8000D01*
X72500Y8007D01*
Y1500D01*
G37*
G36*
X46596Y48057D02*X46808Y47808D01*
X47347Y47348D01*
X47951Y46978D01*
X48605Y46707D01*
X49294Y46542D01*
X50000Y46486D01*
X50706Y46542D01*
X51395Y46707D01*
X52049Y46978D01*
X52653Y47348D01*
X53192Y47808D01*
X53652Y48347D01*
X54022Y48951D01*
X54293Y49605D01*
X54458Y50294D01*
X54500Y51000D01*
X54458Y51706D01*
X54293Y52395D01*
X54022Y53049D01*
X53698Y53577D01*
X54121Y54000D01*
X56500D01*
Y53160D01*
X56461Y53159D01*
X56344Y53140D01*
X56232Y53103D01*
X56127Y53048D01*
X56032Y52978D01*
X55949Y52894D01*
X55881Y52798D01*
X55830Y52692D01*
X55682Y52284D01*
X55578Y51863D01*
X55516Y51433D01*
X55495Y51000D01*
X55516Y50567D01*
X55578Y50137D01*
X55682Y49716D01*
X55825Y49306D01*
X55878Y49200D01*
X55947Y49104D01*
X56030Y49019D01*
X56125Y48949D01*
X56231Y48894D01*
X56343Y48857D01*
X56460Y48837D01*
X56500Y48837D01*
Y29085D01*
X55747Y29728D01*
X53642Y31018D01*
X51362Y31962D01*
X48961Y32539D01*
X46596Y32725D01*
Y48057D01*
G37*
G36*
Y66554D02*X46765Y66514D01*
X47000Y66500D01*
X53235Y66514D01*
X53465Y66569D01*
X53500Y66584D01*
Y66559D01*
X53495Y66500D01*
X53514Y66265D01*
X53569Y66035D01*
X53659Y65817D01*
X53783Y65616D01*
X53783Y65615D01*
X53936Y65436D01*
X53981Y65398D01*
X56112Y63267D01*
X55978Y63049D01*
X55707Y62395D01*
X55542Y61706D01*
X55486Y61000D01*
X55542Y60294D01*
X55707Y59605D01*
X55978Y58951D01*
X56348Y58347D01*
X56500Y58169D01*
Y57000D01*
X53559D01*
X53500Y57005D01*
X53265Y56986D01*
X53035Y56931D01*
X52817Y56841D01*
X52616Y56717D01*
X52615Y56717D01*
X52436Y56564D01*
X52398Y56519D01*
X51215Y55336D01*
X50706Y55458D01*
X50000Y55514D01*
X49294Y55458D01*
X48605Y55293D01*
X47951Y55022D01*
X47347Y54652D01*
X46808Y54192D01*
X46596Y53943D01*
Y58057D01*
X46808Y57808D01*
X47347Y57348D01*
X47951Y56978D01*
X48605Y56707D01*
X49294Y56542D01*
X50000Y56486D01*
X50706Y56542D01*
X51395Y56707D01*
X52049Y56978D01*
X52653Y57348D01*
X53192Y57808D01*
X53652Y58347D01*
X54022Y58951D01*
X54293Y59605D01*
X54458Y60294D01*
X54500Y61000D01*
X54458Y61706D01*
X54293Y62395D01*
X54022Y63049D01*
X53652Y63653D01*
X53192Y64192D01*
X52653Y64652D01*
X52049Y65022D01*
X51395Y65293D01*
X50706Y65458D01*
X50000Y65514D01*
X49294Y65458D01*
X48605Y65293D01*
X47951Y65022D01*
X47347Y64652D01*
X46808Y64192D01*
X46596Y63943D01*
Y66554D01*
G37*
G36*
Y88275D02*X48961Y88461D01*
X51362Y89038D01*
X53642Y89982D01*
X55747Y91272D01*
X56500Y91915D01*
Y79621D01*
X52377Y75499D01*
X46765Y75486D01*
X46596Y75446D01*
Y88275D01*
G37*
G36*
X13492Y119500D02*X43878D01*
X41638Y118962D01*
X39358Y118018D01*
X37253Y116728D01*
X35376Y115124D01*
X33772Y113247D01*
X32482Y111142D01*
X31538Y108862D01*
X30961Y106461D01*
X30768Y104000D01*
X30961Y101539D01*
X31538Y99138D01*
X32482Y96858D01*
X33772Y94753D01*
X35376Y92876D01*
X37253Y91272D01*
X39358Y89982D01*
X41638Y89038D01*
X44039Y88461D01*
X46500Y88268D01*
X46596Y88275D01*
Y75446D01*
X46535Y75431D01*
X46317Y75341D01*
X46116Y75217D01*
X45936Y75064D01*
X45783Y74884D01*
X45659Y74683D01*
X45569Y74465D01*
X45514Y74235D01*
X45500Y74000D01*
X45514Y67765D01*
X45569Y67535D01*
X45659Y67317D01*
X45783Y67116D01*
X45936Y66936D01*
X46116Y66783D01*
X46317Y66659D01*
X46535Y66569D01*
X46596Y66554D01*
Y63943D01*
X46348Y63653D01*
X45978Y63049D01*
X45751Y62500D01*
X44621D01*
X43000Y64121D01*
Y71635D01*
X43151Y71728D01*
X43486Y72014D01*
X43772Y72349D01*
X44003Y72725D01*
X44171Y73132D01*
X44274Y73561D01*
X44300Y74000D01*
X44274Y74439D01*
X44171Y74868D01*
X44003Y75275D01*
X43772Y75651D01*
X43486Y75986D01*
X43151Y76272D01*
X42775Y76503D01*
X42368Y76671D01*
X41939Y76774D01*
X41500Y76809D01*
X41061Y76774D01*
X40632Y76671D01*
X40225Y76503D01*
X39849Y76272D01*
X39514Y75986D01*
X39228Y75651D01*
X38997Y75275D01*
X38829Y74868D01*
X38726Y74439D01*
X38691Y74000D01*
X38726Y73561D01*
X38829Y73132D01*
X38997Y72725D01*
X39228Y72349D01*
X39514Y72014D01*
X39849Y71728D01*
X40000Y71635D01*
Y63559D01*
X39995Y63500D01*
X40014Y63265D01*
X40069Y63035D01*
X40159Y62817D01*
X40283Y62616D01*
X40436Y62436D01*
X40481Y62398D01*
X42898Y59981D01*
X42936Y59936D01*
X43116Y59783D01*
X43317Y59659D01*
X43535Y59569D01*
X43765Y59514D01*
X44000Y59495D01*
X44059Y59500D01*
X45751D01*
X45978Y58951D01*
X46348Y58347D01*
X46596Y58057D01*
Y53943D01*
X46348Y53653D01*
X45978Y53049D01*
X45707Y52395D01*
X45542Y51706D01*
X45486Y51000D01*
X45542Y50294D01*
X45707Y49605D01*
X45978Y48951D01*
X46348Y48347D01*
X46596Y48057D01*
Y32725D01*
X46500Y32732D01*
X44039Y32539D01*
X41638Y31962D01*
X39358Y31018D01*
X37253Y29728D01*
X35376Y28124D01*
X33772Y26247D01*
X32482Y24142D01*
X31538Y21862D01*
X30961Y19461D01*
X30768Y17000D01*
X30961Y14539D01*
X31538Y12138D01*
X32482Y9858D01*
X33772Y7753D01*
X35376Y5876D01*
X37253Y4272D01*
X39358Y2982D01*
X41638Y2038D01*
X43878Y1500D01*
X13492D01*
Y4984D01*
X13500Y4983D01*
X14363Y5051D01*
X15205Y5253D01*
X16005Y5584D01*
X16743Y6037D01*
X17401Y6599D01*
X17963Y7257D01*
X18416Y7995D01*
X18747Y8795D01*
X18949Y9637D01*
X19000Y10500D01*
X18949Y11363D01*
X18747Y12205D01*
X18416Y13005D01*
X17963Y13743D01*
X17401Y14401D01*
X16743Y14963D01*
X16005Y15416D01*
X15205Y15747D01*
X14363Y15949D01*
X13500Y16017D01*
X13492Y16016D01*
Y25007D01*
X17735Y25014D01*
X17965Y25069D01*
X18183Y25159D01*
X18384Y25283D01*
X18564Y25436D01*
X18717Y25616D01*
X18841Y25817D01*
X18931Y26035D01*
X18986Y26265D01*
X19000Y26500D01*
X18986Y34735D01*
X18931Y34965D01*
X18841Y35183D01*
X18717Y35384D01*
X18564Y35564D01*
X18384Y35717D01*
X18183Y35841D01*
X17965Y35931D01*
X17735Y35986D01*
X17500Y36000D01*
X13492Y35993D01*
Y44984D01*
X13500Y44983D01*
X14363Y45051D01*
X15205Y45253D01*
X16005Y45584D01*
X16743Y46037D01*
X17401Y46599D01*
X17963Y47257D01*
X18416Y47995D01*
X18747Y48795D01*
X18949Y49637D01*
X19000Y50500D01*
X18949Y51363D01*
X18747Y52205D01*
X18416Y53005D01*
X17963Y53743D01*
X17401Y54401D01*
X16743Y54963D01*
X16005Y55416D01*
X15205Y55747D01*
X14363Y55949D01*
X13500Y56017D01*
X13492Y56016D01*
Y65007D01*
X17735Y65014D01*
X17965Y65069D01*
X18183Y65159D01*
X18384Y65283D01*
X18564Y65436D01*
X18717Y65616D01*
X18841Y65817D01*
X18931Y66035D01*
X18986Y66265D01*
X19000Y66500D01*
X18986Y74735D01*
X18931Y74965D01*
X18841Y75183D01*
X18717Y75384D01*
X18564Y75564D01*
X18384Y75717D01*
X18183Y75841D01*
X17965Y75931D01*
X17735Y75986D01*
X17500Y76000D01*
X13492Y75993D01*
Y84984D01*
X13500Y84983D01*
X14363Y85051D01*
X15205Y85253D01*
X16005Y85584D01*
X16743Y86037D01*
X17401Y86599D01*
X17963Y87257D01*
X18416Y87995D01*
X18747Y88795D01*
X18949Y89637D01*
X19000Y90500D01*
X18949Y91363D01*
X18747Y92205D01*
X18416Y93005D01*
X17963Y93743D01*
X17401Y94401D01*
X16743Y94963D01*
X16005Y95416D01*
X15205Y95747D01*
X14363Y95949D01*
X13500Y96017D01*
X13492Y96016D01*
Y105007D01*
X17735Y105014D01*
X17965Y105069D01*
X18183Y105159D01*
X18384Y105283D01*
X18564Y105436D01*
X18717Y105616D01*
X18841Y105817D01*
X18931Y106035D01*
X18986Y106265D01*
X19000Y106500D01*
X18986Y114735D01*
X18931Y114965D01*
X18841Y115183D01*
X18717Y115384D01*
X18564Y115564D01*
X18384Y115717D01*
X18183Y115841D01*
X17965Y115931D01*
X17735Y115986D01*
X17500Y116000D01*
X13492Y115993D01*
Y119500D01*
G37*
G36*
X2000D02*X13492D01*
Y115993D01*
X9265Y115986D01*
X9035Y115931D01*
X8817Y115841D01*
X8616Y115717D01*
X8436Y115564D01*
X8283Y115384D01*
X8159Y115183D01*
X8069Y114965D01*
X8014Y114735D01*
X8000Y114500D01*
X8014Y106265D01*
X8069Y106035D01*
X8159Y105817D01*
X8283Y105616D01*
X8436Y105436D01*
X8616Y105283D01*
X8817Y105159D01*
X9035Y105069D01*
X9265Y105014D01*
X9500Y105000D01*
X13492Y105007D01*
Y96016D01*
X12637Y95949D01*
X11795Y95747D01*
X10995Y95416D01*
X10257Y94963D01*
X9599Y94401D01*
X9037Y93743D01*
X8584Y93005D01*
X8253Y92205D01*
X8051Y91363D01*
X7983Y90500D01*
X8051Y89637D01*
X8253Y88795D01*
X8584Y87995D01*
X9037Y87257D01*
X9599Y86599D01*
X10257Y86037D01*
X10995Y85584D01*
X11795Y85253D01*
X12637Y85051D01*
X13492Y84984D01*
Y75993D01*
X9265Y75986D01*
X9035Y75931D01*
X8817Y75841D01*
X8616Y75717D01*
X8436Y75564D01*
X8283Y75384D01*
X8159Y75183D01*
X8069Y74965D01*
X8014Y74735D01*
X8000Y74500D01*
X8014Y66265D01*
X8069Y66035D01*
X8159Y65817D01*
X8283Y65616D01*
X8436Y65436D01*
X8616Y65283D01*
X8817Y65159D01*
X9035Y65069D01*
X9265Y65014D01*
X9500Y65000D01*
X13492Y65007D01*
Y56016D01*
X12637Y55949D01*
X11795Y55747D01*
X10995Y55416D01*
X10257Y54963D01*
X9599Y54401D01*
X9037Y53743D01*
X8584Y53005D01*
X8253Y52205D01*
X8051Y51363D01*
X7983Y50500D01*
X8051Y49637D01*
X8253Y48795D01*
X8584Y47995D01*
X9037Y47257D01*
X9599Y46599D01*
X10257Y46037D01*
X10995Y45584D01*
X11795Y45253D01*
X12637Y45051D01*
X13492Y44984D01*
Y35993D01*
X9265Y35986D01*
X9035Y35931D01*
X8817Y35841D01*
X8616Y35717D01*
X8436Y35564D01*
X8283Y35384D01*
X8159Y35183D01*
X8069Y34965D01*
X8014Y34735D01*
X8000Y34500D01*
X8014Y26265D01*
X8069Y26035D01*
X8159Y25817D01*
X8283Y25616D01*
X8436Y25436D01*
X8616Y25283D01*
X8817Y25159D01*
X9035Y25069D01*
X9265Y25014D01*
X9500Y25000D01*
X13492Y25007D01*
Y16016D01*
X12637Y15949D01*
X11795Y15747D01*
X10995Y15416D01*
X10257Y14963D01*
X9599Y14401D01*
X9037Y13743D01*
X8584Y13005D01*
X8253Y12205D01*
X8051Y11363D01*
X7983Y10500D01*
X8051Y9637D01*
X8253Y8795D01*
X8584Y7995D01*
X9037Y7257D01*
X9599Y6599D01*
X10257Y6037D01*
X10995Y5584D01*
X11795Y5253D01*
X12637Y5051D01*
X13492Y4984D01*
Y1500D01*
X2000D01*
Y119500D01*
G37*
G36*
X239000Y63500D02*X204500D01*
Y119500D01*
X221378D01*
X219138Y118962D01*
X216858Y118018D01*
X214753Y116728D01*
X212876Y115124D01*
X211272Y113247D01*
X209982Y111142D01*
X209038Y108862D01*
X208461Y106461D01*
X208268Y104000D01*
X208461Y101539D01*
X209038Y99138D01*
X209982Y96858D01*
X211272Y94753D01*
X212876Y92876D01*
X214753Y91272D01*
X216858Y89982D01*
X219138Y89038D01*
X221539Y88461D01*
X224000Y88268D01*
X226461Y88461D01*
X228862Y89038D01*
X231142Y89982D01*
X233247Y91272D01*
X235124Y92876D01*
X236728Y94753D01*
X238018Y96858D01*
X238962Y99138D01*
X239000Y99295D01*
Y63500D01*
G37*
G36*
X166000Y65500D02*X170740D01*
X170829Y65132D01*
X170997Y64725D01*
X171228Y64349D01*
X171514Y64014D01*
X171849Y63728D01*
X172225Y63497D01*
X172632Y63329D01*
X173061Y63226D01*
X173500Y63191D01*
X173939Y63226D01*
X174368Y63329D01*
X174775Y63497D01*
X175151Y63728D01*
X175486Y64014D01*
X175772Y64349D01*
X176003Y64725D01*
X176171Y65132D01*
X176260Y65500D01*
X192000D01*
Y29500D01*
X166000D01*
Y65500D01*
G37*
G36*
X202733Y79000D02*X215000D01*
Y62830D01*
X214975Y62855D01*
X214846Y62946D01*
X214704Y63013D01*
X214172Y63204D01*
X213623Y63337D01*
X213064Y63417D01*
X212500Y63444D01*
X211936Y63417D01*
X211377Y63337D01*
X210828Y63204D01*
X210294Y63019D01*
X210152Y62950D01*
X210023Y62858D01*
X209909Y62748D01*
X209815Y62621D01*
X209741Y62481D01*
X209691Y62332D01*
X209664Y62176D01*
X209662Y62018D01*
X209685Y61861D01*
X209732Y61710D01*
X209802Y61569D01*
X209893Y61439D01*
X210004Y61326D01*
X210130Y61232D01*
X210270Y61158D01*
X210420Y61108D01*
X210576Y61081D01*
X210734Y61079D01*
X210890Y61102D01*
X211040Y61152D01*
X211392Y61278D01*
X211756Y61366D01*
X212126Y61419D01*
X212500Y61437D01*
X212874Y61419D01*
X213244Y61366D01*
X213608Y61278D01*
X213961Y61156D01*
X214111Y61106D01*
X214266Y61083D01*
X214424Y61085D01*
X214579Y61112D01*
X214728Y61162D01*
X214867Y61236D01*
X214993Y61330D01*
X215000Y61336D01*
Y53670D01*
X214996Y53674D01*
X214870Y53768D01*
X214730Y53842D01*
X214580Y53892D01*
X214424Y53919D01*
X214266Y53921D01*
X214110Y53898D01*
X213960Y53848D01*
X213608Y53722D01*
X213244Y53634D01*
X212874Y53581D01*
X212500Y53563D01*
X212126Y53581D01*
X211756Y53634D01*
X211392Y53722D01*
X211039Y53844D01*
X210889Y53894D01*
X210734Y53917D01*
X210576Y53915D01*
X210421Y53888D01*
X210272Y53838D01*
X210133Y53764D01*
X210007Y53670D01*
X209897Y53558D01*
X209806Y53429D01*
X209736Y53288D01*
X209689Y53138D01*
X209667Y52982D01*
X209668Y52825D01*
X209695Y52669D01*
X209746Y52520D01*
X209819Y52381D01*
X209913Y52255D01*
X210025Y52145D01*
X210154Y52054D01*
X210296Y51987D01*
X210828Y51796D01*
X211377Y51663D01*
X211936Y51583D01*
X212500Y51556D01*
X213064Y51583D01*
X213623Y51663D01*
X214172Y51796D01*
X214706Y51981D01*
X214848Y52050D01*
X214977Y52142D01*
X215000Y52164D01*
Y29500D01*
X202733D01*
Y51563D01*
X203432Y51618D01*
X204340Y51836D01*
X205204Y52194D01*
X206000Y52682D01*
X206711Y53289D01*
X207318Y54000D01*
X207735Y54679D01*
X207824Y54664D01*
X207982Y54662D01*
X208139Y54685D01*
X208290Y54732D01*
X208431Y54802D01*
X208561Y54893D01*
X208674Y55004D01*
X208768Y55130D01*
X208842Y55270D01*
X208892Y55420D01*
X208919Y55576D01*
X208921Y55734D01*
X208898Y55890D01*
X208848Y56040D01*
X208722Y56392D01*
X208634Y56756D01*
X208581Y57126D01*
X208563Y57500D01*
X208581Y57874D01*
X208634Y58244D01*
X208722Y58608D01*
X208844Y58961D01*
X208894Y59111D01*
X208917Y59266D01*
X208915Y59424D01*
X208888Y59579D01*
X208838Y59728D01*
X208764Y59867D01*
X208670Y59993D01*
X208558Y60103D01*
X208429Y60194D01*
X208288Y60264D01*
X208138Y60311D01*
X207982Y60333D01*
X207825Y60332D01*
X207737Y60317D01*
X207318Y61000D01*
X206711Y61711D01*
X206000Y62318D01*
X205204Y62806D01*
X204340Y63164D01*
X203432Y63382D01*
X202733Y63437D01*
Y79000D01*
G37*
G36*
X150000D02*X171250D01*
Y67677D01*
X171228Y67651D01*
X170997Y67275D01*
X170829Y66868D01*
X170726Y66439D01*
X170691Y66000D01*
X170726Y65561D01*
X170829Y65132D01*
X170997Y64725D01*
X171228Y64349D01*
X171514Y64014D01*
X171849Y63728D01*
X172225Y63497D01*
X172632Y63329D01*
X173061Y63226D01*
X173500Y63191D01*
X173939Y63226D01*
X174368Y63329D01*
X174775Y63497D01*
X175151Y63728D01*
X175486Y64014D01*
X175772Y64349D01*
X176003Y64725D01*
X176171Y65132D01*
X176274Y65561D01*
X176300Y66000D01*
X176274Y66439D01*
X176171Y66868D01*
X176003Y67275D01*
X175772Y67651D01*
X175750Y67677D01*
Y79000D01*
X202733D01*
Y63437D01*
X202500Y63455D01*
X201568Y63382D01*
X200660Y63164D01*
X199796Y62806D01*
X199000Y62318D01*
X198289Y61711D01*
X197682Y61000D01*
X197194Y60204D01*
X196836Y59340D01*
X196618Y58432D01*
X196545Y57500D01*
X196618Y56568D01*
X196836Y55660D01*
X197194Y54796D01*
X197682Y54000D01*
X198289Y53289D01*
X199000Y52682D01*
X199796Y52194D01*
X200660Y51836D01*
X201568Y51618D01*
X202500Y51545D01*
X202733Y51563D01*
Y29500D01*
X150000D01*
Y41401D01*
X153735Y41408D01*
X153965Y41463D01*
X154183Y41553D01*
X154384Y41677D01*
X154564Y41830D01*
X154717Y42010D01*
X154841Y42211D01*
X154931Y42429D01*
X154986Y42659D01*
X155000Y42894D01*
X154986Y50129D01*
X154931Y50359D01*
X154841Y50577D01*
X154717Y50778D01*
X154564Y50958D01*
X154384Y51111D01*
X154183Y51235D01*
X153965Y51325D01*
X153735Y51380D01*
X153500Y51394D01*
X150000Y51387D01*
Y60591D01*
X150785Y60652D01*
X151550Y60836D01*
X152277Y61137D01*
X152948Y61548D01*
X153546Y62060D01*
X154058Y62658D01*
X154469Y63329D01*
X154770Y64056D01*
X154954Y64821D01*
X155000Y65606D01*
X154954Y66391D01*
X154770Y67156D01*
X154469Y67883D01*
X154058Y68554D01*
X153546Y69152D01*
X152948Y69664D01*
X152277Y70075D01*
X151550Y70376D01*
X150785Y70560D01*
X150000Y70621D01*
Y79000D01*
G37*
G36*
X139500D02*X150000D01*
Y70621D01*
X149215Y70560D01*
X148450Y70376D01*
X147723Y70075D01*
X147052Y69664D01*
X146454Y69152D01*
X145942Y68554D01*
X145531Y67883D01*
X145230Y67156D01*
X145046Y66391D01*
X144985Y65606D01*
X145046Y64821D01*
X145230Y64056D01*
X145531Y63329D01*
X145942Y62658D01*
X146454Y62060D01*
X147052Y61548D01*
X147723Y61137D01*
X148450Y60836D01*
X149215Y60652D01*
X150000Y60591D01*
Y51387D01*
X146265Y51380D01*
X146035Y51325D01*
X145817Y51235D01*
X145616Y51111D01*
X145436Y50958D01*
X145283Y50778D01*
X145159Y50577D01*
X145069Y50359D01*
X145014Y50129D01*
X145000Y49894D01*
X145014Y42659D01*
X145069Y42429D01*
X145159Y42211D01*
X145283Y42010D01*
X145436Y41830D01*
X145616Y41677D01*
X145817Y41553D01*
X146035Y41463D01*
X146265Y41408D01*
X146500Y41394D01*
X150000Y41401D01*
Y29500D01*
X139500D01*
Y79000D01*
G37*
G36*
X198750Y84500D02*X212000D01*
Y72000D01*
X198750D01*
Y84500D01*
G37*
G36*
X246502Y65500D02*X249897D01*
X249914Y65492D01*
X250005Y65468D01*
X250099Y65459D01*
X250194Y65464D01*
X250286Y65484D01*
X250326Y65500D01*
X252520D01*
X252299Y65140D01*
X252016Y64457D01*
X251844Y63738D01*
X251786Y63000D01*
X251844Y62262D01*
X252016Y61543D01*
X252299Y60860D01*
X252686Y60229D01*
X253166Y59666D01*
X253729Y59186D01*
X254360Y58799D01*
X255043Y58516D01*
X255762Y58344D01*
X256500Y58286D01*
X257238Y58344D01*
X257957Y58516D01*
X258640Y58799D01*
X259271Y59186D01*
X259834Y59666D01*
X260314Y60229D01*
X260701Y60860D01*
X260984Y61543D01*
X261156Y62262D01*
X261200Y63000D01*
X261156Y63738D01*
X260984Y64457D01*
X260701Y65140D01*
X260480Y65500D01*
X264000D01*
Y53683D01*
X263584Y53005D01*
X263253Y52205D01*
X263051Y51363D01*
X262983Y50500D01*
X263051Y49637D01*
X263253Y48795D01*
X263584Y47995D01*
X264000Y47317D01*
Y27099D01*
X263272Y26247D01*
X261982Y24142D01*
X261038Y21862D01*
X260461Y19461D01*
X260268Y17000D01*
X260461Y14539D01*
X261038Y12138D01*
X261982Y9858D01*
X263272Y7753D01*
X264000Y6901D01*
Y1500D01*
X246502D01*
Y63300D01*
X246711D01*
X247130Y63338D01*
X247545Y63413D01*
X247951Y63525D01*
X248346Y63672D01*
X248725Y63855D01*
X248806Y63906D01*
X248877Y63969D01*
X248937Y64042D01*
X248985Y64125D01*
X249019Y64213D01*
X249039Y64306D01*
X249045Y64401D01*
X249035Y64495D01*
X249011Y64587D01*
X248973Y64674D01*
X248921Y64754D01*
X248858Y64825D01*
X248785Y64885D01*
X248703Y64933D01*
X248614Y64967D01*
X248521Y64988D01*
X248426Y64993D01*
X248332Y64983D01*
X248240Y64959D01*
X248154Y64919D01*
X247873Y64781D01*
X247580Y64671D01*
X247277Y64587D01*
X246969Y64532D01*
X246657Y64504D01*
X246502D01*
Y65500D01*
G37*
G36*
X220493D02*X242664D01*
X242713Y65481D01*
X242806Y65461D01*
X242901Y65455D01*
X242995Y65465D01*
X243087Y65489D01*
X243112Y65500D01*
X246502D01*
Y64504D01*
X246343D01*
X246031Y64532D01*
X245723Y64587D01*
X245420Y64671D01*
X245127Y64781D01*
X244844Y64916D01*
X244759Y64956D01*
X244668Y64980D01*
X244574Y64989D01*
X244479Y64984D01*
X244387Y64964D01*
X244299Y64930D01*
X244217Y64882D01*
X244144Y64822D01*
X244081Y64752D01*
X244030Y64672D01*
X243992Y64586D01*
X243968Y64495D01*
X243959Y64401D01*
X243964Y64306D01*
X243984Y64214D01*
X244019Y64126D01*
X244066Y64044D01*
X244126Y63971D01*
X244196Y63908D01*
X244277Y63859D01*
X244654Y63672D01*
X245049Y63525D01*
X245455Y63413D01*
X245870Y63338D01*
X246289Y63300D01*
X246502D01*
Y1500D01*
X220493D01*
Y10645D01*
X220578Y10681D01*
X220679Y10743D01*
X220769Y10819D01*
X220845Y10909D01*
X220905Y11011D01*
X221122Y11480D01*
X221289Y11969D01*
X221409Y12472D01*
X221482Y12984D01*
X221506Y13500D01*
X221482Y14016D01*
X221409Y14528D01*
X221289Y15031D01*
X221122Y15520D01*
X220910Y15992D01*
X220849Y16093D01*
X220772Y16184D01*
X220682Y16261D01*
X220580Y16323D01*
X220493Y16360D01*
Y51567D01*
X226751Y51582D01*
X227057Y51655D01*
X227348Y51775D01*
X227616Y51940D01*
X227856Y52144D01*
X228060Y52384D01*
X228225Y52652D01*
X228345Y52943D01*
X228418Y53249D01*
X228437Y53563D01*
X228418Y61751D01*
X228345Y62057D01*
X228225Y62348D01*
X228060Y62616D01*
X227856Y62856D01*
X227616Y63060D01*
X227348Y63225D01*
X227057Y63345D01*
X226751Y63418D01*
X226437Y63437D01*
X220493Y63424D01*
Y65500D01*
G37*
G36*
X216002D02*X220493D01*
Y63424D01*
X218249Y63418D01*
X217943Y63345D01*
X217652Y63225D01*
X217384Y63060D01*
X217144Y62856D01*
X216940Y62616D01*
X216775Y62348D01*
X216655Y62057D01*
X216582Y61751D01*
X216563Y61437D01*
X216566Y60196D01*
X216439Y60107D01*
X216326Y59996D01*
X216232Y59870D01*
X216158Y59730D01*
X216108Y59580D01*
X216081Y59424D01*
X216079Y59266D01*
X216102Y59110D01*
X216152Y58960D01*
X216278Y58608D01*
X216366Y58244D01*
X216419Y57874D01*
X216437Y57500D01*
X216419Y57126D01*
X216366Y56756D01*
X216278Y56392D01*
X216156Y56039D01*
X216106Y55889D01*
X216083Y55734D01*
X216085Y55576D01*
X216112Y55421D01*
X216162Y55272D01*
X216236Y55133D01*
X216330Y55007D01*
X216442Y54897D01*
X216571Y54806D01*
X216578Y54802D01*
X216582Y53249D01*
X216655Y52943D01*
X216775Y52652D01*
X216940Y52384D01*
X217144Y52144D01*
X217384Y51940D01*
X217652Y51775D01*
X217943Y51655D01*
X218249Y51582D01*
X218563Y51563D01*
X220493Y51567D01*
Y16360D01*
X220471Y16369D01*
X220355Y16397D01*
X220237Y16406D01*
X220119Y16397D01*
X220003Y16370D01*
X219893Y16324D01*
X219792Y16262D01*
X219702Y16186D01*
X219624Y16095D01*
X219562Y15994D01*
X219516Y15885D01*
X219489Y15769D01*
X219479Y15651D01*
X219488Y15532D01*
X219516Y15417D01*
X219563Y15308D01*
X219721Y14968D01*
X219842Y14612D01*
X219930Y14247D01*
X219982Y13875D01*
X220000Y13500D01*
X219982Y13125D01*
X219930Y12753D01*
X219842Y12388D01*
X219721Y12032D01*
X219567Y11690D01*
X219520Y11582D01*
X219493Y11467D01*
X219483Y11349D01*
X219493Y11232D01*
X219521Y11117D01*
X219566Y11008D01*
X219628Y10907D01*
X219705Y10818D01*
X219795Y10741D01*
X219895Y10680D01*
X220004Y10635D01*
X220119Y10607D01*
X220237Y10598D01*
X220355Y10608D01*
X220469Y10635D01*
X220493Y10645D01*
Y1500D01*
X216002D01*
Y7994D01*
X216516Y8018D01*
X217028Y8091D01*
X217531Y8211D01*
X218020Y8378D01*
X218492Y8590D01*
X218593Y8651D01*
X218684Y8728D01*
X218761Y8818D01*
X218823Y8920D01*
X218869Y9029D01*
X218897Y9145D01*
X218906Y9263D01*
X218897Y9381D01*
X218870Y9497D01*
X218824Y9607D01*
X218762Y9708D01*
X218686Y9798D01*
X218595Y9876D01*
X218494Y9938D01*
X218385Y9984D01*
X218269Y10011D01*
X218151Y10021D01*
X218032Y10012D01*
X217917Y9984D01*
X217808Y9937D01*
X217468Y9779D01*
X217112Y9658D01*
X216747Y9570D01*
X216375Y9518D01*
X216002Y9500D01*
Y17500D01*
X216375Y17482D01*
X216747Y17430D01*
X217112Y17342D01*
X217468Y17221D01*
X217810Y17067D01*
X217918Y17020D01*
X218033Y16993D01*
X218151Y16983D01*
X218268Y16993D01*
X218383Y17021D01*
X218492Y17066D01*
X218593Y17128D01*
X218682Y17205D01*
X218759Y17295D01*
X218820Y17395D01*
X218865Y17504D01*
X218893Y17619D01*
X218902Y17737D01*
X218892Y17855D01*
X218865Y17969D01*
X218819Y18078D01*
X218757Y18179D01*
X218681Y18269D01*
X218591Y18345D01*
X218489Y18405D01*
X218020Y18622D01*
X217531Y18789D01*
X217028Y18909D01*
X216516Y18982D01*
X216002Y19006D01*
Y65500D01*
G37*
G36*
X211507D02*X216002D01*
Y19006D01*
X216000Y19006D01*
X215484Y18982D01*
X214972Y18909D01*
X214469Y18789D01*
X213980Y18622D01*
X213508Y18410D01*
X213407Y18349D01*
X213316Y18272D01*
X213239Y18182D01*
X213177Y18080D01*
X213131Y17971D01*
X213103Y17855D01*
X213094Y17737D01*
X213103Y17619D01*
X213130Y17503D01*
X213176Y17393D01*
X213238Y17292D01*
X213314Y17202D01*
X213405Y17124D01*
X213506Y17062D01*
X213615Y17016D01*
X213731Y16989D01*
X213849Y16979D01*
X213968Y16988D01*
X214083Y17016D01*
X214192Y17063D01*
X214532Y17221D01*
X214888Y17342D01*
X215253Y17430D01*
X215625Y17482D01*
X216000Y17500D01*
X216002Y17500D01*
Y9500D01*
X216000Y9500D01*
X215625Y9518D01*
X215253Y9570D01*
X214888Y9658D01*
X214532Y9779D01*
X214190Y9933D01*
X214082Y9980D01*
X213967Y10007D01*
X213849Y10017D01*
X213732Y10007D01*
X213617Y9979D01*
X213508Y9934D01*
X213407Y9872D01*
X213318Y9795D01*
X213241Y9705D01*
X213180Y9605D01*
X213135Y9496D01*
X213107Y9381D01*
X213098Y9263D01*
X213108Y9145D01*
X213135Y9031D01*
X213181Y8922D01*
X213243Y8821D01*
X213319Y8731D01*
X213409Y8655D01*
X213511Y8595D01*
X213980Y8378D01*
X214469Y8211D01*
X214972Y8091D01*
X215484Y8018D01*
X216000Y7994D01*
X216002Y7994D01*
Y1500D01*
X211507D01*
Y10640D01*
X211529Y10631D01*
X211645Y10603D01*
X211763Y10594D01*
X211881Y10603D01*
X211997Y10630D01*
X212107Y10676D01*
X212208Y10738D01*
X212298Y10814D01*
X212376Y10905D01*
X212438Y11006D01*
X212484Y11115D01*
X212511Y11231D01*
X212521Y11349D01*
X212512Y11468D01*
X212484Y11583D01*
X212437Y11692D01*
X212279Y12032D01*
X212158Y12388D01*
X212070Y12753D01*
X212018Y13125D01*
X212000Y13500D01*
X212018Y13875D01*
X212070Y14247D01*
X212158Y14612D01*
X212279Y14968D01*
X212433Y15310D01*
X212480Y15418D01*
X212507Y15533D01*
X212517Y15651D01*
X212507Y15768D01*
X212479Y15883D01*
X212434Y15992D01*
X212372Y16093D01*
X212295Y16182D01*
X212205Y16259D01*
X212105Y16320D01*
X211996Y16365D01*
X211881Y16393D01*
X211763Y16402D01*
X211645Y16392D01*
X211531Y16365D01*
X211507Y16355D01*
Y51645D01*
X211936Y51583D01*
X212500Y51556D01*
X213064Y51583D01*
X213623Y51663D01*
X214172Y51796D01*
X214706Y51981D01*
X214848Y52050D01*
X214977Y52142D01*
X215091Y52252D01*
X215185Y52379D01*
X215259Y52519D01*
X215309Y52668D01*
X215336Y52824D01*
X215338Y52982D01*
X215315Y53139D01*
X215268Y53290D01*
X215198Y53431D01*
X215107Y53561D01*
X214996Y53674D01*
X214870Y53768D01*
X214730Y53842D01*
X214580Y53892D01*
X214424Y53919D01*
X214266Y53921D01*
X214110Y53898D01*
X213960Y53848D01*
X213608Y53722D01*
X213244Y53634D01*
X212874Y53581D01*
X212500Y53563D01*
X212126Y53581D01*
X211756Y53634D01*
X211507Y53694D01*
Y61306D01*
X211756Y61366D01*
X212126Y61419D01*
X212500Y61437D01*
X212874Y61419D01*
X213244Y61366D01*
X213608Y61278D01*
X213961Y61156D01*
X214111Y61106D01*
X214266Y61083D01*
X214424Y61085D01*
X214579Y61112D01*
X214728Y61162D01*
X214867Y61236D01*
X214993Y61330D01*
X215103Y61442D01*
X215194Y61571D01*
X215264Y61712D01*
X215311Y61862D01*
X215333Y62018D01*
X215332Y62175D01*
X215305Y62331D01*
X215254Y62480D01*
X215181Y62619D01*
X215087Y62745D01*
X214975Y62855D01*
X214846Y62946D01*
X214704Y63013D01*
X214172Y63204D01*
X213623Y63337D01*
X213064Y63417D01*
X212500Y63444D01*
X211936Y63417D01*
X211507Y63355D01*
Y65500D01*
G37*
G36*
X200750D02*X211507D01*
Y63355D01*
X211377Y63337D01*
X210828Y63204D01*
X210294Y63019D01*
X210152Y62950D01*
X210023Y62858D01*
X209909Y62748D01*
X209815Y62621D01*
X209741Y62481D01*
X209691Y62332D01*
X209664Y62176D01*
X209662Y62018D01*
X209685Y61861D01*
X209732Y61710D01*
X209802Y61569D01*
X209893Y61439D01*
X210004Y61326D01*
X210130Y61232D01*
X210270Y61158D01*
X210420Y61108D01*
X210576Y61081D01*
X210734Y61079D01*
X210890Y61102D01*
X211040Y61152D01*
X211392Y61278D01*
X211507Y61306D01*
Y53694D01*
X211392Y53722D01*
X211039Y53844D01*
X210889Y53894D01*
X210734Y53917D01*
X210576Y53915D01*
X210421Y53888D01*
X210272Y53838D01*
X210133Y53764D01*
X210007Y53670D01*
X209897Y53558D01*
X209806Y53429D01*
X209736Y53288D01*
X209689Y53138D01*
X209667Y52982D01*
X209668Y52825D01*
X209695Y52669D01*
X209746Y52520D01*
X209819Y52381D01*
X209913Y52255D01*
X210025Y52145D01*
X210154Y52054D01*
X210296Y51987D01*
X210828Y51796D01*
X211377Y51663D01*
X211507Y51645D01*
Y16355D01*
X211422Y16319D01*
X211321Y16257D01*
X211231Y16181D01*
X211155Y16091D01*
X211095Y15989D01*
X210878Y15520D01*
X210711Y15031D01*
X210591Y14528D01*
X210518Y14016D01*
X210494Y13500D01*
X210518Y12984D01*
X210591Y12472D01*
X210711Y11969D01*
X210878Y11480D01*
X211090Y11008D01*
X211151Y10907D01*
X211228Y10816D01*
X211318Y10739D01*
X211420Y10677D01*
X211507Y10640D01*
Y1500D01*
X200750D01*
Y10248D01*
X200868Y10257D01*
X200982Y10285D01*
X201092Y10330D01*
X201192Y10391D01*
X201282Y10468D01*
X201359Y10558D01*
X201420Y10658D01*
X201465Y10768D01*
X201493Y10882D01*
X201500Y11000D01*
Y16000D01*
X201493Y16118D01*
X201465Y16232D01*
X201420Y16342D01*
X201359Y16442D01*
X201282Y16532D01*
X201192Y16609D01*
X201092Y16670D01*
X200982Y16715D01*
X200868Y16743D01*
X200750Y16752D01*
Y51814D01*
X201568Y51618D01*
X202500Y51545D01*
X203432Y51618D01*
X204340Y51836D01*
X205204Y52194D01*
X206000Y52682D01*
X206711Y53289D01*
X207318Y54000D01*
X207735Y54679D01*
X207824Y54664D01*
X207982Y54662D01*
X208139Y54685D01*
X208290Y54732D01*
X208431Y54802D01*
X208561Y54893D01*
X208674Y55004D01*
X208768Y55130D01*
X208842Y55270D01*
X208892Y55420D01*
X208919Y55576D01*
X208921Y55734D01*
X208898Y55890D01*
X208848Y56040D01*
X208722Y56392D01*
X208634Y56756D01*
X208581Y57126D01*
X208563Y57500D01*
X208581Y57874D01*
X208634Y58244D01*
X208722Y58608D01*
X208844Y58961D01*
X208894Y59111D01*
X208917Y59266D01*
X208915Y59424D01*
X208888Y59579D01*
X208838Y59728D01*
X208764Y59867D01*
X208670Y59993D01*
X208558Y60103D01*
X208429Y60194D01*
X208288Y60264D01*
X208138Y60311D01*
X207982Y60333D01*
X207825Y60332D01*
X207737Y60317D01*
X207318Y61000D01*
X206711Y61711D01*
X206000Y62318D01*
X205204Y62806D01*
X204340Y63164D01*
X203432Y63382D01*
X202500Y63455D01*
X201568Y63382D01*
X200750Y63186D01*
Y65500D01*
G37*
G36*
X196000D02*X200750D01*
Y63186D01*
X200660Y63164D01*
X199796Y62806D01*
X199000Y62318D01*
X198289Y61711D01*
X197682Y61000D01*
X197194Y60204D01*
X196836Y59340D01*
X196618Y58432D01*
X196545Y57500D01*
X196618Y56568D01*
X196836Y55660D01*
X197194Y54796D01*
X197682Y54000D01*
X198289Y53289D01*
X199000Y52682D01*
X199796Y52194D01*
X200660Y51836D01*
X200750Y51814D01*
Y16752D01*
X200632Y16743D01*
X200518Y16715D01*
X200408Y16670D01*
X200308Y16609D01*
X200218Y16532D01*
X200141Y16442D01*
X200080Y16342D01*
X200035Y16232D01*
X200007Y16118D01*
X200000Y16000D01*
Y11000D01*
X200007Y10882D01*
X200035Y10768D01*
X200080Y10658D01*
X200141Y10558D01*
X200218Y10468D01*
X200308Y10391D01*
X200408Y10330D01*
X200518Y10285D01*
X200632Y10257D01*
X200750Y10248D01*
Y1500D01*
X196000D01*
Y8000D01*
X198500D01*
X198618Y8007D01*
X198732Y8035D01*
X198842Y8080D01*
X198942Y8141D01*
X199032Y8218D01*
X199109Y8308D01*
X199170Y8408D01*
X199215Y8518D01*
X199243Y8632D01*
X199252Y8750D01*
X199243Y8868D01*
X199215Y8982D01*
X199170Y9092D01*
X199109Y9192D01*
X199032Y9282D01*
X198942Y9359D01*
X198842Y9420D01*
X198732Y9465D01*
X198618Y9493D01*
X198500Y9500D01*
X196000D01*
Y17500D01*
X198500D01*
X198618Y17507D01*
X198732Y17535D01*
X198842Y17580D01*
X198942Y17641D01*
X199032Y17718D01*
X199109Y17808D01*
X199170Y17908D01*
X199215Y18018D01*
X199243Y18132D01*
X199252Y18250D01*
X199243Y18368D01*
X199215Y18482D01*
X199170Y18592D01*
X199109Y18692D01*
X199032Y18782D01*
X198942Y18859D01*
X198842Y18920D01*
X198732Y18965D01*
X198618Y18993D01*
X198500Y19000D01*
X196000D01*
Y65500D01*
G37*
G36*
X191250D02*X196000D01*
Y19000D01*
X193500D01*
X193382Y18993D01*
X193268Y18965D01*
X193158Y18920D01*
X193058Y18859D01*
X192968Y18782D01*
X192891Y18692D01*
X192830Y18592D01*
X192785Y18482D01*
X192757Y18368D01*
X192748Y18250D01*
X192757Y18132D01*
X192785Y18018D01*
X192830Y17908D01*
X192891Y17808D01*
X192968Y17718D01*
X193058Y17641D01*
X193158Y17580D01*
X193268Y17535D01*
X193382Y17507D01*
X193500Y17500D01*
X196000D01*
Y9500D01*
X193500D01*
X193382Y9493D01*
X193268Y9465D01*
X193158Y9420D01*
X193058Y9359D01*
X192968Y9282D01*
X192891Y9192D01*
X192830Y9092D01*
X192785Y8982D01*
X192757Y8868D01*
X192748Y8750D01*
X192757Y8632D01*
X192785Y8518D01*
X192830Y8408D01*
X192891Y8308D01*
X192968Y8218D01*
X193058Y8141D01*
X193158Y8080D01*
X193268Y8035D01*
X193382Y8007D01*
X193500Y8000D01*
X196000D01*
Y1500D01*
X191250D01*
Y10248D01*
X191368Y10257D01*
X191482Y10285D01*
X191592Y10330D01*
X191692Y10391D01*
X191782Y10468D01*
X191859Y10558D01*
X191920Y10658D01*
X191965Y10768D01*
X191993Y10882D01*
X192000Y11000D01*
Y16000D01*
X191993Y16118D01*
X191965Y16232D01*
X191920Y16342D01*
X191859Y16442D01*
X191782Y16532D01*
X191692Y16609D01*
X191592Y16670D01*
X191482Y16715D01*
X191368Y16743D01*
X191250Y16752D01*
Y65500D01*
G37*
G36*
X186000D02*X191250D01*
Y16752D01*
X191132Y16743D01*
X191018Y16715D01*
X190908Y16670D01*
X190808Y16609D01*
X190718Y16532D01*
X190641Y16442D01*
X190580Y16342D01*
X190535Y16232D01*
X190507Y16118D01*
X190500Y16000D01*
Y11000D01*
X190507Y10882D01*
X190535Y10768D01*
X190580Y10658D01*
X190641Y10558D01*
X190718Y10468D01*
X190808Y10391D01*
X190908Y10330D01*
X191018Y10285D01*
X191132Y10257D01*
X191250Y10248D01*
Y1500D01*
X186000D01*
Y65500D01*
G37*
G36*
X250354Y73500D02*X251500D01*
Y62500D01*
X250354D01*
Y65511D01*
X250374Y65519D01*
X250456Y65566D01*
X250529Y65626D01*
X250592Y65696D01*
X250641Y65777D01*
X250828Y66154D01*
X250975Y66549D01*
X251087Y66955D01*
X251162Y67370D01*
X251200Y67789D01*
Y68211D01*
X251162Y68630D01*
X251087Y69045D01*
X250975Y69451D01*
X250828Y69846D01*
X250645Y70225D01*
X250594Y70306D01*
X250531Y70377D01*
X250458Y70437D01*
X250375Y70485D01*
X250354Y70493D01*
Y73500D01*
G37*
G36*
X246502Y73486D02*X246676Y73500D01*
X250354D01*
Y70493D01*
X250287Y70519D01*
X250194Y70539D01*
X250099Y70545D01*
X250005Y70535D01*
X249913Y70511D01*
X249826Y70473D01*
X249746Y70421D01*
X249675Y70358D01*
X249615Y70285D01*
X249567Y70203D01*
X249533Y70114D01*
X249512Y70021D01*
X249507Y69926D01*
X249517Y69832D01*
X249541Y69740D01*
X249581Y69654D01*
X249719Y69373D01*
X249829Y69080D01*
X249913Y68777D01*
X249968Y68469D01*
X249996Y68157D01*
Y67843D01*
X249968Y67531D01*
X249913Y67223D01*
X249829Y66920D01*
X249719Y66627D01*
X249584Y66344D01*
X249544Y66259D01*
X249520Y66168D01*
X249511Y66074D01*
X249516Y65979D01*
X249536Y65887D01*
X249570Y65799D01*
X249618Y65717D01*
X249678Y65644D01*
X249748Y65581D01*
X249828Y65530D01*
X249914Y65492D01*
X250005Y65468D01*
X250099Y65459D01*
X250194Y65464D01*
X250286Y65484D01*
X250354Y65511D01*
Y62500D01*
X246502D01*
Y63300D01*
X246711D01*
X247130Y63338D01*
X247545Y63413D01*
X247951Y63525D01*
X248346Y63672D01*
X248725Y63855D01*
X248806Y63906D01*
X248877Y63969D01*
X248937Y64042D01*
X248985Y64125D01*
X249019Y64213D01*
X249039Y64306D01*
X249045Y64401D01*
X249035Y64495D01*
X249011Y64587D01*
X248973Y64674D01*
X248921Y64754D01*
X248858Y64825D01*
X248785Y64885D01*
X248703Y64933D01*
X248614Y64967D01*
X248521Y64988D01*
X248426Y64993D01*
X248332Y64983D01*
X248240Y64959D01*
X248154Y64919D01*
X247873Y64781D01*
X247580Y64671D01*
X247277Y64587D01*
X246969Y64532D01*
X246657Y64504D01*
X246502D01*
Y71496D01*
X246657D01*
X246969Y71468D01*
X247277Y71413D01*
X247580Y71329D01*
X247873Y71219D01*
X248156Y71084D01*
X248241Y71044D01*
X248332Y71020D01*
X248426Y71011D01*
X248521Y71016D01*
X248613Y71036D01*
X248701Y71070D01*
X248783Y71118D01*
X248856Y71178D01*
X248919Y71248D01*
X248970Y71328D01*
X249008Y71414D01*
X249032Y71505D01*
X249041Y71599D01*
X249036Y71694D01*
X249016Y71786D01*
X248981Y71874D01*
X248934Y71956D01*
X248874Y72029D01*
X248804Y72092D01*
X248723Y72141D01*
X248346Y72328D01*
X247951Y72475D01*
X247545Y72587D01*
X247130Y72662D01*
X246711Y72700D01*
X246502D01*
Y73486D01*
G37*
G36*
X242646Y73500D02*X246324D01*
X246500Y73486D01*
X246502Y73486D01*
Y72700D01*
X246289D01*
X245870Y72662D01*
X245455Y72587D01*
X245049Y72475D01*
X244654Y72328D01*
X244275Y72145D01*
X244194Y72094D01*
X244123Y72031D01*
X244063Y71958D01*
X244015Y71876D01*
X243981Y71787D01*
X243961Y71694D01*
X243955Y71599D01*
X243965Y71505D01*
X243989Y71413D01*
X244027Y71326D01*
X244079Y71246D01*
X244142Y71175D01*
X244215Y71115D01*
X244297Y71067D01*
X244386Y71033D01*
X244479Y71012D01*
X244574Y71007D01*
X244668Y71017D01*
X244760Y71041D01*
X244846Y71081D01*
X245127Y71219D01*
X245420Y71329D01*
X245723Y71413D01*
X246031Y71468D01*
X246343Y71496D01*
X246502D01*
Y64504D01*
X246343D01*
X246031Y64532D01*
X245723Y64587D01*
X245420Y64671D01*
X245127Y64781D01*
X244844Y64916D01*
X244759Y64956D01*
X244668Y64980D01*
X244574Y64989D01*
X244479Y64984D01*
X244387Y64964D01*
X244299Y64930D01*
X244217Y64882D01*
X244144Y64822D01*
X244081Y64752D01*
X244030Y64672D01*
X243992Y64586D01*
X243968Y64495D01*
X243959Y64401D01*
X243964Y64306D01*
X243984Y64214D01*
X244019Y64126D01*
X244066Y64044D01*
X244126Y63971D01*
X244196Y63908D01*
X244277Y63859D01*
X244654Y63672D01*
X245049Y63525D01*
X245455Y63413D01*
X245870Y63338D01*
X246289Y63300D01*
X246502D01*
Y62500D01*
X242646D01*
Y65507D01*
X242713Y65481D01*
X242806Y65461D01*
X242901Y65455D01*
X242995Y65465D01*
X243087Y65489D01*
X243174Y65527D01*
X243254Y65579D01*
X243325Y65642D01*
X243385Y65715D01*
X243433Y65797D01*
X243467Y65886D01*
X243488Y65979D01*
X243493Y66074D01*
X243483Y66168D01*
X243459Y66260D01*
X243419Y66346D01*
X243281Y66627D01*
X243171Y66920D01*
X243087Y67223D01*
X243032Y67531D01*
X243004Y67843D01*
Y68157D01*
X243032Y68469D01*
X243087Y68777D01*
X243171Y69080D01*
X243281Y69373D01*
X243416Y69656D01*
X243456Y69741D01*
X243480Y69832D01*
X243489Y69926D01*
X243484Y70021D01*
X243464Y70113D01*
X243430Y70201D01*
X243382Y70283D01*
X243322Y70356D01*
X243252Y70419D01*
X243172Y70470D01*
X243086Y70508D01*
X242995Y70532D01*
X242901Y70541D01*
X242806Y70536D01*
X242714Y70516D01*
X242646Y70489D01*
Y73500D01*
G37*
G36*
X238000Y62500D02*Y73500D01*
X242646D01*
Y70489D01*
X242626Y70481D01*
X242544Y70434D01*
X242471Y70374D01*
X242408Y70304D01*
X242359Y70223D01*
X242172Y69846D01*
X242025Y69451D01*
X241913Y69045D01*
X241838Y68630D01*
X241800Y68211D01*
Y67789D01*
X241838Y67370D01*
X241913Y66955D01*
X242025Y66549D01*
X242172Y66154D01*
X242355Y65775D01*
X242406Y65694D01*
X242469Y65623D01*
X242542Y65563D01*
X242624Y65515D01*
X242646Y65507D01*
Y62500D01*
X238000D01*
G37*
G36*
X248902Y64000D02*X251500D01*
Y53000D01*
X247000D01*
Y63326D01*
X247130Y63338D01*
X247545Y63413D01*
X247951Y63525D01*
X248346Y63672D01*
X248725Y63855D01*
X248806Y63906D01*
X248877Y63969D01*
X248902Y64000D01*
G37*
G36*
X268492Y3207D02*X268858Y2982D01*
X271138Y2038D01*
X273378Y1500D01*
X268492D01*
Y3207D01*
G37*
G36*
X281487Y119500D02*X291000D01*
Y21705D01*
X290962Y21862D01*
X290018Y24142D01*
X288728Y26247D01*
X287124Y28124D01*
X285247Y29728D01*
X283142Y31018D01*
X281487Y31703D01*
Y49776D01*
X281500Y49775D01*
X282787Y49876D01*
X284042Y50177D01*
X285234Y50671D01*
X286335Y51346D01*
X287316Y52184D01*
X288154Y53165D01*
X288829Y54266D01*
X289323Y55458D01*
X289624Y56713D01*
X289700Y58000D01*
X289624Y59287D01*
X289323Y60542D01*
X288829Y61734D01*
X288154Y62835D01*
X287316Y63816D01*
X286335Y64654D01*
X285234Y65329D01*
X284042Y65823D01*
X282787Y66124D01*
X281500Y66225D01*
X281487Y66224D01*
Y94776D01*
X281500Y94775D01*
X282787Y94876D01*
X284042Y95177D01*
X285234Y95671D01*
X286335Y96346D01*
X287316Y97184D01*
X288154Y98165D01*
X288829Y99266D01*
X289323Y100458D01*
X289624Y101713D01*
X289700Y103000D01*
X289624Y104287D01*
X289323Y105542D01*
X288829Y106734D01*
X288154Y107835D01*
X287316Y108816D01*
X286335Y109654D01*
X285234Y110329D01*
X284042Y110823D01*
X282787Y111124D01*
X281500Y111225D01*
X281487Y111224D01*
Y119500D01*
G37*
G36*
X272993D02*X281487D01*
Y111224D01*
X280213Y111124D01*
X278958Y110823D01*
X277766Y110329D01*
X276665Y109654D01*
X275684Y108816D01*
X274846Y107835D01*
X274171Y106734D01*
X273677Y105542D01*
X273376Y104287D01*
X273275Y103000D01*
X273376Y101713D01*
X273677Y100458D01*
X274171Y99266D01*
X274846Y98165D01*
X275684Y97184D01*
X276665Y96346D01*
X277766Y95671D01*
X278958Y95177D01*
X280213Y94876D01*
X281487Y94776D01*
Y66224D01*
X280213Y66124D01*
X278958Y65823D01*
X277766Y65329D01*
X276665Y64654D01*
X275684Y63816D01*
X274846Y62835D01*
X274171Y61734D01*
X273677Y60542D01*
X273376Y59287D01*
X273275Y58000D01*
X273376Y56713D01*
X273677Y55458D01*
X274171Y54266D01*
X274846Y53165D01*
X275684Y52184D01*
X276665Y51346D01*
X277766Y50671D01*
X278958Y50177D01*
X280213Y49876D01*
X281487Y49776D01*
Y31703D01*
X280862Y31962D01*
X278461Y32539D01*
X276000Y32732D01*
X273539Y32539D01*
X272993Y32408D01*
Y47305D01*
X273416Y47995D01*
X273747Y48795D01*
X273949Y49637D01*
X274000Y50500D01*
X273949Y51363D01*
X273747Y52205D01*
X273416Y53005D01*
X272993Y53695D01*
Y67645D01*
X273078Y67681D01*
X273179Y67743D01*
X273269Y67819D01*
X273345Y67909D01*
X273405Y68011D01*
X273622Y68480D01*
X273789Y68969D01*
X273909Y69472D01*
X273982Y69984D01*
X274006Y70500D01*
X273982Y71016D01*
X273909Y71528D01*
X273789Y72031D01*
X273622Y72520D01*
X273410Y72992D01*
X273349Y73093D01*
X273272Y73184D01*
X273182Y73261D01*
X273080Y73323D01*
X272993Y73360D01*
Y87305D01*
X273416Y87995D01*
X273747Y88795D01*
X273949Y89637D01*
X274000Y90500D01*
X273949Y91363D01*
X273747Y92205D01*
X273416Y93005D01*
X272993Y93695D01*
Y107305D01*
X273416Y107995D01*
X273747Y108795D01*
X273949Y109637D01*
X274000Y110500D01*
X273949Y111363D01*
X273747Y112205D01*
X273416Y113005D01*
X272993Y113695D01*
Y119500D01*
G37*
G36*
Y93695D02*X272963Y93743D01*
X272401Y94401D01*
X271743Y94963D01*
X271005Y95416D01*
X270205Y95747D01*
X269363Y95949D01*
X268500Y96017D01*
X268492Y96016D01*
Y104984D01*
X268500Y104983D01*
X269363Y105051D01*
X270205Y105253D01*
X271005Y105584D01*
X271743Y106037D01*
X272401Y106599D01*
X272963Y107257D01*
X272993Y107305D01*
Y93695D01*
G37*
G36*
Y53695D02*X272963Y53743D01*
X272401Y54401D01*
X271743Y54963D01*
X271005Y55416D01*
X270205Y55747D01*
X269363Y55949D01*
X268500Y56017D01*
X268492Y56016D01*
Y64994D01*
X268500Y64994D01*
X269016Y65018D01*
X269528Y65091D01*
X270031Y65211D01*
X270520Y65378D01*
X270992Y65590D01*
X271093Y65651D01*
X271184Y65728D01*
X271261Y65818D01*
X271323Y65920D01*
X271369Y66029D01*
X271397Y66145D01*
X271406Y66263D01*
X271397Y66381D01*
X271370Y66497D01*
X271324Y66607D01*
X271262Y66708D01*
X271186Y66798D01*
X271095Y66876D01*
X270994Y66938D01*
X270885Y66984D01*
X270769Y67011D01*
X270651Y67021D01*
X270532Y67012D01*
X270417Y66984D01*
X270308Y66937D01*
X269968Y66779D01*
X269612Y66658D01*
X269247Y66570D01*
X268875Y66518D01*
X268500Y66500D01*
X268492Y66500D01*
Y74500D01*
X268500Y74500D01*
X268875Y74482D01*
X269247Y74430D01*
X269612Y74342D01*
X269968Y74221D01*
X270310Y74067D01*
X270418Y74020D01*
X270533Y73993D01*
X270651Y73983D01*
X270768Y73993D01*
X270883Y74021D01*
X270992Y74066D01*
X271093Y74128D01*
X271182Y74205D01*
X271259Y74295D01*
X271320Y74395D01*
X271365Y74504D01*
X271393Y74619D01*
X271402Y74737D01*
X271392Y74855D01*
X271365Y74969D01*
X271319Y75078D01*
X271257Y75179D01*
X271181Y75269D01*
X271091Y75345D01*
X270989Y75405D01*
X270520Y75622D01*
X270031Y75789D01*
X269528Y75909D01*
X269016Y75982D01*
X268500Y76006D01*
X268492Y76006D01*
Y84984D01*
X268500Y84983D01*
X269363Y85051D01*
X270205Y85253D01*
X271005Y85584D01*
X271743Y86037D01*
X272401Y86599D01*
X272963Y87257D01*
X272993Y87305D01*
Y73360D01*
X272971Y73369D01*
X272855Y73397D01*
X272737Y73406D01*
X272619Y73397D01*
X272503Y73370D01*
X272393Y73324D01*
X272292Y73262D01*
X272202Y73186D01*
X272124Y73095D01*
X272062Y72994D01*
X272016Y72885D01*
X271989Y72769D01*
X271979Y72651D01*
X271988Y72532D01*
X272016Y72417D01*
X272063Y72308D01*
X272221Y71968D01*
X272342Y71612D01*
X272430Y71247D01*
X272482Y70875D01*
X272500Y70500D01*
X272482Y70125D01*
X272430Y69753D01*
X272342Y69388D01*
X272221Y69032D01*
X272067Y68690D01*
X272020Y68582D01*
X271993Y68467D01*
X271983Y68349D01*
X271993Y68232D01*
X272021Y68117D01*
X272066Y68008D01*
X272128Y67907D01*
X272205Y67818D01*
X272295Y67741D01*
X272395Y67680D01*
X272504Y67635D01*
X272619Y67607D01*
X272737Y67598D01*
X272855Y67608D01*
X272969Y67635D01*
X272993Y67645D01*
Y53695D01*
G37*
G36*
Y32408D02*X271138Y31962D01*
X268858Y31018D01*
X268492Y30793D01*
Y44984D01*
X268500Y44983D01*
X269363Y45051D01*
X270205Y45253D01*
X271005Y45584D01*
X271743Y46037D01*
X272401Y46599D01*
X272963Y47257D01*
X272993Y47305D01*
Y32408D01*
G37*
G36*
X268492Y119500D02*X272993D01*
Y113695D01*
X272963Y113743D01*
X272401Y114401D01*
X271743Y114963D01*
X271005Y115416D01*
X270205Y115747D01*
X269363Y115949D01*
X268500Y116017D01*
X268492Y116016D01*
Y119500D01*
G37*
G36*
X264007Y6892D02*X264876Y5876D01*
X266753Y4272D01*
X268492Y3207D01*
Y1500D01*
X264007D01*
Y6892D01*
G37*
G36*
Y47305D02*X264037Y47257D01*
X264599Y46599D01*
X265257Y46037D01*
X265995Y45584D01*
X266795Y45253D01*
X267637Y45051D01*
X268492Y44984D01*
Y30793D01*
X266753Y29728D01*
X264876Y28124D01*
X264007Y27108D01*
Y47305D01*
G37*
G36*
Y87305D02*X264037Y87257D01*
X264599Y86599D01*
X265257Y86037D01*
X265995Y85584D01*
X266795Y85253D01*
X267637Y85051D01*
X268492Y84984D01*
Y76006D01*
X267984Y75982D01*
X267472Y75909D01*
X266969Y75789D01*
X266480Y75622D01*
X266008Y75410D01*
X265907Y75349D01*
X265816Y75272D01*
X265739Y75182D01*
X265677Y75080D01*
X265631Y74971D01*
X265603Y74855D01*
X265594Y74737D01*
X265603Y74619D01*
X265630Y74503D01*
X265676Y74393D01*
X265738Y74292D01*
X265814Y74202D01*
X265905Y74124D01*
X266006Y74062D01*
X266115Y74016D01*
X266231Y73989D01*
X266349Y73979D01*
X266468Y73988D01*
X266583Y74016D01*
X266692Y74063D01*
X267032Y74221D01*
X267388Y74342D01*
X267753Y74430D01*
X268125Y74482D01*
X268492Y74500D01*
Y66500D01*
X268125Y66518D01*
X267753Y66570D01*
X267388Y66658D01*
X267032Y66779D01*
X266690Y66933D01*
X266582Y66980D01*
X266467Y67007D01*
X266349Y67017D01*
X266232Y67007D01*
X266117Y66979D01*
X266008Y66934D01*
X265907Y66872D01*
X265818Y66795D01*
X265741Y66705D01*
X265680Y66605D01*
X265635Y66496D01*
X265607Y66381D01*
X265598Y66263D01*
X265608Y66145D01*
X265635Y66031D01*
X265681Y65922D01*
X265743Y65821D01*
X265819Y65731D01*
X265909Y65655D01*
X266011Y65595D01*
X266480Y65378D01*
X266969Y65211D01*
X267472Y65091D01*
X267984Y65018D01*
X268492Y64994D01*
Y56016D01*
X267637Y55949D01*
X266795Y55747D01*
X265995Y55416D01*
X265257Y54963D01*
X264599Y54401D01*
X264037Y53743D01*
X264007Y53695D01*
Y67640D01*
X264029Y67631D01*
X264145Y67603D01*
X264263Y67594D01*
X264381Y67603D01*
X264497Y67630D01*
X264607Y67676D01*
X264708Y67738D01*
X264798Y67814D01*
X264876Y67905D01*
X264938Y68006D01*
X264984Y68115D01*
X265011Y68231D01*
X265021Y68349D01*
X265012Y68468D01*
X264984Y68583D01*
X264937Y68692D01*
X264779Y69032D01*
X264658Y69388D01*
X264570Y69753D01*
X264518Y70125D01*
X264500Y70500D01*
X264518Y70875D01*
X264570Y71247D01*
X264658Y71612D01*
X264779Y71968D01*
X264933Y72310D01*
X264980Y72418D01*
X265007Y72533D01*
X265017Y72651D01*
X265007Y72768D01*
X264979Y72883D01*
X264934Y72992D01*
X264872Y73093D01*
X264795Y73182D01*
X264705Y73259D01*
X264605Y73320D01*
X264496Y73365D01*
X264381Y73393D01*
X264263Y73402D01*
X264145Y73392D01*
X264031Y73365D01*
X264007Y73355D01*
Y87305D01*
G37*
G36*
Y107305D02*X264037Y107257D01*
X264599Y106599D01*
X265257Y106037D01*
X265995Y105584D01*
X266795Y105253D01*
X267637Y105051D01*
X268492Y104984D01*
Y96016D01*
X267637Y95949D01*
X266795Y95747D01*
X265995Y95416D01*
X265257Y94963D01*
X264599Y94401D01*
X264037Y93743D01*
X264007Y93695D01*
Y107305D01*
G37*
G36*
Y119500D02*X268492D01*
Y116016D01*
X267637Y115949D01*
X266795Y115747D01*
X265995Y115416D01*
X265257Y114963D01*
X264599Y114401D01*
X264037Y113743D01*
X264007Y113695D01*
Y119500D01*
G37*
G36*
X256493D02*X264007D01*
Y113695D01*
X263584Y113005D01*
X263253Y112205D01*
X263051Y111363D01*
X262983Y110500D01*
X263051Y109637D01*
X263253Y108795D01*
X263584Y107995D01*
X264007Y107305D01*
Y93695D01*
X263584Y93005D01*
X263253Y92205D01*
X263051Y91363D01*
X262983Y90500D01*
X263051Y89637D01*
X263253Y88795D01*
X263584Y87995D01*
X264007Y87305D01*
Y73355D01*
X263922Y73319D01*
X263821Y73257D01*
X263731Y73181D01*
X263655Y73091D01*
X263595Y72989D01*
X263378Y72520D01*
X263211Y72031D01*
X263091Y71528D01*
X263018Y71016D01*
X262994Y70500D01*
X263018Y69984D01*
X263091Y69472D01*
X263211Y68969D01*
X263378Y68480D01*
X263590Y68008D01*
X263651Y67907D01*
X263728Y67816D01*
X263818Y67739D01*
X263920Y67677D01*
X264007Y67640D01*
Y53695D01*
X263584Y53005D01*
X263253Y52205D01*
X263051Y51363D01*
X262983Y50500D01*
X263051Y49637D01*
X263253Y48795D01*
X263584Y47995D01*
X264007Y47305D01*
Y27108D01*
X263272Y26247D01*
X261982Y24142D01*
X261038Y21862D01*
X260461Y19461D01*
X260268Y17000D01*
X260461Y14539D01*
X261038Y12138D01*
X261982Y9858D01*
X263272Y7753D01*
X264007Y6892D01*
Y1500D01*
X256493D01*
Y58286D01*
X256500Y58286D01*
X257238Y58344D01*
X257957Y58516D01*
X258640Y58799D01*
X259271Y59186D01*
X259834Y59666D01*
X260314Y60229D01*
X260701Y60860D01*
X260984Y61543D01*
X261156Y62262D01*
X261200Y63000D01*
X261156Y63738D01*
X260984Y64457D01*
X260701Y65140D01*
X260314Y65771D01*
X259834Y66334D01*
X259271Y66814D01*
X258640Y67201D01*
X257957Y67484D01*
X257238Y67656D01*
X256500Y67714D01*
X256493Y67714D01*
Y68487D01*
X256500Y68486D01*
X257206Y68542D01*
X257895Y68707D01*
X258549Y68978D01*
X259153Y69348D01*
X259692Y69808D01*
X260152Y70347D01*
X260522Y70951D01*
X260793Y71605D01*
X260958Y72294D01*
X261000Y73000D01*
X260958Y73706D01*
X260793Y74395D01*
X260522Y75049D01*
X260152Y75653D01*
X259692Y76192D01*
X259153Y76652D01*
X258549Y77022D01*
X257895Y77293D01*
X257206Y77458D01*
X256500Y77514D01*
X256493Y77513D01*
Y78487D01*
X256500Y78486D01*
X257206Y78542D01*
X257895Y78707D01*
X258549Y78978D01*
X259153Y79348D01*
X259692Y79808D01*
X260152Y80347D01*
X260522Y80951D01*
X260793Y81605D01*
X260958Y82294D01*
X261000Y83000D01*
X260958Y83706D01*
X260793Y84395D01*
X260522Y85049D01*
X260152Y85653D01*
X259692Y86192D01*
X259153Y86652D01*
X258549Y87022D01*
X257895Y87293D01*
X257206Y87458D01*
X256500Y87514D01*
X256493Y87513D01*
Y88487D01*
X256500Y88486D01*
X257206Y88542D01*
X257895Y88707D01*
X258549Y88978D01*
X259153Y89348D01*
X259692Y89808D01*
X260152Y90347D01*
X260522Y90951D01*
X260793Y91605D01*
X260958Y92294D01*
X261000Y93000D01*
X260958Y93706D01*
X260793Y94395D01*
X260522Y95049D01*
X260152Y95653D01*
X259692Y96192D01*
X259153Y96652D01*
X258549Y97022D01*
X257895Y97293D01*
X257206Y97458D01*
X256500Y97514D01*
X256493Y97513D01*
Y119500D01*
G37*
G36*
X250220D02*X256493D01*
Y97513D01*
X255794Y97458D01*
X255105Y97293D01*
X254451Y97022D01*
X253847Y96652D01*
X253308Y96192D01*
X252848Y95653D01*
X252478Y95049D01*
X252207Y94395D01*
X252042Y93706D01*
X251986Y93000D01*
X252042Y92294D01*
X252207Y91605D01*
X252478Y90951D01*
X252848Y90347D01*
X253308Y89808D01*
X253847Y89348D01*
X254451Y88978D01*
X255105Y88707D01*
X255794Y88542D01*
X256493Y88487D01*
Y87513D01*
X255794Y87458D01*
X255105Y87293D01*
X254451Y87022D01*
X253847Y86652D01*
X253308Y86192D01*
X252848Y85653D01*
X252478Y85049D01*
X252207Y84395D01*
X252042Y83706D01*
X251986Y83000D01*
X252042Y82294D01*
X252207Y81605D01*
X252478Y80951D01*
X252848Y80347D01*
X253308Y79808D01*
X253847Y79348D01*
X254451Y78978D01*
X255105Y78707D01*
X255794Y78542D01*
X256493Y78487D01*
Y77513D01*
X255794Y77458D01*
X255105Y77293D01*
X254451Y77022D01*
X253847Y76652D01*
X253308Y76192D01*
X252848Y75653D01*
X252478Y75049D01*
X252207Y74395D01*
X252042Y73706D01*
X251986Y73000D01*
X252042Y72294D01*
X252207Y71605D01*
X252478Y70951D01*
X252848Y70347D01*
X253308Y69808D01*
X253847Y69348D01*
X254451Y68978D01*
X255105Y68707D01*
X255794Y68542D01*
X256493Y68487D01*
Y67714D01*
X255762Y67656D01*
X255043Y67484D01*
X254360Y67201D01*
X253729Y66814D01*
X253166Y66334D01*
X252686Y65771D01*
X252299Y65140D01*
X252016Y64457D01*
X251844Y63738D01*
X251786Y63000D01*
X251844Y62262D01*
X252016Y61543D01*
X252299Y60860D01*
X252686Y60229D01*
X253166Y59666D01*
X253729Y59186D01*
X254360Y58799D01*
X255043Y58516D01*
X255762Y58344D01*
X256493Y58286D01*
Y1500D01*
X250220D01*
Y65470D01*
X250286Y65484D01*
X250374Y65519D01*
X250456Y65566D01*
X250529Y65626D01*
X250592Y65696D01*
X250641Y65777D01*
X250828Y66154D01*
X250975Y66549D01*
X251087Y66955D01*
X251162Y67370D01*
X251200Y67789D01*
Y68211D01*
X251162Y68630D01*
X251087Y69045D01*
X250975Y69451D01*
X250828Y69846D01*
X250645Y70225D01*
X250594Y70306D01*
X250531Y70377D01*
X250458Y70437D01*
X250375Y70485D01*
X250287Y70519D01*
X250220Y70533D01*
Y75459D01*
X250522Y75951D01*
X250793Y76605D01*
X250958Y77294D01*
X251000Y78000D01*
X250958Y78706D01*
X250793Y79395D01*
X250522Y80049D01*
X250220Y80541D01*
Y85544D01*
X250271Y85583D01*
X250326Y85639D01*
X250370Y85704D01*
X250564Y86056D01*
X250721Y86426D01*
X250844Y86809D01*
X250933Y87200D01*
X250987Y87599D01*
X251004Y88000D01*
X250987Y88401D01*
X250933Y88800D01*
X250844Y89191D01*
X250721Y89574D01*
X250564Y89944D01*
X250374Y90298D01*
X250329Y90363D01*
X250274Y90420D01*
X250220Y90460D01*
Y95459D01*
X250522Y95951D01*
X250793Y96605D01*
X250958Y97294D01*
X251000Y98000D01*
X250958Y98706D01*
X250793Y99395D01*
X250522Y100049D01*
X250220Y100541D01*
Y119500D01*
G37*
G36*
Y80541D02*X250152Y80653D01*
X249692Y81192D01*
X249153Y81652D01*
X248549Y82022D01*
X247895Y82293D01*
X247206Y82458D01*
X246502Y82514D01*
Y83496D01*
X246901Y83513D01*
X247300Y83567D01*
X247691Y83656D01*
X248074Y83779D01*
X248444Y83936D01*
X248798Y84126D01*
X248863Y84171D01*
X248920Y84226D01*
X248968Y84290D01*
X249004Y84360D01*
X249030Y84435D01*
X249044Y84513D01*
X249045Y84592D01*
X249033Y84671D01*
X249010Y84746D01*
X248975Y84817D01*
X248929Y84882D01*
X248874Y84939D01*
X248811Y84987D01*
X248741Y85024D01*
X248666Y85049D01*
X248588Y85063D01*
X248508Y85064D01*
X248430Y85052D01*
X248354Y85029D01*
X248284Y84993D01*
X248010Y84843D01*
X247723Y84721D01*
X247426Y84625D01*
X247121Y84556D01*
X246812Y84514D01*
X246502Y84500D01*
Y91500D01*
X246812Y91486D01*
X247121Y91444D01*
X247426Y91375D01*
X247723Y91279D01*
X248010Y91157D01*
X248286Y91010D01*
X248355Y90974D01*
X248431Y90951D01*
X248509Y90940D01*
X248587Y90941D01*
X248665Y90954D01*
X248739Y90980D01*
X248809Y91016D01*
X248872Y91064D01*
X248927Y91120D01*
X248972Y91184D01*
X249007Y91255D01*
X249030Y91330D01*
X249041Y91408D01*
X249040Y91487D01*
X249027Y91564D01*
X249001Y91639D01*
X248965Y91708D01*
X248917Y91771D01*
X248861Y91826D01*
X248796Y91870D01*
X248444Y92064D01*
X248074Y92221D01*
X247691Y92344D01*
X247300Y92433D01*
X246901Y92487D01*
X246502Y92504D01*
Y93486D01*
X247206Y93542D01*
X247895Y93707D01*
X248549Y93978D01*
X249153Y94348D01*
X249692Y94808D01*
X250152Y95347D01*
X250220Y95459D01*
Y90460D01*
X250210Y90468D01*
X250140Y90504D01*
X250065Y90530D01*
X249987Y90544D01*
X249908Y90545D01*
X249829Y90533D01*
X249754Y90510D01*
X249683Y90475D01*
X249618Y90429D01*
X249561Y90374D01*
X249513Y90311D01*
X249476Y90241D01*
X249451Y90166D01*
X249437Y90088D01*
X249436Y90008D01*
X249448Y89930D01*
X249471Y89854D01*
X249507Y89784D01*
X249657Y89510D01*
X249779Y89223D01*
X249875Y88926D01*
X249944Y88621D01*
X249986Y88312D01*
X250000Y88000D01*
X249986Y87688D01*
X249944Y87379D01*
X249875Y87074D01*
X249779Y86777D01*
X249657Y86490D01*
X249510Y86214D01*
X249474Y86145D01*
X249451Y86069D01*
X249440Y85991D01*
X249441Y85913D01*
X249454Y85835D01*
X249480Y85761D01*
X249516Y85691D01*
X249564Y85628D01*
X249620Y85573D01*
X249684Y85528D01*
X249755Y85493D01*
X249830Y85470D01*
X249908Y85459D01*
X249987Y85460D01*
X250064Y85473D01*
X250139Y85499D01*
X250208Y85535D01*
X250220Y85544D01*
Y80541D01*
G37*
G36*
Y1500D02*X246502D01*
Y63300D01*
X246711D01*
X247130Y63338D01*
X247545Y63413D01*
X247951Y63525D01*
X248346Y63672D01*
X248725Y63855D01*
X248806Y63906D01*
X248877Y63969D01*
X248937Y64042D01*
X248985Y64125D01*
X249019Y64213D01*
X249039Y64306D01*
X249045Y64401D01*
X249035Y64495D01*
X249011Y64587D01*
X248973Y64674D01*
X248921Y64754D01*
X248858Y64825D01*
X248785Y64885D01*
X248703Y64933D01*
X248614Y64967D01*
X248521Y64988D01*
X248426Y64993D01*
X248332Y64983D01*
X248240Y64959D01*
X248154Y64919D01*
X247873Y64781D01*
X247580Y64671D01*
X247277Y64587D01*
X246969Y64532D01*
X246657Y64504D01*
X246502D01*
Y71496D01*
X246657D01*
X246969Y71468D01*
X247277Y71413D01*
X247580Y71329D01*
X247873Y71219D01*
X248156Y71084D01*
X248241Y71044D01*
X248332Y71020D01*
X248426Y71011D01*
X248521Y71016D01*
X248613Y71036D01*
X248701Y71070D01*
X248783Y71118D01*
X248856Y71178D01*
X248919Y71248D01*
X248970Y71328D01*
X249008Y71414D01*
X249032Y71505D01*
X249041Y71599D01*
X249036Y71694D01*
X249016Y71786D01*
X248981Y71874D01*
X248934Y71956D01*
X248874Y72029D01*
X248804Y72092D01*
X248723Y72141D01*
X248346Y72328D01*
X247951Y72475D01*
X247545Y72587D01*
X247130Y72662D01*
X246711Y72700D01*
X246502D01*
Y73486D01*
X247206Y73542D01*
X247895Y73707D01*
X248549Y73978D01*
X249153Y74348D01*
X249692Y74808D01*
X250152Y75347D01*
X250220Y75459D01*
Y70533D01*
X250194Y70539D01*
X250099Y70545D01*
X250005Y70535D01*
X249913Y70511D01*
X249826Y70473D01*
X249746Y70421D01*
X249675Y70358D01*
X249615Y70285D01*
X249567Y70203D01*
X249533Y70114D01*
X249512Y70021D01*
X249507Y69926D01*
X249517Y69832D01*
X249541Y69740D01*
X249581Y69654D01*
X249719Y69373D01*
X249829Y69080D01*
X249913Y68777D01*
X249968Y68469D01*
X249996Y68157D01*
Y67843D01*
X249968Y67531D01*
X249913Y67223D01*
X249829Y66920D01*
X249719Y66627D01*
X249584Y66344D01*
X249544Y66259D01*
X249520Y66168D01*
X249511Y66074D01*
X249516Y65979D01*
X249536Y65887D01*
X249570Y65799D01*
X249618Y65717D01*
X249678Y65644D01*
X249748Y65581D01*
X249828Y65530D01*
X249914Y65492D01*
X250005Y65468D01*
X250099Y65459D01*
X250194Y65464D01*
X250220Y65470D01*
Y1500D01*
G37*
G36*
X246502Y119500D02*X250220D01*
Y100541D01*
X250152Y100653D01*
X249692Y101192D01*
X249153Y101652D01*
X248549Y102022D01*
X247895Y102293D01*
X247206Y102458D01*
X246502Y102514D01*
Y119500D01*
G37*
G36*
X242780Y75459D02*X242848Y75347D01*
X243308Y74808D01*
X243847Y74348D01*
X244451Y73978D01*
X245105Y73707D01*
X245794Y73542D01*
X246500Y73486D01*
X246502Y73486D01*
Y72700D01*
X246289D01*
X245870Y72662D01*
X245455Y72587D01*
X245049Y72475D01*
X244654Y72328D01*
X244275Y72145D01*
X244194Y72094D01*
X244123Y72031D01*
X244063Y71958D01*
X244015Y71876D01*
X243981Y71787D01*
X243961Y71694D01*
X243955Y71599D01*
X243965Y71505D01*
X243989Y71413D01*
X244027Y71326D01*
X244079Y71246D01*
X244142Y71175D01*
X244215Y71115D01*
X244297Y71067D01*
X244386Y71033D01*
X244479Y71012D01*
X244574Y71007D01*
X244668Y71017D01*
X244760Y71041D01*
X244846Y71081D01*
X245127Y71219D01*
X245420Y71329D01*
X245723Y71413D01*
X246031Y71468D01*
X246343Y71496D01*
X246502D01*
Y64504D01*
X246343D01*
X246031Y64532D01*
X245723Y64587D01*
X245420Y64671D01*
X245127Y64781D01*
X244844Y64916D01*
X244759Y64956D01*
X244668Y64980D01*
X244574Y64989D01*
X244479Y64984D01*
X244387Y64964D01*
X244299Y64930D01*
X244217Y64882D01*
X244144Y64822D01*
X244081Y64752D01*
X244030Y64672D01*
X243992Y64586D01*
X243968Y64495D01*
X243959Y64401D01*
X243964Y64306D01*
X243984Y64214D01*
X244019Y64126D01*
X244066Y64044D01*
X244126Y63971D01*
X244196Y63908D01*
X244277Y63859D01*
X244654Y63672D01*
X245049Y63525D01*
X245455Y63413D01*
X245870Y63338D01*
X246289Y63300D01*
X246502D01*
Y1500D01*
X242780D01*
Y65467D01*
X242806Y65461D01*
X242901Y65455D01*
X242995Y65465D01*
X243087Y65489D01*
X243174Y65527D01*
X243254Y65579D01*
X243325Y65642D01*
X243385Y65715D01*
X243433Y65797D01*
X243467Y65886D01*
X243488Y65979D01*
X243493Y66074D01*
X243483Y66168D01*
X243459Y66260D01*
X243419Y66346D01*
X243281Y66627D01*
X243171Y66920D01*
X243087Y67223D01*
X243032Y67531D01*
X243004Y67843D01*
Y68157D01*
X243032Y68469D01*
X243087Y68777D01*
X243171Y69080D01*
X243281Y69373D01*
X243416Y69656D01*
X243456Y69741D01*
X243480Y69832D01*
X243489Y69926D01*
X243484Y70021D01*
X243464Y70113D01*
X243430Y70201D01*
X243382Y70283D01*
X243322Y70356D01*
X243252Y70419D01*
X243172Y70470D01*
X243086Y70508D01*
X242995Y70532D01*
X242901Y70541D01*
X242806Y70536D01*
X242780Y70530D01*
Y75459D01*
G37*
G36*
Y95459D02*X242848Y95347D01*
X243308Y94808D01*
X243847Y94348D01*
X244451Y93978D01*
X245105Y93707D01*
X245794Y93542D01*
X246500Y93486D01*
X246502Y93486D01*
Y92504D01*
X246500Y92504D01*
X246099Y92487D01*
X245700Y92433D01*
X245309Y92344D01*
X244926Y92221D01*
X244556Y92064D01*
X244202Y91874D01*
X244137Y91829D01*
X244080Y91774D01*
X244032Y91710D01*
X243996Y91640D01*
X243970Y91565D01*
X243956Y91487D01*
X243955Y91408D01*
X243967Y91329D01*
X243990Y91254D01*
X244025Y91183D01*
X244071Y91118D01*
X244126Y91061D01*
X244189Y91013D01*
X244259Y90976D01*
X244334Y90951D01*
X244412Y90937D01*
X244492Y90936D01*
X244570Y90948D01*
X244646Y90971D01*
X244716Y91007D01*
X244990Y91157D01*
X245277Y91279D01*
X245574Y91375D01*
X245879Y91444D01*
X246188Y91486D01*
X246500Y91500D01*
X246502Y91500D01*
Y84500D01*
X246500Y84500D01*
X246188Y84514D01*
X245879Y84556D01*
X245574Y84625D01*
X245277Y84721D01*
X244990Y84843D01*
X244714Y84990D01*
X244645Y85026D01*
X244569Y85049D01*
X244491Y85060D01*
X244413Y85059D01*
X244335Y85046D01*
X244261Y85020D01*
X244191Y84984D01*
X244128Y84936D01*
X244073Y84880D01*
X244028Y84816D01*
X243993Y84745D01*
X243970Y84670D01*
X243959Y84592D01*
X243960Y84513D01*
X243973Y84436D01*
X243999Y84361D01*
X244035Y84292D01*
X244083Y84229D01*
X244139Y84174D01*
X244204Y84130D01*
X244556Y83936D01*
X244926Y83779D01*
X245309Y83656D01*
X245700Y83567D01*
X246099Y83513D01*
X246500Y83496D01*
X246502Y83496D01*
Y82514D01*
X246500Y82514D01*
X245794Y82458D01*
X245105Y82293D01*
X244451Y82022D01*
X243847Y81652D01*
X243308Y81192D01*
X242848Y80653D01*
X242780Y80541D01*
Y85540D01*
X242790Y85532D01*
X242860Y85496D01*
X242935Y85470D01*
X243013Y85456D01*
X243092Y85455D01*
X243171Y85467D01*
X243246Y85490D01*
X243317Y85525D01*
X243382Y85571D01*
X243439Y85626D01*
X243487Y85689D01*
X243524Y85759D01*
X243549Y85834D01*
X243563Y85912D01*
X243564Y85992D01*
X243552Y86070D01*
X243529Y86146D01*
X243493Y86216D01*
X243343Y86490D01*
X243221Y86777D01*
X243125Y87074D01*
X243056Y87379D01*
X243014Y87688D01*
X243000Y88000D01*
X243014Y88312D01*
X243056Y88621D01*
X243125Y88926D01*
X243221Y89223D01*
X243343Y89510D01*
X243490Y89786D01*
X243526Y89855D01*
X243549Y89931D01*
X243560Y90009D01*
X243559Y90087D01*
X243546Y90165D01*
X243520Y90239D01*
X243484Y90309D01*
X243436Y90372D01*
X243380Y90427D01*
X243316Y90472D01*
X243245Y90507D01*
X243170Y90530D01*
X243092Y90541D01*
X243013Y90540D01*
X242936Y90527D01*
X242861Y90501D01*
X242792Y90465D01*
X242780Y90456D01*
Y95459D01*
G37*
G36*
Y119500D02*X246502D01*
Y102514D01*
X246500Y102514D01*
X245794Y102458D01*
X245105Y102293D01*
X244451Y102022D01*
X243847Y101652D01*
X243308Y101192D01*
X242848Y100653D01*
X242780Y100541D01*
Y119500D01*
G37*
G36*
X237000D02*X242780D01*
Y100541D01*
X242478Y100049D01*
X242207Y99395D01*
X242042Y98706D01*
X241986Y98000D01*
X242042Y97294D01*
X242207Y96605D01*
X242478Y95951D01*
X242780Y95459D01*
Y90456D01*
X242729Y90417D01*
X242674Y90361D01*
X242630Y90296D01*
X242436Y89944D01*
X242279Y89574D01*
X242156Y89191D01*
X242067Y88800D01*
X242013Y88401D01*
X241996Y88000D01*
X242013Y87599D01*
X242067Y87200D01*
X242156Y86809D01*
X242279Y86426D01*
X242436Y86056D01*
X242626Y85702D01*
X242671Y85637D01*
X242726Y85580D01*
X242780Y85540D01*
Y80541D01*
X242478Y80049D01*
X242207Y79395D01*
X242042Y78706D01*
X241986Y78000D01*
X242042Y77294D01*
X242207Y76605D01*
X242478Y75951D01*
X242780Y75459D01*
Y70530D01*
X242714Y70516D01*
X242626Y70481D01*
X242544Y70434D01*
X242471Y70374D01*
X242408Y70304D01*
X242359Y70223D01*
X242172Y69846D01*
X242025Y69451D01*
X241913Y69045D01*
X241838Y68630D01*
X241800Y68211D01*
Y67789D01*
X241838Y67370D01*
X241913Y66955D01*
X242025Y66549D01*
X242172Y66154D01*
X242355Y65775D01*
X242406Y65694D01*
X242469Y65623D01*
X242542Y65563D01*
X242624Y65515D01*
X242713Y65481D01*
X242780Y65467D01*
Y1500D01*
X237000D01*
Y95197D01*
X238018Y96858D01*
X238962Y99138D01*
X239539Y101539D01*
X239684Y104000D01*
X239539Y106461D01*
X238962Y108862D01*
X238018Y111142D01*
X237000Y112803D01*
Y119500D01*
G37*
G54D38*X60000Y61500D02*X55000Y66500D01*
X50000Y51000D02*Y52000D01*
X53500Y55500D01*
X62500D01*
X60000Y61000D02*Y61500D01*
X62500Y55500D02*X64500Y53500D01*
Y41500D01*
X67000Y39000D01*
X55000Y66500D02*Y73000D01*
X58500Y76500D01*
X50000Y71000D02*X58000Y79000D01*
X41500Y74000D02*Y63500D01*
X44000Y61000D01*
X50000D01*
X99500Y58500D02*X106000D01*
X108000Y56500D01*
Y34000D01*
X118000Y70500D02*X120500Y73000D01*
Y81500D01*
G54D39*X108500Y60500D02*X107000Y62000D01*
X103500D01*
G54D38*X105000Y66500D02*X109000Y70500D01*
X118000D02*X109000D01*
X67000Y39000D02*X91500D01*
X94500Y42000D01*
Y48500D01*
G54D39*X84000Y73500D02*X81500Y76000D01*
X85500Y78500D02*X88000D01*
G54D40*X79500Y71000D02*X102000Y48500D01*
Y30000D01*
X104500Y27500D01*
X115500D01*
G54D39*X103500Y62000D02*X92000Y73500D01*
X84000D01*
X81500Y76000D02*Y90500D01*
X85500Y87500D02*X87500D01*
X92000Y92000D01*
X85500Y83000D02*X88000D01*
Y78500D02*X95000Y85500D01*
X88000Y83000D02*X93500Y88500D01*
G54D40*X60000Y71000D02*X79500D01*
G54D38*X58500Y76500D02*X75500D01*
X79000Y80000D01*
X58000Y79000D02*X73500D01*
X76500Y82000D01*
G54D39*X81500Y90500D02*X83000Y92000D01*
X85500D01*
G54D38*X79000Y80000D02*Y92000D01*
X76500Y82000D02*Y93000D01*
X82500Y99000D01*
X79000Y92000D02*X83000Y96000D01*
X95000D01*
X82500Y99000D02*X90000D01*
X92500Y101500D01*
G54D41*X256000Y52500D02*X239500D01*
G54D39*X95000Y85500D02*X108500D01*
G54D42*X158000Y83000D02*X171000D01*
X173500Y80500D01*
Y66000D01*
G54D38*X95500Y96500D02*X106500Y107500D01*
X95000Y96000D02*X96500Y97500D01*
X92500Y101500D02*Y107500D01*
X106500D02*X112500D01*
G54D39*X103500Y95000D02*X115500D01*
X117500Y93000D01*
Y85500D01*
X92000Y92000D02*X100500D01*
X103500Y95000D01*
X93500Y88500D02*X105000D01*
X107000Y90500D01*
X111500D01*
X113500Y88500D01*
G54D37*G36*
X108500Y17500D02*Y9500D01*
X116500D01*
Y17500D01*
X108500D01*
G37*
G54D43*X46500Y17000D03*
G54D44*X13500Y50500D03*
G54D37*G36*
X9500Y34500D02*Y26500D01*
X17500D01*
Y34500D01*
X9500D01*
G37*
G54D44*X13500Y10500D03*
G54D45*X50000Y51000D03*
G54D37*G36*
X68500Y17500D02*Y9500D01*
X76500D01*
Y17500D01*
X68500D01*
G37*
G54D44*X92500Y13500D03*
G54D45*X60000Y51000D03*
G54D44*X132500Y13500D03*
G54D37*G36*
X192000Y17500D02*Y9500D01*
X200000D01*
Y17500D01*
X192000D01*
G37*
G54D44*X216000Y13500D03*
G54D37*G36*
X152000Y17500D02*Y9500D01*
X160000D01*
Y17500D01*
X152000D01*
G37*
G54D44*X176000Y13500D03*
G54D43*X276000Y17000D03*
G54D37*G36*
X168500Y111500D02*Y103500D01*
X176500D01*
Y111500D01*
X168500D01*
G37*
G54D46*X202500Y57500D03*
X212500D03*
G54D37*G36*
X218563Y61437D02*Y53563D01*
X226437D01*
Y61437D01*
X218563D01*
G37*
G54D44*X268500Y110500D03*
G54D47*X281500Y103000D03*
G54D44*X268500Y50500D03*
Y70500D03*
G54D47*X281500Y58000D03*
G54D44*X268500Y90500D03*
G54D48*X256500Y83000D03*
X246500Y88000D03*
X256500Y93000D03*
X246500Y98000D03*
G54D43*X224000Y104000D03*
G54D48*X256500Y63000D03*
X246500Y68000D03*
X256500Y73000D03*
X246500Y78000D03*
G54D43*X46500Y104000D03*
G54D37*G36*
X9500Y114500D02*Y106500D01*
X17500D01*
Y114500D01*
X9500D01*
G37*
G54D44*X13500Y90500D03*
X152500Y107500D03*
G54D37*G36*
X128500Y111500D02*Y103500D01*
X136500D01*
Y111500D01*
X128500D01*
G37*
G54D44*X112500Y107500D03*
G54D37*G36*
X88500Y111500D02*Y103500D01*
X96500D01*
Y111500D01*
X88500D01*
G37*
G54D44*X72500Y107500D03*
G54D37*G36*
X146500Y49894D02*Y42894D01*
X153500D01*
Y49894D01*
X146500D01*
G37*
G54D48*X150000Y65606D03*
G54D37*G36*
X9500Y74500D02*Y66500D01*
X17500D01*
Y74500D01*
X9500D01*
G37*
G36*
X47000Y74000D02*Y68000D01*
X53000D01*
Y74000D01*
X47000D01*
G37*
G54D45*X50000Y61000D03*
X60000Y71000D03*
Y61000D03*
G54D49*X206500Y79500D03*
X207000Y111000D03*
X171500Y52000D03*
Y47500D03*
X174000Y22500D03*
X178500D03*
X173500Y66000D03*
X236000Y11500D03*
Y7000D03*
X231500Y11500D03*
Y7000D03*
X252500Y11500D03*
Y7000D03*
X248000Y11500D03*
Y7000D03*
X171500Y56500D03*
X149000Y55500D03*
X153500D03*
X158000D03*
Y83000D03*
X151500Y22500D03*
X156000D03*
X160500D03*
X165000D03*
X169500D03*
X114000Y64000D03*
Y59500D03*
Y55000D03*
X113500Y88500D03*
X132000Y50000D03*
X120500Y81500D03*
X137000Y50000D03*
X134500Y46500D03*
X117500Y85500D03*
X110000Y24500D03*
X115000D03*
X120000D03*
X125000D03*
X130000D03*
X135000D03*
X99500Y58500D03*
X94500Y48500D03*
X85500Y78500D03*
Y83000D03*
Y87500D03*
Y92000D03*
X108000Y34000D03*
X68000Y35500D03*
X108500Y60500D03*
X105000Y66500D03*
X41500Y74000D03*
X109000Y86000D03*
X43500Y44500D03*
X49000D03*
G54D50*G54D51*G54D52*G54D51*G54D53*G54D51*G54D53*G54D51*G54D52*G54D51*G54D54*G54D51*G54D55*G54D51*G54D55*G54D51*G54D56*G54D52*G54D56*G54D52*G54D51*G54D50*G54D51*G54D53*M02*
